<svg width="128" height="30" viewBox="0 0 128 30" fill="none" xmlns="http://www.w3.org/2000/svg">
<rect width="128" height="30" rx="2" fill="#3B5998"/>
<circle cx="124" cy="26" r="3" stroke="black" stroke-opacity="0.3" stroke-width="0.2"/>
<path d="M126.178 27.694C126.046 27.832 125.911 27.931 125.773 27.991C125.635 28.051 125.482 28.081 125.314 28.081C125.08 28.081 124.9 28.024 124.774 27.91C124.648 27.79 124.528 27.58 124.414 27.28L124.072 26.398C124 26.236 123.931 26.119 123.865 26.047C123.799 25.969 123.691 25.93 123.541 25.93V26.902C123.541 27.178 123.562 27.376 123.604 27.496C123.652 27.61 123.76 27.742 123.928 27.892L123.865 28H122.245L122.182 27.838C122.332 27.796 122.44 27.757 122.506 27.721C122.572 27.679 122.617 27.625 122.641 27.559C122.665 27.493 122.677 27.391 122.677 27.253V24.913C122.677 24.625 122.653 24.424 122.605 24.31C122.563 24.19 122.458 24.058 122.29 23.914L122.362 23.797H123.928L123.991 23.941C123.799 24.043 123.676 24.139 123.622 24.229C123.568 24.319 123.541 24.472 123.541 24.688V25.804H123.568L124.639 24.589C124.693 24.523 124.729 24.466 124.747 24.418C124.771 24.364 124.786 24.304 124.792 24.238C124.792 24.196 124.768 24.115 124.72 23.995L124.666 23.896L124.783 23.797H125.845L125.899 23.959L125.692 24.022C125.524 24.094 125.365 24.214 125.215 24.382L123.955 25.822C124.267 25.846 124.513 25.912 124.693 26.02C124.873 26.122 125.005 26.275 125.089 26.479L125.503 27.523C125.533 27.601 125.569 27.658 125.611 27.694C125.653 27.724 125.707 27.739 125.773 27.739C125.869 27.739 125.98 27.691 126.106 27.595L126.178 27.694Z" fill="black" fill-opacity="0.3"/>
<path d="M44.5 9.53V11.225H40.135V13.91H43.48V15.575H40.135V20H38.035V9.53H44.5ZM52.4091 18.005H48.2391L47.5491 20H45.3441L49.1091 9.515H51.5541L55.3191 20H53.0991L52.4091 18.005ZM51.8391 16.325L50.3241 11.945L48.8091 16.325H51.8391ZM56.2164 14.75C56.2164 13.72 56.4464 12.8 56.9064 11.99C57.3764 11.17 58.0114 10.535 58.8114 10.085C59.6214 9.625 60.5264 9.395 61.5264 9.395C62.6964 9.395 63.7214 9.695 64.6014 10.295C65.4814 10.895 66.0964 11.725 66.4464 12.785H64.0314C63.7914 12.285 63.4514 11.91 63.0114 11.66C62.5814 11.41 62.0814 11.285 61.5114 11.285C60.9014 11.285 60.3564 11.43 59.8764 11.72C59.4064 12 59.0364 12.4 58.7664 12.92C58.5064 13.44 58.3764 14.05 58.3764 14.75C58.3764 15.44 58.5064 16.05 58.7664 16.58C59.0364 17.1 59.4064 17.505 59.8764 17.795C60.3564 18.075 60.9014 18.215 61.5114 18.215C62.0814 18.215 62.5814 18.09 63.0114 17.84C63.4514 17.58 63.7914 17.2 64.0314 16.7H66.4464C66.0964 17.77 65.4814 18.605 64.6014 19.205C63.7314 19.795 62.7064 20.09 61.5264 20.09C60.5264 20.09 59.6214 19.865 58.8114 19.415C58.0114 18.955 57.3764 18.32 56.9064 17.51C56.4464 16.7 56.2164 15.78 56.2164 14.75ZM70.3401 11.225V13.85H73.8651V15.515H70.3401V18.29H74.3151V20H68.2401V9.515H74.3151V11.225H70.3401ZM82.1635 14.63C82.7535 14.74 83.2385 15.035 83.6185 15.515C83.9985 15.995 84.1885 16.545 84.1885 17.165C84.1885 17.725 84.0485 18.22 83.7685 18.65C83.4985 19.07 83.1035 19.4 82.5835 19.64C82.0635 19.88 81.4485 20 80.7385 20H76.2235V9.53H80.5435C81.2535 9.53 81.8635 9.645 82.3735 9.875C82.8935 10.105 83.2835 10.425 83.5435 10.835C83.8135 11.245 83.9485 11.71 83.9485 12.23C83.9485 12.84 83.7835 13.35 83.4535 13.76C83.1335 14.17 82.7035 14.46 82.1635 14.63ZM78.3235 13.85H80.2435C80.7435 13.85 81.1285 13.74 81.3985 13.52C81.6685 13.29 81.8035 12.965 81.8035 12.545C81.8035 12.125 81.6685 11.8 81.3985 11.57C81.1285 11.34 80.7435 11.225 80.2435 11.225H78.3235V13.85ZM80.4385 18.29C80.9485 18.29 81.3435 18.17 81.6235 17.93C81.9135 17.69 82.0585 17.35 82.0585 16.91C82.0585 16.46 81.9085 16.11 81.6085 15.86C81.3085 15.6 80.9035 15.47 80.3935 15.47H78.3235V18.29H80.4385ZM90.7221 20.105C89.7421 20.105 88.8421 19.875 88.0221 19.415C87.2021 18.955 86.5521 18.32 86.0721 17.51C85.5921 16.69 85.3521 15.765 85.3521 14.735C85.3521 13.715 85.5921 12.8 86.0721 11.99C86.5521 11.17 87.2021 10.53 88.0221 10.07C88.8421 9.61 89.7421 9.38 90.7221 9.38C91.7121 9.38 92.6121 9.61 93.4221 10.07C94.2421 10.53 94.8871 11.17 95.3571 11.99C95.8371 12.8 96.0771 13.715 96.0771 14.735C96.0771 15.765 95.8371 16.69 95.3571 17.51C94.8871 18.32 94.2421 18.955 93.4221 19.415C92.6021 19.875 91.7021 20.105 90.7221 20.105ZM90.7221 18.23C91.3521 18.23 91.9071 18.09 92.3871 17.81C92.8671 17.52 93.2421 17.11 93.5121 16.58C93.7821 16.05 93.9171 15.435 93.9171 14.735C93.9171 14.035 93.7821 13.425 93.5121 12.905C93.2421 12.375 92.8671 11.97 92.3871 11.69C91.9071 11.41 91.3521 11.27 90.7221 11.27C90.0921 11.27 89.5321 11.41 89.0421 11.69C88.5621 11.97 88.1871 12.375 87.9171 12.905C87.6471 13.425 87.5121 14.035 87.5121 14.735C87.5121 15.435 87.6471 16.05 87.9171 16.58C88.1871 17.11 88.5621 17.52 89.0421 17.81C89.5321 18.09 90.0921 18.23 90.7221 18.23ZM102.499 20.105C101.519 20.105 100.619 19.875 99.7995 19.415C98.9795 18.955 98.3295 18.32 97.8495 17.51C97.3695 16.69 97.1295 15.765 97.1295 14.735C97.1295 13.715 97.3695 12.8 97.8495 11.99C98.3295 11.17 98.9795 10.53 99.7995 10.07C100.619 9.61 101.519 9.38 102.499 9.38C103.489 9.38 104.389 9.61 105.199 10.07C106.019 10.53 106.664 11.17 107.134 11.99C107.614 12.8 107.854 13.715 107.854 14.735C107.854 15.765 107.614 16.69 107.134 17.51C106.664 18.32 106.019 18.955 105.199 19.415C104.379 19.875 103.479 20.105 102.499 20.105ZM102.499 18.23C103.129 18.23 103.684 18.09 104.164 17.81C104.644 17.52 105.019 17.11 105.289 16.58C105.559 16.05 105.694 15.435 105.694 14.735C105.694 14.035 105.559 13.425 105.289 12.905C105.019 12.375 104.644 11.97 104.164 11.69C103.684 11.41 103.129 11.27 102.499 11.27C101.869 11.27 101.309 11.41 100.819 11.69C100.339 11.97 99.9645 12.375 99.6945 12.905C99.4245 13.425 99.2895 14.035 99.2895 14.735C99.2895 15.435 99.4245 16.05 99.6945 16.58C99.9645 17.11 100.339 17.52 100.819 17.81C101.309 18.09 101.869 18.23 102.499 18.23ZM115.327 20L111.517 15.335V20H109.417V9.53H111.517V14.225L115.327 9.53H117.862L113.542 14.72L117.982 20H115.327Z" fill="white"/>
<circle cx="17" cy="15" r="12" fill="white"/>
<path d="M20.4916 16L20.9216 13.1044H18.2328V11.2253C18.2328 10.4331 18.6084 9.66094 19.8126 9.66094H21.035V7.19563C21.035 7.19563 19.9257 7 18.8651 7C16.6508 7 15.2035 8.38688 15.2035 10.8975V13.1044H12.7421V16H15.2035V23H18.2328V16H20.4916Z" fill="#3B5998"/>
</svg>
