<svg width="120" height="30" viewBox="0 0 120 30" fill="none" xmlns="http://www.w3.org/2000/svg">
<rect width="120" height="30" rx="2" fill="#DB4437"/>
<circle cx="116" cy="26" r="3" stroke="black" stroke-opacity="0.3" stroke-width="0.2"/>
<path d="M118.178 27.694C118.046 27.832 117.911 27.931 117.773 27.991C117.635 28.051 117.482 28.081 117.314 28.081C117.08 28.081 116.9 28.024 116.774 27.91C116.648 27.79 116.528 27.58 116.414 27.28L116.072 26.398C116 26.236 115.931 26.119 115.865 26.047C115.799 25.969 115.691 25.93 115.541 25.93V26.902C115.541 27.178 115.562 27.376 115.604 27.496C115.652 27.61 115.76 27.742 115.928 27.892L115.865 28H114.245L114.182 27.838C114.332 27.796 114.44 27.757 114.506 27.721C114.572 27.679 114.617 27.625 114.641 27.559C114.665 27.493 114.677 27.391 114.677 27.253V24.913C114.677 24.625 114.653 24.424 114.605 24.31C114.563 24.19 114.458 24.058 114.29 23.914L114.362 23.797H115.928L115.991 23.941C115.799 24.043 115.676 24.139 115.622 24.229C115.568 24.319 115.541 24.472 115.541 24.688V25.804H115.568L116.639 24.589C116.693 24.523 116.729 24.466 116.747 24.418C116.771 24.364 116.786 24.304 116.792 24.238C116.792 24.196 116.768 24.115 116.72 23.995L116.666 23.896L116.783 23.797H117.845L117.899 23.959L117.692 24.022C117.524 24.094 117.365 24.214 117.215 24.382L115.955 25.822C116.267 25.846 116.513 25.912 116.693 26.02C116.873 26.122 117.005 26.275 117.089 26.479L117.503 27.523C117.533 27.601 117.569 27.658 117.611 27.694C117.653 27.724 117.707 27.739 117.773 27.739C117.869 27.739 117.98 27.691 118.106 27.595L118.178 27.694Z" fill="black" fill-opacity="0.3"/>
<path d="M51.92 12.8C51.73 12.45 51.455 12.185 51.095 12.005C50.745 11.815 50.33 11.72 49.85 11.72C49.02 11.72 48.355 11.995 47.855 12.545C47.355 13.085 47.105 13.81 47.105 14.72C47.105 15.69 47.365 16.45 47.885 17C48.415 17.54 49.14 17.81 50.06 17.81C50.69 17.81 51.22 17.65 51.65 17.33C52.09 17.01 52.41 16.55 52.61 15.95H49.355V14.06H54.935V16.445C54.745 17.085 54.42 17.68 53.96 18.23C53.51 18.78 52.935 19.225 52.235 19.565C51.535 19.905 50.745 20.075 49.865 20.075C48.825 20.075 47.895 19.85 47.075 19.4C46.265 18.94 45.63 18.305 45.17 17.495C44.72 16.685 44.495 15.76 44.495 14.72C44.495 13.68 44.72 12.755 45.17 11.945C45.63 11.125 46.265 10.49 47.075 10.04C47.885 9.58 48.81 9.35 49.85 9.35C51.11 9.35 52.17 9.655 53.03 10.265C53.9 10.875 54.475 11.72 54.755 12.8H51.92ZM64.3058 13.67V15.8H57.7058V13.67H64.3058ZM79.982 9.47V20H77.417V13.685L75.062 20H72.992L70.622 13.67V20H68.057V9.47H71.087L74.042 16.76L76.967 9.47H79.982ZM89.8815 18.14H85.9515L85.3215 20H82.6365L86.4465 9.47H89.4165L93.2265 20H90.5115L89.8815 18.14ZM89.2215 16.16L87.9165 12.305L86.6265 16.16H89.2215ZM98.4511 9.47V20H95.8861V9.47H98.4511ZM104.375 18.02H107.735V20H101.81V9.47H104.375V18.02Z" fill="white"/>
<circle cx="17" cy="15" r="12" fill="white"/>
<path d="M20.5422 17.2133H20.0967V18.3844C19.2698 19.164 18.1966 19.5926 17.0626 19.5926C14.5921 19.5926 12.5941 17.5609 12.5941 15.0566C12.5941 12.5557 14.5921 10.5206 17.0626 10.5206C18.2539 10.5206 19.3778 10.9931 20.2216 11.8504L22.3242 9.714C20.9134 8.28637 19.0471 7.5 17.0558 7.5C12.9147 7.5 9.60718 10.8953 9.60718 15.06C9.60718 19.1944 12.8809 22.62 17.0558 22.62C19.1888 22.62 21.2577 21.7358 22.8271 19.8356C22.7596 18.9041 22.3748 17.2133 20.5422 17.2133ZM20.1338 13.4164H16.5462V16.4201H20.5422C21.6728 16.4201 22.5841 16.9298 23.1072 17.8309V16.7981C23.1072 14.5976 21.7437 13.4164 20.1338 13.4164Z" fill="#DB4437"/>
</svg>
