<svg width="133" height="30" viewBox="0 0 133 30" fill="none" xmlns="http://www.w3.org/2000/svg">
<rect width="133" height="30" rx="2" fill="#BC2A8D"/>
<circle cx="129" cy="26" r="3" stroke="black" stroke-opacity="0.3" stroke-width="0.2"/>
<path d="M131.178 27.694C131.046 27.832 130.911 27.931 130.773 27.991C130.635 28.051 130.482 28.081 130.314 28.081C130.08 28.081 129.9 28.024 129.774 27.91C129.648 27.79 129.528 27.58 129.414 27.28L129.072 26.398C129 26.236 128.931 26.119 128.865 26.047C128.799 25.969 128.691 25.93 128.541 25.93V26.902C128.541 27.178 128.562 27.376 128.604 27.496C128.652 27.61 128.76 27.742 128.928 27.892L128.865 28H127.245L127.182 27.838C127.332 27.796 127.44 27.757 127.506 27.721C127.572 27.679 127.617 27.625 127.641 27.559C127.665 27.493 127.677 27.391 127.677 27.253V24.913C127.677 24.625 127.653 24.424 127.605 24.31C127.563 24.19 127.458 24.058 127.29 23.914L127.362 23.797H128.928L128.991 23.941C128.799 24.043 128.676 24.139 128.622 24.229C128.568 24.319 128.541 24.472 128.541 24.688V25.804H128.568L129.639 24.589C129.693 24.523 129.729 24.466 129.747 24.418C129.771 24.364 129.786 24.304 129.792 24.238C129.792 24.196 129.768 24.115 129.72 23.995L129.666 23.896L129.783 23.797H130.845L130.899 23.959L130.692 24.022C130.524 24.094 130.365 24.214 130.215 24.382L128.955 25.822C129.267 25.846 129.513 25.912 129.693 26.02C129.873 26.122 130.005 26.275 130.089 26.479L130.503 27.523C130.533 27.601 130.569 27.658 130.611 27.694C130.653 27.724 130.707 27.739 130.773 27.739C130.869 27.739 130.98 27.691 131.106 27.595L131.178 27.694Z" fill="black" fill-opacity="0.3"/>
<path d="M39.135 9.53V20H37.035V9.53H39.135ZM50.1648 20H48.0648L43.3098 12.815V20H41.2098V9.515H43.3098L48.0648 16.715V9.515H50.1648V20ZM55.8551 20.105C55.1251 20.105 54.4651 19.98 53.8751 19.73C53.2951 19.48 52.8351 19.12 52.4951 18.65C52.1551 18.18 51.9801 17.625 51.9701 16.985H54.2201C54.2501 17.415 54.4001 17.755 54.6701 18.005C54.9501 18.255 55.3301 18.38 55.8101 18.38C56.3001 18.38 56.6851 18.265 56.9651 18.035C57.2451 17.795 57.3851 17.485 57.3851 17.105C57.3851 16.795 57.2901 16.54 57.1001 16.34C56.9101 16.14 56.6701 15.985 56.3801 15.875C56.1001 15.755 55.7101 15.625 55.2101 15.485C54.5301 15.285 53.9751 15.09 53.5451 14.9C53.1251 14.7 52.7601 14.405 52.4501 14.015C52.1501 13.615 52.0001 13.085 52.0001 12.425C52.0001 11.805 52.1551 11.265 52.4651 10.805C52.7751 10.345 53.2101 9.995 53.7701 9.755C54.3301 9.505 54.9701 9.38 55.6901 9.38C56.7701 9.38 57.6451 9.645 58.3151 10.175C58.9951 10.695 59.3701 11.425 59.4401 12.365H57.1301C57.1101 12.005 56.9551 11.71 56.6651 11.48C56.3851 11.24 56.0101 11.12 55.5401 11.12C55.1301 11.12 54.8001 11.225 54.5501 11.435C54.3101 11.645 54.1901 11.95 54.1901 12.35C54.1901 12.63 54.2801 12.865 54.4601 13.055C54.6501 13.235 54.8801 13.385 55.1501 13.505C55.4301 13.615 55.8201 13.745 56.3201 13.895C57.0001 14.095 57.5551 14.295 57.9851 14.495C58.4151 14.695 58.7851 14.995 59.0951 15.395C59.4051 15.795 59.5601 16.32 59.5601 16.97C59.5601 17.53 59.4151 18.05 59.1251 18.53C58.8351 19.01 58.4101 19.395 57.8501 19.685C57.2901 19.965 56.6251 20.105 55.8551 20.105ZM68.5057 9.53V11.225H65.7157V20H63.6157V11.225H60.8257V9.53H68.5057ZM76.4579 18.005H72.2879L71.5979 20H69.3929L73.1579 9.515H75.6029L79.3679 20H77.1479L76.4579 18.005ZM75.8879 16.325L74.3729 11.945L72.8579 16.325H75.8879ZM88.0652 12.68C87.8252 12.24 87.4952 11.905 87.0752 11.675C86.6552 11.445 86.1652 11.33 85.6052 11.33C84.9852 11.33 84.4352 11.47 83.9552 11.75C83.4752 12.03 83.1002 12.43 82.8302 12.95C82.5602 13.47 82.4252 14.07 82.4252 14.75C82.4252 15.45 82.5602 16.06 82.8302 16.58C83.1102 17.1 83.4952 17.5 83.9852 17.78C84.4752 18.06 85.0452 18.2 85.6952 18.2C86.4952 18.2 87.1502 17.99 87.6602 17.57C88.1702 17.14 88.5052 16.545 88.6652 15.785H85.0652V14.18H90.7352V16.01C90.5952 16.74 90.2952 17.415 89.8352 18.035C89.3752 18.655 88.7802 19.155 88.0502 19.535C87.3302 19.905 86.5202 20.09 85.6202 20.09C84.6102 20.09 83.6952 19.865 82.8752 19.415C82.0652 18.955 81.4252 18.32 80.9552 17.51C80.4952 16.7 80.2652 15.78 80.2652 14.75C80.2652 13.72 80.4952 12.8 80.9552 11.99C81.4252 11.17 82.0652 10.535 82.8752 10.085C83.6952 9.625 84.6052 9.395 85.6052 9.395C86.7852 9.395 87.8102 9.685 88.6802 10.265C89.5502 10.835 90.1502 11.64 90.4802 12.68H88.0652ZM97.6889 20L95.3789 15.92H94.3889V20H92.2889V9.53H96.2189C97.0289 9.53 97.7189 9.675 98.2889 9.965C98.8589 10.245 99.2839 10.63 99.5639 11.12C99.8539 11.6 99.9989 12.14 99.9989 12.74C99.9989 13.43 99.7989 14.055 99.3989 14.615C98.9989 15.165 98.4039 15.545 97.6139 15.755L100.119 20H97.6889ZM94.3889 14.345H96.1439C96.7139 14.345 97.1389 14.21 97.4189 13.94C97.6989 13.66 97.8389 13.275 97.8389 12.785C97.8389 12.305 97.6989 11.935 97.4189 11.675C97.1389 11.405 96.7139 11.27 96.1439 11.27H94.3889V14.345ZM108.318 18.005H104.148L103.458 20H101.253L105.018 9.515H107.463L111.228 20H109.008L108.318 18.005ZM107.748 16.325L106.233 11.945L104.718 16.325H107.748ZM124.051 9.53V20H121.951V13.19L119.146 20H117.556L114.736 13.19V20H112.636V9.53H115.021L118.351 17.315L121.681 9.53H124.051Z" fill="white"/>
<circle cx="17" cy="15" r="12" fill="white"/>
<path d="M17.0017 11.1534C14.8734 11.1534 13.1567 12.8701 13.1567 14.9983C13.1567 17.1266 14.8734 18.8433 17.0017 18.8433C19.13 18.8433 20.8466 17.1266 20.8466 14.9983C20.8466 12.8701 19.13 11.1534 17.0017 11.1534ZM17.0017 17.498C15.6263 17.498 14.502 16.377 14.502 14.9983C14.502 13.6196 15.623 12.4986 17.0017 12.4986C18.3804 12.4986 19.5014 13.6196 19.5014 14.9983C19.5014 16.377 18.377 17.498 17.0017 17.498ZM21.9007 10.9961C21.9007 11.4947 21.4992 11.8929 21.0039 11.8929C20.5053 11.8929 20.1071 11.4914 20.1071 10.9961C20.1071 10.5008 20.5086 10.0993 21.0039 10.0993C21.4992 10.0993 21.9007 10.5008 21.9007 10.9961ZM24.4473 11.9063C24.3904 10.705 24.116 9.64083 23.2359 8.76408C22.3592 7.88734 21.295 7.61294 20.0937 7.5527C18.8555 7.48243 15.1445 7.48243 13.9063 7.5527C12.7083 7.60959 11.6442 7.88399 10.7641 8.76074C9.88399 9.63748 9.61294 10.7016 9.5527 11.903C9.48243 13.1411 9.48243 16.8522 9.5527 18.0904C9.60959 19.2917 9.88399 20.3558 10.7641 21.2326C11.6442 22.1093 12.705 22.3837 13.9063 22.4439C15.1445 22.5142 18.8555 22.5142 20.0937 22.4439C21.295 22.3871 22.3592 22.1127 23.2359 21.2326C24.1127 20.3558 24.3871 19.2917 24.4473 18.0904C24.5176 16.8522 24.5176 13.1445 24.4473 11.9063ZM22.8477 19.4189C22.5867 20.0747 22.0814 20.58 21.4222 20.8444C20.435 21.2359 18.0926 21.1456 17.0017 21.1456C15.9108 21.1456 13.565 21.2326 12.5811 20.8444C11.9253 20.5834 11.42 20.0781 11.1556 19.4189C10.7641 18.4317 10.8544 16.0892 10.8544 14.9983C10.8544 13.9074 10.7674 11.5616 11.1556 10.5778C11.4166 9.92192 11.9219 9.41662 12.5811 9.15226C13.5683 8.76074 15.9108 8.85109 17.0017 8.85109C18.0926 8.85109 20.4384 8.76408 21.4222 9.15226C22.0781 9.41327 22.5834 9.91857 22.8477 10.5778C23.2393 11.565 23.1489 13.9074 23.1489 14.9983C23.1489 16.0892 23.2393 18.435 22.8477 19.4189Z" fill="#CD486B"/>
</svg>
