<svg width="120" height="30" viewBox="0 0 120 30" fill="none" xmlns="http://www.w3.org/2000/svg">
<rect width="120" height="30" rx="2" fill="#0E76A8"/>
<circle cx="116" cy="26" r="3" stroke="black" stroke-opacity="0.3" stroke-width="0.2"/>
<path d="M118.178 27.694C118.046 27.832 117.911 27.931 117.773 27.991C117.635 28.051 117.482 28.081 117.314 28.081C117.08 28.081 116.9 28.024 116.774 27.91C116.648 27.79 116.528 27.58 116.414 27.28L116.072 26.398C116 26.236 115.931 26.119 115.865 26.047C115.799 25.969 115.691 25.93 115.541 25.93V26.902C115.541 27.178 115.562 27.376 115.604 27.496C115.652 27.61 115.76 27.742 115.928 27.892L115.865 28H114.245L114.182 27.838C114.332 27.796 114.44 27.757 114.506 27.721C114.572 27.679 114.617 27.625 114.641 27.559C114.665 27.493 114.677 27.391 114.677 27.253V24.913C114.677 24.625 114.653 24.424 114.605 24.31C114.563 24.19 114.458 24.058 114.29 23.914L114.362 23.797H115.928L115.991 23.941C115.799 24.043 115.676 24.139 115.622 24.229C115.568 24.319 115.541 24.472 115.541 24.688V25.804H115.568L116.639 24.589C116.693 24.523 116.729 24.466 116.747 24.418C116.771 24.364 116.786 24.304 116.792 24.238C116.792 24.196 116.768 24.115 116.72 23.995L116.666 23.896L116.783 23.797H117.845L117.899 23.959L117.692 24.022C117.524 24.094 117.365 24.214 117.215 24.382L115.955 25.822C116.267 25.846 116.513 25.912 116.693 26.02C116.873 26.122 117.005 26.275 117.089 26.479L117.503 27.523C117.533 27.601 117.569 27.658 117.611 27.694C117.653 27.724 117.707 27.739 117.773 27.739C117.869 27.739 117.98 27.691 118.106 27.595L118.178 27.694Z" fill="black" fill-opacity="0.3"/>
<path d="M43.135 18.335H46.585V20H41.035V9.53H43.135V18.335ZM50.0198 9.53V20H47.9198V9.53H50.0198ZM61.0496 20H58.9496L54.1946 12.815V20H52.0946V9.515H54.1946L58.9496 16.715V9.515H61.0496V20ZM69.0348 20L65.2248 15.335V20H63.1248V9.53H65.2248V14.225L69.0348 9.53H71.5698L67.2498 14.72L71.6898 20H69.0348ZM75.1711 11.225V13.85H78.6961V15.515H75.1711V18.29H79.1461V20H73.0711V9.515H79.1461V11.225H75.1711ZM84.7145 9.53C85.8145 9.53 86.7795 9.745 87.6095 10.175C88.4495 10.605 89.0945 11.22 89.5445 12.02C90.0045 12.81 90.2345 13.73 90.2345 14.78C90.2345 15.83 90.0045 16.75 89.5445 17.54C89.0945 18.32 88.4495 18.925 87.6095 19.355C86.7795 19.785 85.8145 20 84.7145 20H81.0545V9.53H84.7145ZM84.6395 18.215C85.7395 18.215 86.5895 17.915 87.1895 17.315C87.7895 16.715 88.0895 15.87 88.0895 14.78C88.0895 13.69 87.7895 12.84 87.1895 12.23C86.5895 11.61 85.7395 11.3 84.6395 11.3H83.1545V18.215H84.6395ZM93.9065 9.53V20H91.8065V9.53H93.9065ZM104.936 20H102.836L98.0813 12.815V20H95.9813V9.515H98.0813L102.836 16.715V9.515H104.936V20Z" fill="white"/>
<ellipse cx="16.5" cy="15" rx="11.5" ry="12" fill="white"/>
<path d="M13.6459 20.9997H10.9637V11.9866H13.6459V20.9997ZM12.3034 10.7572C11.4457 10.7572 10.75 10.0159 10.75 9.1209C10.75 8.69101 10.9137 8.27873 11.205 7.97475C11.4963 7.67077 11.8914 7.5 12.3034 7.5C12.7153 7.5 13.1104 7.67077 13.4018 7.97475C13.6931 8.27873 13.8567 8.69101 13.8567 9.1209C13.8567 10.0159 13.1608 10.7572 12.3034 10.7572ZM23.6846 20.9997H21.0082V16.6122C21.0082 15.5666 20.988 14.2256 19.6136 14.2256C18.2191 14.2256 18.0054 15.3616 18.0054 16.5369V20.9997H15.3261V11.9866H17.8985V13.2161H17.9361C18.2942 12.508 19.1689 11.7606 20.4739 11.7606C23.1885 11.7606 23.6875 13.6259 23.6875 16.0487V20.9997H23.6846Z" fill="#0E76A8"/>
</svg>
