<svg width="120" height="30" viewBox="0 0 120 30" fill="none" xmlns="http://www.w3.org/2000/svg">
<rect width="120" height="30" rx="2" fill="#00AFF0"/>
<circle cx="116" cy="26" r="3" stroke="black" stroke-opacity="0.3" stroke-width="0.2"/>
<path d="M118.178 27.694C118.046 27.832 117.911 27.931 117.773 27.991C117.635 28.051 117.482 28.081 117.314 28.081C117.08 28.081 116.9 28.024 116.774 27.91C116.648 27.79 116.528 27.58 116.414 27.28L116.072 26.398C116 26.236 115.931 26.119 115.865 26.047C115.799 25.969 115.691 25.93 115.541 25.93V26.902C115.541 27.178 115.562 27.376 115.604 27.496C115.652 27.61 115.76 27.742 115.928 27.892L115.865 28H114.245L114.182 27.838C114.332 27.796 114.44 27.757 114.506 27.721C114.572 27.679 114.617 27.625 114.641 27.559C114.665 27.493 114.677 27.391 114.677 27.253V24.913C114.677 24.625 114.653 24.424 114.605 24.31C114.563 24.19 114.458 24.058 114.29 23.914L114.362 23.797H115.928L115.991 23.941C115.799 24.043 115.676 24.139 115.622 24.229C115.568 24.319 115.541 24.472 115.541 24.688V25.804H115.568L116.639 24.589C116.693 24.523 116.729 24.466 116.747 24.418C116.771 24.364 116.786 24.304 116.792 24.238C116.792 24.196 116.768 24.115 116.72 23.995L116.666 23.896L116.783 23.797H117.845L117.899 23.959L117.692 24.022C117.524 24.094 117.365 24.214 117.215 24.382L115.955 25.822C116.267 25.846 116.513 25.912 116.693 26.02C116.873 26.122 117.005 26.275 117.089 26.479L117.503 27.523C117.533 27.601 117.569 27.658 117.611 27.694C117.653 27.724 117.707 27.739 117.773 27.739C117.869 27.739 117.98 27.691 118.106 27.595L118.178 27.694Z" fill="black" fill-opacity="0.3"/>
<path d="M54.65 20.105C53.92 20.105 53.26 19.98 52.67 19.73C52.09 19.48 51.63 19.12 51.29 18.65C50.95 18.18 50.775 17.625 50.765 16.985H53.015C53.045 17.415 53.195 17.755 53.465 18.005C53.745 18.255 54.125 18.38 54.605 18.38C55.095 18.38 55.48 18.265 55.76 18.035C56.04 17.795 56.18 17.485 56.18 17.105C56.18 16.795 56.085 16.54 55.895 16.34C55.705 16.14 55.465 15.985 55.175 15.875C54.895 15.755 54.505 15.625 54.005 15.485C53.325 15.285 52.77 15.09 52.34 14.9C51.92 14.7 51.555 14.405 51.245 14.015C50.945 13.615 50.795 13.085 50.795 12.425C50.795 11.805 50.95 11.265 51.26 10.805C51.57 10.345 52.005 9.995 52.565 9.755C53.125 9.505 53.765 9.38 54.485 9.38C55.565 9.38 56.44 9.645 57.11 10.175C57.79 10.695 58.165 11.425 58.235 12.365H55.925C55.905 12.005 55.75 11.71 55.46 11.48C55.18 11.24 54.805 11.12 54.335 11.12C53.925 11.12 53.595 11.225 53.345 11.435C53.105 11.645 52.985 11.95 52.985 12.35C52.985 12.63 53.075 12.865 53.255 13.055C53.445 13.235 53.675 13.385 53.945 13.505C54.225 13.615 54.615 13.745 55.115 13.895C55.795 14.095 56.35 14.295 56.78 14.495C57.21 14.695 57.58 14.995 57.89 15.395C58.2 15.795 58.355 16.32 58.355 16.97C58.355 17.53 58.21 18.05 57.92 18.53C57.63 19.01 57.205 19.395 56.645 19.685C56.085 19.965 55.42 20.105 54.65 20.105ZM66.0856 20L62.2756 15.335V20H60.1756V9.53H62.2756V14.225L66.0856 9.53H68.6206L64.3006 14.72L68.7406 20H66.0856ZM78.4469 9.53L74.9069 16.355V20H72.8069V16.355L69.2519 9.53H71.6219L73.8719 14.315L76.1069 9.53H78.4469ZM87.293 12.77C87.293 13.33 87.158 13.855 86.888 14.345C86.628 14.835 86.213 15.23 85.643 15.53C85.083 15.83 84.373 15.98 83.513 15.98H81.758V20H79.658V9.53H83.513C84.323 9.53 85.013 9.67 85.583 9.95C86.153 10.23 86.578 10.615 86.858 11.105C87.148 11.595 87.293 12.15 87.293 12.77ZM83.423 14.285C84.003 14.285 84.433 14.155 84.713 13.895C84.993 13.625 85.133 13.25 85.133 12.77C85.133 11.75 84.563 11.24 83.423 11.24H81.758V14.285H83.423ZM90.884 11.225V13.85H94.409V15.515H90.884V18.29H94.859V20H88.784V9.515H94.859V11.225H90.884Z" fill="white"/>
<circle cx="17" cy="15" r="12" fill="white"/>
<path d="M23.723 16.4685C23.8201 15.9996 23.8804 15.5007 23.8804 15.0017C23.8804 11.2006 20.8027 8.12625 17.005 8.12625C16.506 8.12625 16.0104 8.18319 15.5382 8.28366C14.9019 7.79136 14.1115 7.5 13.2508 7.5C11.1812 7.5 9.5 9.18118 9.5 11.2508C9.5 12.1115 9.79136 12.9019 10.2803 13.5348C10.1832 14.0037 10.1229 14.5027 10.1229 15.0017C10.1229 18.8027 13.2006 21.8771 16.9983 21.8771C17.4973 21.8771 17.993 21.8201 18.4652 21.7197C19.1015 22.2086 19.8918 22.5 20.7491 22.5C22.8188 22.5 24.5 20.8188 24.5 18.7491C24.5033 17.8918 24.212 17.1015 23.723 16.4685ZM17.2059 19.5328C15.009 19.5328 13.1705 18.5549 13.1705 17.356C13.1705 16.8201 13.4719 16.3312 14.1584 16.3312C15.2033 16.3312 15.3004 17.8349 17.1088 17.8349C17.9695 17.8349 18.5254 17.4531 18.5254 16.9541C18.5254 16.3278 17.9896 16.2307 17.1189 16.0164C15.0258 15.5007 13.1738 15.2796 13.1738 13.0961C13.1738 11.1135 15.1363 10.3801 16.8275 10.3801C18.6728 10.3801 20.5382 11.1135 20.5382 12.2354C20.5382 12.8014 20.1564 13.3004 19.5234 13.3004C18.5757 13.3004 18.5455 12.1785 17.0117 12.1785C16.151 12.1785 15.6051 12.4129 15.6051 12.932C15.6051 13.5951 16.3017 13.6621 17.9193 14.0372C19.3057 14.3486 20.9568 14.9347 20.9568 16.636C20.9568 18.6152 19.0445 19.5328 17.2059 19.5328Z" fill="#00AFF0"/>
</svg>
