<svg width="121" height="30" viewBox="0 0 121 30" fill="none" xmlns="http://www.w3.org/2000/svg">
<rect width="120" height="30" rx="2" fill="#1DA1F2"/>
<circle cx="117" cy="26" r="3" stroke="black" stroke-opacity="0.3" stroke-width="0.2"/>
<path d="M119.178 27.694C119.046 27.832 118.911 27.931 118.773 27.991C118.635 28.051 118.482 28.081 118.314 28.081C118.08 28.081 117.9 28.024 117.774 27.91C117.648 27.79 117.528 27.58 117.414 27.28L117.072 26.398C117 26.236 116.931 26.119 116.865 26.047C116.799 25.969 116.691 25.93 116.541 25.93V26.902C116.541 27.178 116.562 27.376 116.604 27.496C116.652 27.61 116.76 27.742 116.928 27.892L116.865 28H115.245L115.182 27.838C115.332 27.796 115.44 27.757 115.506 27.721C115.572 27.679 115.617 27.625 115.641 27.559C115.665 27.493 115.677 27.391 115.677 27.253V24.913C115.677 24.625 115.653 24.424 115.605 24.31C115.563 24.19 115.458 24.058 115.29 23.914L115.362 23.797H116.928L116.991 23.941C116.799 24.043 116.676 24.139 116.622 24.229C116.568 24.319 116.541 24.472 116.541 24.688V25.804H116.568L117.639 24.589C117.693 24.523 117.729 24.466 117.747 24.418C117.771 24.364 117.786 24.304 117.792 24.238C117.792 24.196 117.768 24.115 117.72 23.995L117.666 23.896L117.783 23.797H118.845L118.899 23.959L118.692 24.022C118.524 24.094 118.365 24.214 118.215 24.382L116.955 25.822C117.267 25.846 117.513 25.912 117.693 26.02C117.873 26.122 118.005 26.275 118.089 26.479L118.503 27.523C118.533 27.601 118.569 27.658 118.611 27.694C118.653 27.724 118.707 27.739 118.773 27.739C118.869 27.739 118.98 27.691 119.106 27.595L119.178 27.694Z" fill="black" fill-opacity="0.3"/>
<path d="M51.16 9.53V11.225H48.37V20H46.27V11.225H43.48V9.53H51.16ZM66.6872 9.53L63.7622 20H61.2872L59.3222 12.545L57.2672 20L54.8072 20.015L51.9872 9.53H54.2372L56.0822 17.66L58.2122 9.53H60.5522L62.5622 17.615L64.4222 9.53H66.6872ZM70.1584 9.53V20H68.0584V9.53H70.1584ZM79.3582 9.53V11.225H76.5682V20H74.4682V11.225H71.6782V9.53H79.3582ZM88.0155 9.53V11.225H85.2255V20H83.1255V11.225H80.3355V9.53H88.0155ZM91.6477 11.225V13.85H95.1727V15.515H91.6477V18.29H95.6227V20H89.5477V9.515H95.6227V11.225H91.6477ZM102.931 20L100.621 15.92H99.6311V20H97.5311V9.53H101.461C102.271 9.53 102.961 9.675 103.531 9.965C104.101 10.245 104.526 10.63 104.806 11.12C105.096 11.6 105.241 12.14 105.241 12.74C105.241 13.43 105.041 14.055 104.641 14.615C104.241 15.165 103.646 15.545 102.856 15.755L105.361 20H102.931ZM99.6311 14.345H101.386C101.956 14.345 102.381 14.21 102.661 13.94C102.941 13.66 103.081 13.275 103.081 12.785C103.081 12.305 102.941 11.935 102.661 11.675C102.381 11.405 101.956 11.27 101.386 11.27H99.6311V14.345Z" fill="white"/>
<circle cx="17" cy="15" r="12" fill="white"/>
<path d="M23.3554 12.055C23.3655 12.1971 23.3655 12.3393 23.3655 12.4814C23.3655 16.8164 20.066 21.8114 14.0356 21.8114C12.1777 21.8114 10.4518 21.2733 9 20.3393C9.26397 20.3697 9.51775 20.3799 9.79188 20.3799C11.3249 20.3799 12.736 19.8621 13.863 18.9789C12.4213 18.9484 11.2132 18.0043 10.7969 16.7047C11 16.7352 11.203 16.7555 11.4163 16.7555C11.7107 16.7555 12.0051 16.7149 12.2792 16.6438C10.7767 16.3392 9.64972 15.0195 9.64972 13.4255V13.385C10.0863 13.6286 10.5939 13.7809 11.1319 13.8012C10.2487 13.2123 9.67003 12.2073 9.67003 11.0702C9.67003 10.4611 9.83244 9.90269 10.1167 9.41538C11.7309 11.4052 14.1574 12.7047 16.8782 12.8469C16.8274 12.6032 16.7969 12.3494 16.7969 12.0956C16.7969 10.2885 18.2589 8.81641 20.0761 8.81641C21.0203 8.81641 21.8731 9.21235 22.4721 9.85194C23.2132 9.70982 23.9238 9.43569 24.5533 9.06006C24.3096 9.8215 23.7919 10.4611 23.1117 10.8672C23.7716 10.7961 24.4112 10.6134 25 10.3596C24.5534 11.0093 23.995 11.5879 23.3554 12.055Z" fill="#00ACEE"/>
</svg>
