<svg width="120" height="30" viewBox="0 0 120 30" fill="none" xmlns="http://www.w3.org/2000/svg">
<rect width="120" height="30" rx="2" fill="black"/>
<ellipse cx="115.5" cy="26" rx="3.5" ry="3" stroke="black" stroke-opacity="0.3" stroke-width="0.2"/>
<path d="M117.678 27.694C117.546 27.832 117.411 27.931 117.273 27.991C117.135 28.051 116.982 28.081 116.814 28.081C116.58 28.081 116.4 28.024 116.274 27.91C116.148 27.79 116.028 27.58 115.914 27.28L115.572 26.398C115.5 26.236 115.431 26.119 115.365 26.047C115.299 25.969 115.191 25.93 115.041 25.93V26.902C115.041 27.178 115.062 27.376 115.104 27.496C115.152 27.61 115.26 27.742 115.428 27.892L115.365 28H113.745L113.682 27.838C113.832 27.796 113.94 27.757 114.006 27.721C114.072 27.679 114.117 27.625 114.141 27.559C114.165 27.493 114.177 27.391 114.177 27.253V24.913C114.177 24.625 114.153 24.424 114.105 24.31C114.063 24.19 113.958 24.058 113.79 23.914L113.862 23.797H115.428L115.491 23.941C115.299 24.043 115.176 24.139 115.122 24.229C115.068 24.319 115.041 24.472 115.041 24.688V25.804H115.068L116.139 24.589C116.193 24.523 116.229 24.466 116.247 24.418C116.271 24.364 116.286 24.304 116.292 24.238C116.292 24.196 116.268 24.115 116.22 23.995L116.166 23.896L116.283 23.797H117.345L117.399 23.959L117.192 24.022C117.024 24.094 116.865 24.214 116.715 24.382L115.455 25.822C115.767 25.846 116.013 25.912 116.193 26.02C116.373 26.122 116.505 26.275 116.589 26.479L117.003 27.523C117.033 27.601 117.069 27.658 117.111 27.694C117.153 27.724 117.207 27.739 117.273 27.739C117.369 27.739 117.48 27.691 117.606 27.595L117.678 27.694Z" fill="black" fill-opacity="0.3"/>
<path d="M50.481 15.463C50.481 14.579 50.6847 13.786 51.092 13.084C51.508 12.382 52.067 11.836 52.769 11.446C53.4797 11.0473 54.2553 10.848 55.096 10.848C56.058 10.848 56.9117 11.0863 57.657 11.563C58.411 12.031 58.957 12.6983 59.295 13.565H57.514C57.28 13.0883 56.955 12.733 56.539 12.499C56.123 12.265 55.642 12.148 55.096 12.148C54.498 12.148 53.965 12.2823 53.497 12.551C53.029 12.8197 52.6607 13.2053 52.392 13.708C52.132 14.2107 52.002 14.7957 52.002 15.463C52.002 16.1303 52.132 16.7153 52.392 17.218C52.6607 17.7207 53.029 18.1107 53.497 18.388C53.965 18.6567 54.498 18.791 55.096 18.791C55.642 18.791 56.123 18.674 56.539 18.44C56.955 18.206 57.28 17.8507 57.514 17.374H59.295C58.957 18.2407 58.411 18.908 57.657 19.376C56.9117 19.844 56.058 20.078 55.096 20.078C54.2467 20.078 53.471 19.883 52.769 19.493C52.067 19.0943 51.508 18.544 51.092 17.842C50.6847 17.14 50.481 16.347 50.481 15.463ZM64.0067 20.091C63.4 20.091 62.854 19.987 62.3687 19.779C61.8834 19.5623 61.502 19.259 61.2247 18.869C60.9474 18.479 60.8087 18.024 60.8087 17.504H62.3947C62.4294 17.894 62.581 18.2147 62.8497 18.466C63.127 18.7173 63.5127 18.843 64.0067 18.843C64.518 18.843 64.9167 18.7217 65.2027 18.479C65.4887 18.2277 65.6317 17.907 65.6317 17.517C65.6317 17.2137 65.5407 16.9667 65.3587 16.776C65.1854 16.5853 64.9644 16.438 64.6957 16.334C64.4357 16.23 64.0717 16.1173 63.6037 15.996C63.0144 15.84 62.5334 15.684 62.1607 15.528C61.7967 15.3633 61.4847 15.112 61.2247 14.774C60.9647 14.436 60.8347 13.9853 60.8347 13.422C60.8347 12.902 60.9647 12.447 61.2247 12.057C61.4847 11.667 61.8487 11.368 62.3167 11.16C62.7847 10.952 63.3264 10.848 63.9417 10.848C64.817 10.848 65.532 11.069 66.0867 11.511C66.65 11.9443 66.962 12.5423 67.0227 13.305H65.3847C65.3587 12.9757 65.2027 12.694 64.9167 12.46C64.6307 12.226 64.2537 12.109 63.7857 12.109C63.361 12.109 63.0144 12.2173 62.7457 12.434C62.477 12.6507 62.3427 12.9627 62.3427 13.37C62.3427 13.6473 62.425 13.877 62.5897 14.059C62.763 14.2323 62.9797 14.371 63.2397 14.475C63.4997 14.579 63.855 14.6917 64.3057 14.813C64.9037 14.9777 65.389 15.1423 65.7617 15.307C66.143 15.4717 66.4637 15.7273 66.7237 16.074C66.9924 16.412 67.1267 16.867 67.1267 17.439C67.1267 17.8983 67.001 18.3317 66.7497 18.739C66.507 19.1463 66.1474 19.4757 65.6707 19.727C65.2027 19.9697 64.648 20.091 64.0067 20.091ZM71.8524 20.091C71.2457 20.091 70.6997 19.987 70.2144 19.779C69.7291 19.5623 69.3477 19.259 69.0704 18.869C68.7931 18.479 68.6544 18.024 68.6544 17.504H70.2404C70.2751 17.894 70.4267 18.2147 70.6954 18.466C70.9727 18.7173 71.3584 18.843 71.8524 18.843C72.3637 18.843 72.7624 18.7217 73.0484 18.479C73.3344 18.2277 73.4774 17.907 73.4774 17.517C73.4774 17.2137 73.3864 16.9667 73.2044 16.776C73.0311 16.5853 72.8101 16.438 72.5414 16.334C72.2814 16.23 71.9174 16.1173 71.4494 15.996C70.8601 15.84 70.3791 15.684 70.0064 15.528C69.6424 15.3633 69.3304 15.112 69.0704 14.774C68.8104 14.436 68.6804 13.9853 68.6804 13.422C68.6804 12.902 68.8104 12.447 69.0704 12.057C69.3304 11.667 69.6944 11.368 70.1624 11.16C70.6304 10.952 71.1721 10.848 71.7874 10.848C72.6627 10.848 73.3777 11.069 73.9324 11.511C74.4957 11.9443 74.8077 12.5423 74.8684 13.305H73.2304C73.2044 12.9757 73.0484 12.694 72.7624 12.46C72.4764 12.226 72.0994 12.109 71.6314 12.109C71.2067 12.109 70.8601 12.2173 70.5914 12.434C70.3227 12.6507 70.1884 12.9627 70.1884 13.37C70.1884 13.6473 70.2707 13.877 70.4354 14.059C70.6087 14.2323 70.8254 14.371 71.0854 14.475C71.3454 14.579 71.7007 14.6917 72.1514 14.813C72.7494 14.9777 73.2347 15.1423 73.6074 15.307C73.9887 15.4717 74.3094 15.7273 74.5694 16.074C74.8381 16.412 74.9724 16.867 74.9724 17.439C74.9724 17.8983 74.8467 18.3317 74.5954 18.739C74.3527 19.1463 73.9931 19.4757 73.5164 19.727C73.0484 19.9697 72.4937 20.091 71.8524 20.091ZM76.5001 12.863C76.5521 12.057 76.8598 11.4287 77.4231 10.978C77.9951 10.5273 78.7231 10.302 79.6071 10.302C80.2138 10.302 80.7381 10.4103 81.1801 10.627C81.6221 10.8437 81.9558 11.1383 82.1811 11.511C82.4064 11.8837 82.5191 12.304 82.5191 12.772C82.5191 13.3093 82.3761 13.7687 82.0901 14.15C81.8041 14.5313 81.4618 14.787 81.0631 14.917V14.969C81.5744 15.125 81.9731 15.411 82.2591 15.827C82.5451 16.2343 82.6881 16.7587 82.6881 17.4C82.6881 17.9113 82.5711 18.3663 82.3371 18.765C82.1031 19.1637 81.7564 19.48 81.2971 19.714C80.8378 19.9393 80.2874 20.052 79.6461 20.052C78.7101 20.052 77.9388 19.8137 77.3321 19.337C76.7341 18.8517 76.4134 18.1583 76.3701 17.257H77.8001C77.8348 17.7163 78.0124 18.0933 78.3331 18.388C78.6538 18.674 79.0871 18.817 79.6331 18.817C80.1618 18.817 80.5691 18.674 80.8551 18.388C81.1411 18.0933 81.2841 17.7163 81.2841 17.257C81.2841 16.6503 81.0891 16.2213 80.6991 15.97C80.3178 15.71 79.7284 15.58 78.9311 15.58H78.5931V14.358H78.9441C79.6461 14.3493 80.1791 14.2323 80.5431 14.007C80.9158 13.7817 81.1021 13.4263 81.1021 12.941C81.1021 12.525 80.9678 12.1957 80.6991 11.953C80.4304 11.7017 80.0491 11.576 79.5551 11.576C79.0698 11.576 78.6928 11.7017 78.4241 11.953C78.1554 12.1957 77.9951 12.499 77.9431 12.863H76.5001Z" fill="white"/>
<circle cx="33" cy="15" r="10" fill="white"/>
<path d="M39.25 9.58398L37.5833 19.1673L31.7682 21.2507L26.75 19.1673L27.2604 16.6986H29.3958L29.1875 17.7559L32.2187 18.9121L35.7109 17.7559L36.2005 15.2272H27.5182L27.9349 13.0918H36.625L36.8984 11.7194H28.2161L28.6406 9.58398H39.25V9.58398Z" fill="#2965F1"/>
</svg>
