<svg width="120" height="30" viewBox="0 0 120 30" fill="none" xmlns="http://www.w3.org/2000/svg">
<rect width="120" height="30" rx="2" fill="#3B5998"/>
<circle cx="116" cy="26" r="3" stroke="black" stroke-opacity="0.3" stroke-width="0.2"/>
<path d="M118.178 27.694C118.046 27.832 117.911 27.931 117.773 27.991C117.635 28.051 117.482 28.081 117.314 28.081C117.08 28.081 116.9 28.024 116.774 27.91C116.648 27.79 116.528 27.58 116.414 27.28L116.072 26.398C116 26.236 115.931 26.119 115.865 26.047C115.799 25.969 115.691 25.93 115.541 25.93V26.902C115.541 27.178 115.562 27.376 115.604 27.496C115.652 27.61 115.76 27.742 115.928 27.892L115.865 28H114.245L114.182 27.838C114.332 27.796 114.44 27.757 114.506 27.721C114.572 27.679 114.617 27.625 114.641 27.559C114.665 27.493 114.677 27.391 114.677 27.253V24.913C114.677 24.625 114.653 24.424 114.605 24.31C114.563 24.19 114.458 24.058 114.29 23.914L114.362 23.797H115.928L115.991 23.941C115.799 24.043 115.676 24.139 115.622 24.229C115.568 24.319 115.541 24.472 115.541 24.688V25.804H115.568L116.639 24.589C116.693 24.523 116.729 24.466 116.747 24.418C116.771 24.364 116.786 24.304 116.792 24.238C116.792 24.196 116.768 24.115 116.72 23.995L116.666 23.896L116.783 23.797H117.845L117.899 23.959L117.692 24.022C117.524 24.094 117.365 24.214 117.215 24.382L115.955 25.822C116.267 25.846 116.513 25.912 116.693 26.02C116.873 26.122 117.005 26.275 117.089 26.479L117.503 27.523C117.533 27.601 117.569 27.658 117.611 27.694C117.653 27.724 117.707 27.739 117.773 27.739C117.869 27.739 117.98 27.691 118.106 27.595L118.178 27.694Z" fill="black" fill-opacity="0.3"/>
<path d="M42.292 10.965V12.174H38.457V14.839H41.447V16.048H38.457V20H36.975V10.965H42.292ZM49.1124 18.154H45.3294L44.6794 20H43.1324L46.3694 10.952H48.0854L51.3224 20H49.7624L49.1124 18.154ZM48.6964 16.945L47.2274 12.746L45.7454 16.945H48.6964ZM52.2359 15.463C52.2359 14.579 52.4395 13.786 52.8469 13.084C53.2629 12.382 53.8219 11.836 54.5239 11.446C55.2345 11.0473 56.0102 10.848 56.8509 10.848C57.8129 10.848 58.6665 11.0863 59.4119 11.563C60.1659 12.031 60.7119 12.6983 61.0499 13.565H59.2689C59.0349 13.0883 58.7099 12.733 58.2939 12.499C57.8779 12.265 57.3969 12.148 56.8509 12.148C56.2529 12.148 55.7199 12.2823 55.2519 12.551C54.7839 12.8197 54.4155 13.2053 54.1469 13.708C53.8869 14.2107 53.7569 14.7957 53.7569 15.463C53.7569 16.1303 53.8869 16.7153 54.1469 17.218C54.4155 17.7207 54.7839 18.1107 55.2519 18.388C55.7199 18.6567 56.2529 18.791 56.8509 18.791C57.3969 18.791 57.8779 18.674 58.2939 18.44C58.7099 18.206 59.0349 17.8507 59.2689 17.374H61.0499C60.7119 18.2407 60.1659 18.908 59.4119 19.376C58.6665 19.844 57.8129 20.078 56.8509 20.078C56.0015 20.078 55.2259 19.883 54.5239 19.493C53.8219 19.0943 53.2629 18.544 52.8469 17.842C52.4395 17.14 52.2359 16.347 52.2359 15.463ZM64.2666 12.161V14.813H67.3866V16.022H64.2666V18.791H67.7766V20H62.7846V10.952H67.7766V12.161H64.2666ZM74.438 15.359C74.9233 15.4457 75.335 15.7013 75.673 16.126C76.011 16.5507 76.18 17.0317 76.18 17.569C76.18 18.0283 76.0586 18.4443 75.816 18.817C75.582 19.181 75.2396 19.4713 74.789 19.688C74.3383 19.896 73.814 20 73.216 20H69.602V10.965H73.047C73.6623 10.965 74.191 11.069 74.633 11.277C75.075 11.485 75.4086 11.7667 75.634 12.122C75.8593 12.4687 75.972 12.8587 75.972 13.292C75.972 13.812 75.8333 14.2453 75.556 14.592C75.2786 14.9387 74.906 15.1943 74.438 15.359ZM71.084 14.761H72.917C73.4023 14.761 73.7793 14.6527 74.048 14.436C74.3253 14.2107 74.464 13.89 74.464 13.474C74.464 13.0667 74.3253 12.7503 74.048 12.525C73.7793 12.291 73.4023 12.174 72.917 12.174H71.084V14.761ZM73.086 18.791C73.5886 18.791 73.983 18.6697 74.269 18.427C74.555 18.1843 74.698 17.8463 74.698 17.413C74.698 16.971 74.5463 16.62 74.243 16.36C73.9396 16.1 73.5366 15.97 73.034 15.97H71.084V18.791H73.086ZM81.9114 20.091C81.0708 20.091 80.2951 19.896 79.5844 19.506C78.8824 19.1073 78.3234 18.557 77.9074 17.855C77.5001 17.1443 77.2964 16.347 77.2964 15.463C77.2964 14.579 77.5001 13.786 77.9074 13.084C78.3234 12.382 78.8824 11.836 79.5844 11.446C80.2951 11.0473 81.0708 10.848 81.9114 10.848C82.7608 10.848 83.5364 11.0473 84.2384 11.446C84.9491 11.836 85.5081 12.382 85.9154 13.084C86.3228 13.786 86.5264 14.579 86.5264 15.463C86.5264 16.347 86.3228 17.1443 85.9154 17.855C85.5081 18.557 84.9491 19.1073 84.2384 19.506C83.5364 19.896 82.7608 20.091 81.9114 20.091ZM81.9114 18.804C82.5094 18.804 83.0424 18.6697 83.5104 18.401C83.9784 18.1237 84.3424 17.7337 84.6024 17.231C84.8711 16.7197 85.0054 16.1303 85.0054 15.463C85.0054 14.7957 84.8711 14.2107 84.6024 13.708C84.3424 13.2053 83.9784 12.8197 83.5104 12.551C83.0424 12.2823 82.5094 12.148 81.9114 12.148C81.3134 12.148 80.7804 12.2823 80.3124 12.551C79.8444 12.8197 79.4761 13.2053 79.2074 13.708C78.9474 14.2107 78.8174 14.7957 78.8174 15.463C78.8174 16.1303 78.9474 16.7197 79.2074 17.231C79.4761 17.7337 79.8444 18.1237 80.3124 18.401C80.7804 18.6697 81.3134 18.804 81.9114 18.804ZM92.1058 20.091C91.2651 20.091 90.4894 19.896 89.7788 19.506C89.0768 19.1073 88.5178 18.557 88.1018 17.855C87.6944 17.1443 87.4908 16.347 87.4908 15.463C87.4908 14.579 87.6944 13.786 88.1018 13.084C88.5178 12.382 89.0768 11.836 89.7788 11.446C90.4894 11.0473 91.2651 10.848 92.1058 10.848C92.9551 10.848 93.7308 11.0473 94.4328 11.446C95.1434 11.836 95.7024 12.382 96.1098 13.084C96.5171 13.786 96.7208 14.579 96.7208 15.463C96.7208 16.347 96.5171 17.1443 96.1098 17.855C95.7024 18.557 95.1434 19.1073 94.4328 19.506C93.7308 19.896 92.9551 20.091 92.1058 20.091ZM92.1058 18.804C92.7038 18.804 93.2368 18.6697 93.7048 18.401C94.1728 18.1237 94.5368 17.7337 94.7968 17.231C95.0654 16.7197 95.1998 16.1303 95.1998 15.463C95.1998 14.7957 95.0654 14.2107 94.7968 13.708C94.5368 13.2053 94.1728 12.8197 93.7048 12.551C93.2368 12.2823 92.7038 12.148 92.1058 12.148C91.5078 12.148 90.9748 12.2823 90.5068 12.551C90.0388 12.8197 89.6704 13.2053 89.4018 13.708C89.1418 14.2107 89.0118 14.7957 89.0118 15.463C89.0118 16.1303 89.1418 16.7197 89.4018 17.231C89.6704 17.7337 90.0388 18.1237 90.5068 18.401C90.9748 18.6697 91.5078 18.804 92.1058 18.804ZM103.158 20L99.6611 15.957V20H98.1791V10.965H99.6611V15.086L103.171 10.965H105.03L101.104 15.489L105.095 20H103.158Z" fill="white"/>
<circle cx="21" cy="15" r="8" fill="white"/>
<path d="M23.3276 15.667L23.6143 13.7366H21.8218V12.4839C21.8218 11.9557 22.0722 11.441 22.875 11.441H23.6899V9.79741C23.6899 9.79741 22.9504 9.66699 22.2434 9.66699C20.7672 9.66699 19.8022 10.5916 19.8022 12.2653V13.7366H18.1613V15.667H19.8022V20.3337H21.8218V15.667H23.3276Z" fill="#3B5998"/>
</svg>
