<svg width="120" height="30" viewBox="0 0 120 30" fill="none" xmlns="http://www.w3.org/2000/svg">
<rect width="120" height="30" rx="2" fill="#171515"/>
<circle cx="116" cy="26" r="3" stroke="black" stroke-opacity="0.3" stroke-width="0.2"/>
<path d="M118.178 27.694C118.046 27.832 117.911 27.931 117.773 27.991C117.635 28.051 117.482 28.081 117.314 28.081C117.08 28.081 116.9 28.024 116.774 27.91C116.648 27.79 116.528 27.58 116.414 27.28L116.072 26.398C116 26.236 115.931 26.119 115.865 26.047C115.799 25.969 115.691 25.93 115.541 25.93V26.902C115.541 27.178 115.562 27.376 115.604 27.496C115.652 27.61 115.76 27.742 115.928 27.892L115.865 28H114.245L114.182 27.838C114.332 27.796 114.44 27.757 114.506 27.721C114.572 27.679 114.617 27.625 114.641 27.559C114.665 27.493 114.677 27.391 114.677 27.253V24.913C114.677 24.625 114.653 24.424 114.605 24.31C114.563 24.19 114.458 24.058 114.29 23.914L114.362 23.797H115.928L115.991 23.941C115.799 24.043 115.676 24.139 115.622 24.229C115.568 24.319 115.541 24.472 115.541 24.688V25.804H115.568L116.639 24.589C116.693 24.523 116.729 24.466 116.747 24.418C116.771 24.364 116.786 24.304 116.792 24.238C116.792 24.196 116.768 24.115 116.72 23.995L116.666 23.896L116.783 23.797H117.845L117.899 23.959L117.692 24.022C117.524 24.094 117.365 24.214 117.215 24.382L115.955 25.822C116.267 25.846 116.513 25.912 116.693 26.02C116.873 26.122 117.005 26.275 117.089 26.479L117.503 27.523C117.533 27.601 117.569 27.658 117.611 27.694C117.653 27.724 117.707 27.739 117.773 27.739C117.869 27.739 117.98 27.691 118.106 27.595L118.178 27.694Z" fill="black" fill-opacity="0.3"/>
<path d="M51.514 13.565C51.28 13.1143 50.955 12.7763 50.539 12.551C50.123 12.317 49.642 12.2 49.096 12.2C48.498 12.2 47.965 12.3343 47.497 12.603C47.029 12.8717 46.6607 13.253 46.392 13.747C46.132 14.241 46.002 14.813 46.002 15.463C46.002 16.113 46.132 16.6893 46.392 17.192C46.6607 17.686 47.029 18.0673 47.497 18.336C47.965 18.6047 48.498 18.739 49.096 18.739C49.902 18.739 50.5563 18.5137 51.059 18.063C51.5617 17.6123 51.8693 17.0013 51.982 16.23H48.589V15.047H53.568V16.204C53.4727 16.906 53.2213 17.5517 52.814 18.141C52.4153 18.7303 51.891 19.2027 51.241 19.558C50.5997 19.9047 49.8847 20.078 49.096 20.078C48.2467 20.078 47.471 19.883 46.769 19.493C46.067 19.0943 45.508 18.544 45.092 17.842C44.6847 17.14 44.481 16.347 44.481 15.463C44.481 14.579 44.6847 13.786 45.092 13.084C45.508 12.382 46.067 11.836 46.769 11.446C47.4797 11.0473 48.2553 10.848 49.096 10.848C50.058 10.848 50.9117 11.0863 51.657 11.563C52.411 12.031 52.957 12.6983 53.295 13.565H51.514ZM56.5117 10.965V20H55.0297V10.965H56.5117ZM64.2944 10.965V12.174H61.8894V20H60.4074V12.174H57.9894V10.965H64.2944ZM73.0103 10.965V20H71.5283V16.048H67.2773V20H65.7953V10.965H67.2773V14.839H71.5283V10.965H73.0103ZM76.4303 10.965V16.724C76.4303 17.4087 76.608 17.9243 76.9633 18.271C77.3273 18.6177 77.83 18.791 78.4713 18.791C79.1213 18.791 79.624 18.6177 79.9793 18.271C80.3433 17.9243 80.5253 17.4087 80.5253 16.724V10.965H82.0073V16.698C82.0073 17.4347 81.847 18.0587 81.5263 18.57C81.2057 19.0813 80.7767 19.4627 80.2393 19.714C79.702 19.9653 79.1083 20.091 78.4583 20.091C77.8083 20.091 77.2147 19.9653 76.6773 19.714C76.1487 19.4627 75.7283 19.0813 75.4163 18.57C75.1043 18.0587 74.9483 17.4347 74.9483 16.698V10.965H76.4303ZM88.7729 15.359C89.2582 15.4457 89.6699 15.7013 90.0079 16.126C90.3459 16.5507 90.5149 17.0317 90.5149 17.569C90.5149 18.0283 90.3936 18.4443 90.1509 18.817C89.9169 19.181 89.5746 19.4713 89.1239 19.688C88.6732 19.896 88.1489 20 87.5509 20H83.9369V10.965H87.3819C87.9972 10.965 88.5259 11.069 88.9679 11.277C89.4099 11.485 89.7436 11.7667 89.9689 12.122C90.1942 12.4687 90.3069 12.8587 90.3069 13.292C90.3069 13.812 90.1682 14.2453 89.8909 14.592C89.6136 14.9387 89.2409 15.1943 88.7729 15.359ZM85.4189 14.761H87.2519C87.7372 14.761 88.1142 14.6527 88.3829 14.436C88.6602 14.2107 88.7989 13.89 88.7989 13.474C88.7989 13.0667 88.6602 12.7503 88.3829 12.525C88.1142 12.291 87.7372 12.174 87.2519 12.174H85.4189V14.761ZM87.4209 18.791C87.9236 18.791 88.3179 18.6697 88.6039 18.427C88.8899 18.1843 89.0329 17.8463 89.0329 17.413C89.0329 16.971 88.8812 16.62 88.5779 16.36C88.2746 16.1 87.8716 15.97 87.3689 15.97H85.4189V18.791H87.4209Z" fill="white"/>
<circle cx="29" cy="15" r="8" fill="white"/>
<path d="M27.8771 16.5146C27.8771 16.95 27.65 17.6625 27.1125 17.6625C26.575 17.6625 26.3479 16.95 26.3479 16.5146C26.3479 16.0792 26.575 15.3667 27.1125 15.3667C27.65 15.3667 27.8771 16.0792 27.8771 16.5146ZM34 15.4625C34 16.1271 33.9333 16.8313 33.6354 17.4417C32.8458 19.0375 30.675 19 29.1208 19C27.5417 19 25.2417 19.0563 24.4208 17.4417C24.1167 16.8375 24 16.1271 24 15.4625C24 14.5896 24.2896 13.7646 24.8646 13.0958C24.7563 12.7667 24.7042 12.4208 24.7042 12.0792C24.7042 11.6313 24.8063 11.4062 25.0083 11C25.9521 11 26.5563 11.1875 27.275 11.75C27.8792 11.6062 28.5 11.5417 29.1229 11.5417C29.6854 11.5417 30.2521 11.6021 30.7979 11.7333C31.5062 11.1771 32.1104 11 33.0438 11C33.2479 11.4062 33.3479 11.6313 33.3479 12.0792C33.3479 12.4208 33.2937 12.7604 33.1875 13.0833C33.7604 13.7583 34 14.5896 34 15.4625ZM32.6604 16.5146C32.6604 15.6 32.1042 14.7938 31.1292 14.7938C30.7354 14.7938 30.3583 14.8646 29.9625 14.9188C29.6521 14.9667 29.3417 14.9854 29.0229 14.9854C28.7063 14.9854 28.3958 14.9667 28.0833 14.9188C27.6938 14.8646 27.3125 14.7938 26.9167 14.7938C25.9417 14.7938 25.3854 15.6 25.3854 16.5146C25.3854 18.3438 27.0604 18.625 28.5188 18.625H29.5229C30.9875 18.625 32.6604 18.3458 32.6604 16.5146ZM30.9396 15.3667C30.4021 15.3667 30.175 16.0792 30.175 16.5146C30.175 16.95 30.4021 17.6625 30.9396 17.6625C31.4771 17.6625 31.7042 16.95 31.7042 16.5146C31.7042 16.0792 31.4771 15.3667 30.9396 15.3667Z" fill="#171515"/>
</svg>
