<svg width="120" height="30" viewBox="0 0 120 30" fill="none" xmlns="http://www.w3.org/2000/svg">
<rect width="120" height="30" rx="2" fill="#DB4437"/>
<circle cx="116" cy="26" r="3" stroke="black" stroke-opacity="0.3" stroke-width="0.2"/>
<path d="M118.178 27.694C118.046 27.832 117.911 27.931 117.773 27.991C117.635 28.051 117.482 28.081 117.314 28.081C117.08 28.081 116.9 28.024 116.774 27.91C116.648 27.79 116.528 27.58 116.414 27.28L116.072 26.398C116 26.236 115.931 26.119 115.865 26.047C115.799 25.969 115.691 25.93 115.541 25.93V26.902C115.541 27.178 115.562 27.376 115.604 27.496C115.652 27.61 115.76 27.742 115.928 27.892L115.865 28H114.245L114.182 27.838C114.332 27.796 114.44 27.757 114.506 27.721C114.572 27.679 114.617 27.625 114.641 27.559C114.665 27.493 114.677 27.391 114.677 27.253V24.913C114.677 24.625 114.653 24.424 114.605 24.31C114.563 24.19 114.458 24.058 114.29 23.914L114.362 23.797H115.928L115.991 23.941C115.799 24.043 115.676 24.139 115.622 24.229C115.568 24.319 115.541 24.472 115.541 24.688V25.804H115.568L116.639 24.589C116.693 24.523 116.729 24.466 116.747 24.418C116.771 24.364 116.786 24.304 116.792 24.238C116.792 24.196 116.768 24.115 116.72 23.995L116.666 23.896L116.783 23.797H117.845L117.899 23.959L117.692 24.022C117.524 24.094 117.365 24.214 117.215 24.382L115.955 25.822C116.267 25.846 116.513 25.912 116.693 26.02C116.873 26.122 117.005 26.275 117.089 26.479L117.503 27.523C117.533 27.601 117.569 27.658 117.611 27.694C117.653 27.724 117.707 27.739 117.773 27.739C117.869 27.739 117.98 27.691 118.106 27.595L118.178 27.694Z" fill="black" fill-opacity="0.3"/>
<path d="M51.514 13.565C51.28 13.1143 50.955 12.7763 50.539 12.551C50.123 12.317 49.642 12.2 49.096 12.2C48.498 12.2 47.965 12.3343 47.497 12.603C47.029 12.8717 46.6607 13.253 46.392 13.747C46.132 14.241 46.002 14.813 46.002 15.463C46.002 16.113 46.132 16.6893 46.392 17.192C46.6607 17.686 47.029 18.0673 47.497 18.336C47.965 18.6047 48.498 18.739 49.096 18.739C49.902 18.739 50.5563 18.5137 51.059 18.063C51.5617 17.6123 51.8693 17.0013 51.982 16.23H48.589V15.047H53.568V16.204C53.4727 16.906 53.2213 17.5517 52.814 18.141C52.4153 18.7303 51.891 19.2027 51.241 19.558C50.5997 19.9047 49.8847 20.078 49.096 20.078C48.2467 20.078 47.471 19.883 46.769 19.493C46.067 19.0943 45.508 18.544 45.092 17.842C44.6847 17.14 44.481 16.347 44.481 15.463C44.481 14.579 44.6847 13.786 45.092 13.084C45.508 12.382 46.067 11.836 46.769 11.446C47.4797 11.0473 48.2553 10.848 49.096 10.848C50.058 10.848 50.9117 11.0863 51.657 11.563C52.411 12.031 52.957 12.6983 53.295 13.565H51.514ZM61.8287 14.67V15.918H56.4857V14.67H61.8287ZM74.7502 10.965V20H73.2682V13.812L70.5122 20H69.4852L66.7162 13.812V20H65.2342V10.965H66.8332L70.0052 18.05L73.1642 10.965H74.7502ZM83.445 18.154H79.662L79.012 20H77.465L80.702 10.952H82.418L85.655 20H84.095L83.445 18.154ZM83.029 16.945L81.56 12.746L80.078 16.945H83.029ZM89.8445 10.965V20H88.3625V10.965H89.8445ZM94.5722 18.804H97.6272V20H93.0902V10.965H94.5722V18.804Z" fill="white"/>
<circle cx="29" cy="15" r="8" fill="white"/>
<path d="M31.3614 16.4755H31.0644V17.2562C30.5132 17.776 29.7977 18.0617 29.0417 18.0617C27.3947 18.0617 26.0627 16.7072 26.0627 15.0377C26.0627 13.3705 27.3947 12.0137 29.0417 12.0137C29.8359 12.0137 30.5852 12.3287 31.1477 12.9002L32.5494 11.476C31.6089 10.5242 30.3647 10 29.0372 10C26.2764 10 24.0714 12.2635 24.0714 15.04C24.0714 17.7962 26.2539 20.08 29.0372 20.08C30.4592 20.08 31.8384 19.4905 32.8847 18.2238C32.8397 17.6027 32.5832 16.4755 31.3614 16.4755ZM31.0892 13.9442H28.6974V15.9467H31.3614C32.1152 15.9467 32.7227 16.2865 33.0714 16.8872V16.1987C33.0714 14.7318 32.1624 13.9442 31.0892 13.9442Z" fill="#DB4437"/>
</svg>
