<svg width="120" height="30" viewBox="0 0 120 30" fill="none" xmlns="http://www.w3.org/2000/svg">
<rect width="120" height="30" rx="2" fill="#E34C26"/>
<ellipse cx="115.5" cy="26" rx="3.5" ry="3" stroke="black" stroke-opacity="0.3" stroke-width="0.2"/>
<path d="M117.678 27.694C117.546 27.832 117.411 27.931 117.273 27.991C117.135 28.051 116.982 28.081 116.814 28.081C116.58 28.081 116.4 28.024 116.274 27.91C116.148 27.79 116.028 27.58 115.914 27.28L115.572 26.398C115.5 26.236 115.431 26.119 115.365 26.047C115.299 25.969 115.191 25.93 115.041 25.93V26.902C115.041 27.178 115.062 27.376 115.104 27.496C115.152 27.61 115.26 27.742 115.428 27.892L115.365 28H113.745L113.682 27.838C113.832 27.796 113.94 27.757 114.006 27.721C114.072 27.679 114.117 27.625 114.141 27.559C114.165 27.493 114.177 27.391 114.177 27.253V24.913C114.177 24.625 114.153 24.424 114.105 24.31C114.063 24.19 113.958 24.058 113.79 23.914L113.862 23.797H115.428L115.491 23.941C115.299 24.043 115.176 24.139 115.122 24.229C115.068 24.319 115.041 24.472 115.041 24.688V25.804H115.068L116.139 24.589C116.193 24.523 116.229 24.466 116.247 24.418C116.271 24.364 116.286 24.304 116.292 24.238C116.292 24.196 116.268 24.115 116.22 23.995L116.166 23.896L116.283 23.797H117.345L117.399 23.959L117.192 24.022C117.024 24.094 116.865 24.214 116.715 24.382L115.455 25.822C115.767 25.846 116.013 25.912 116.193 26.02C116.373 26.122 116.505 26.275 116.589 26.479L117.003 27.523C117.033 27.601 117.069 27.658 117.111 27.694C117.153 27.724 117.207 27.739 117.273 27.739C117.369 27.739 117.48 27.691 117.606 27.595L117.678 27.694Z" fill="black" fill-opacity="0.3"/>
<path d="M58.19 10.965V20H56.708V16.048H52.457V20H50.975V10.965H52.457V14.839H56.708V10.965H58.19ZM65.978 10.965V12.174H63.573V20H62.091V12.174H59.673V10.965H65.978ZM76.9949 10.965V20H75.5129V13.812L72.7569 20H71.7299L68.9609 13.812V20H67.4789V10.965H69.0779L72.2499 18.05L75.4089 10.965H76.9949ZM80.4248 18.804H83.4798V20H78.9428V10.965H80.4248V18.804ZM90.6341 11.797H86.2791V14.384C86.4611 14.1413 86.7298 13.9377 87.0851 13.773C87.4491 13.6083 87.8348 13.526 88.2421 13.526C88.9701 13.526 89.5595 13.682 90.0101 13.994C90.4695 14.306 90.7945 14.7003 90.9851 15.177C91.1845 15.6537 91.2841 16.1563 91.2841 16.685C91.2841 17.3263 91.1585 17.8983 90.9071 18.401C90.6645 18.895 90.2961 19.285 89.8021 19.571C89.3168 19.857 88.7188 20 88.0081 20C87.0635 20 86.3051 19.766 85.7331 19.298C85.1611 18.83 84.8188 18.2103 84.7061 17.439H86.1491C86.2445 17.8463 86.4568 18.1713 86.7861 18.414C87.1155 18.648 87.5271 18.765 88.0211 18.765C88.6365 18.765 89.0958 18.5787 89.3991 18.206C89.7111 17.8333 89.8671 17.3393 89.8671 16.724C89.8671 16.1 89.7111 15.6233 89.3991 15.294C89.0871 14.956 88.6278 14.787 88.0211 14.787C87.5965 14.787 87.2368 14.8953 86.9421 15.112C86.6561 15.32 86.4481 15.606 86.3181 15.97H84.9141V10.497H90.6341V11.797Z" fill="white"/>
<circle cx="33" cy="15" r="10" fill="white"/>
<path d="M27.2858 8.75L28.3082 20.3457L32.8961 21.875L37.5133 20.3457L38.5358 8.75H27.2858ZM36.3151 12.4971H30.9303L31.0504 13.9443H36.1949L35.7965 18.292L32.9283 19.083V19.0918H32.8961L30.0045 18.292L29.8287 16.0713H31.2262L31.3287 17.1875L32.8961 17.6123L34.4694 17.1875L34.6451 15.3652H29.7555L29.3805 11.0996H36.444L36.3151 12.4971V12.4971Z" fill="black"/>
</svg>
