<svg width="120" height="30" viewBox="0 0 120 30" fill="none" xmlns="http://www.w3.org/2000/svg">
<rect width="120" height="30" rx="2" fill="#BC2A8D"/>
<circle cx="116" cy="26" r="3" stroke="black" stroke-opacity="0.3" stroke-width="0.2"/>
<path d="M118.178 27.694C118.046 27.832 117.911 27.931 117.773 27.991C117.635 28.051 117.482 28.081 117.314 28.081C117.08 28.081 116.9 28.024 116.774 27.91C116.648 27.79 116.528 27.58 116.414 27.28L116.072 26.398C116 26.236 115.931 26.119 115.865 26.047C115.799 25.969 115.691 25.93 115.541 25.93V26.902C115.541 27.178 115.562 27.376 115.604 27.496C115.652 27.61 115.76 27.742 115.928 27.892L115.865 28H114.245L114.182 27.838C114.332 27.796 114.44 27.757 114.506 27.721C114.572 27.679 114.617 27.625 114.641 27.559C114.665 27.493 114.677 27.391 114.677 27.253V24.913C114.677 24.625 114.653 24.424 114.605 24.31C114.563 24.19 114.458 24.058 114.29 23.914L114.362 23.797H115.928L115.991 23.941C115.799 24.043 115.676 24.139 115.622 24.229C115.568 24.319 115.541 24.472 115.541 24.688V25.804H115.568L116.639 24.589C116.693 24.523 116.729 24.466 116.747 24.418C116.771 24.364 116.786 24.304 116.792 24.238C116.792 24.196 116.768 24.115 116.72 23.995L116.666 23.896L116.783 23.797H117.845L117.899 23.959L117.692 24.022C117.524 24.094 117.365 24.214 117.215 24.382L115.955 25.822C116.267 25.846 116.513 25.912 116.693 26.02C116.873 26.122 117.005 26.275 117.089 26.479L117.503 27.523C117.533 27.601 117.569 27.658 117.611 27.694C117.653 27.724 117.707 27.739 117.773 27.739C117.869 27.739 117.98 27.691 118.106 27.595L118.178 27.694Z" fill="black" fill-opacity="0.3"/>
<path d="M38.457 10.965V20H36.975V10.965H38.457ZM47.8257 20H46.3437L41.8847 13.253V20H40.4027V10.952H41.8847L46.3437 17.686V10.952H47.8257V20ZM52.7489 20.091C52.1422 20.091 51.5962 19.987 51.1109 19.779C50.6255 19.5623 50.2442 19.259 49.9669 18.869C49.6895 18.479 49.5509 18.024 49.5509 17.504H51.1369C51.1715 17.894 51.3232 18.2147 51.5919 18.466C51.8692 18.7173 52.2549 18.843 52.7489 18.843C53.2602 18.843 53.6589 18.7217 53.9449 18.479C54.2309 18.2277 54.3739 17.907 54.3739 17.517C54.3739 17.2137 54.2829 16.9667 54.1009 16.776C53.9275 16.5853 53.7065 16.438 53.4379 16.334C53.1779 16.23 52.8139 16.1173 52.3459 15.996C51.7565 15.84 51.2755 15.684 50.9029 15.528C50.5389 15.3633 50.2269 15.112 49.9669 14.774C49.7069 14.436 49.5769 13.9853 49.5769 13.422C49.5769 12.902 49.7069 12.447 49.9669 12.057C50.2269 11.667 50.5909 11.368 51.0589 11.16C51.5269 10.952 52.0685 10.848 52.6839 10.848C53.5592 10.848 54.2742 11.069 54.8289 11.511C55.3922 11.9443 55.7042 12.5423 55.7649 13.305H54.1269C54.1009 12.9757 53.9449 12.694 53.6589 12.46C53.3729 12.226 52.9959 12.109 52.5279 12.109C52.1032 12.109 51.7565 12.2173 51.4879 12.434C51.2192 12.6507 51.0849 12.9627 51.0849 13.37C51.0849 13.6473 51.1672 13.877 51.3319 14.059C51.5052 14.2323 51.7219 14.371 51.9819 14.475C52.2419 14.579 52.5972 14.6917 53.0479 14.813C53.6459 14.9777 54.1312 15.1423 54.5039 15.307C54.8852 15.4717 55.2059 15.7273 55.4659 16.074C55.7345 16.412 55.8689 16.867 55.8689 17.439C55.8689 17.8983 55.7432 18.3317 55.4919 18.739C55.2492 19.1463 54.8895 19.4757 54.4129 19.727C53.9449 19.9697 53.3902 20.091 52.7489 20.091ZM63.4546 10.965V12.174H61.0496V20H59.5676V12.174H57.1496V10.965H63.4546ZM70.4025 18.154H66.6195L65.9695 20H64.4225L67.6595 10.952H69.3755L72.6125 20H71.0525L70.4025 18.154ZM69.9865 16.945L68.5175 12.746L67.0355 16.945H69.9865ZM80.5589 13.565C80.3249 13.1143 79.9999 12.7763 79.5839 12.551C79.1679 12.317 78.6869 12.2 78.1409 12.2C77.5429 12.2 77.0099 12.3343 76.5419 12.603C76.0739 12.8717 75.7056 13.253 75.4369 13.747C75.1769 14.241 75.0469 14.813 75.0469 15.463C75.0469 16.113 75.1769 16.6893 75.4369 17.192C75.7056 17.686 76.0739 18.0673 76.5419 18.336C77.0099 18.6047 77.5429 18.739 78.1409 18.739C78.9469 18.739 79.6013 18.5137 80.1039 18.063C80.6066 17.6123 80.9143 17.0013 81.0269 16.23H77.6339V15.047H82.6129V16.204C82.5176 16.906 82.2663 17.5517 81.8589 18.141C81.4603 18.7303 80.9359 19.2027 80.2859 19.558C79.6446 19.9047 78.9296 20.078 78.1409 20.078C77.2916 20.078 76.5159 19.883 75.8139 19.493C75.1119 19.0943 74.5529 18.544 74.1369 17.842C73.7296 17.14 73.5259 16.347 73.5259 15.463C73.5259 14.579 73.7296 13.786 74.1369 13.084C74.5529 12.382 75.1119 11.836 75.8139 11.446C76.5246 11.0473 77.3003 10.848 78.1409 10.848C79.1029 10.848 79.9566 11.0863 80.7019 11.563C81.4559 12.031 82.0019 12.6983 82.3399 13.565H80.5589ZM88.7676 20L86.6876 16.386H85.5566V20H84.0746V10.965H87.1946C87.8879 10.965 88.4729 11.0863 88.9496 11.329C89.4349 11.5717 89.7946 11.8967 90.0286 12.304C90.2713 12.7113 90.3926 13.1663 90.3926 13.669C90.3926 14.2583 90.2193 14.7957 89.8726 15.281C89.5346 15.7577 89.0103 16.0827 88.2996 16.256L90.5356 20H88.7676ZM85.5566 15.203H87.1946C87.7493 15.203 88.1653 15.0643 88.4426 14.787C88.7286 14.5097 88.8716 14.137 88.8716 13.669C88.8716 13.201 88.7329 12.837 88.4556 12.577C88.1783 12.3083 87.7579 12.174 87.1946 12.174H85.5566V15.203ZM97.7355 18.154H93.9525L93.3025 20H91.7555L94.9925 10.952H96.7085L99.9455 20H98.3855L97.7355 18.154ZM97.3195 16.945L95.8505 12.746L94.3685 16.945H97.3195ZM110.869 10.965V20H109.387V13.812L106.631 20H105.604L102.835 13.812V20H101.353V10.965H102.952L106.124 18.05L109.283 10.965H110.869Z" fill="white"/>
<circle cx="21" cy="15" r="8" fill="white"/>
<path d="M21.0011 12.4356C19.5823 12.4356 18.4378 13.58 18.4378 14.9989C18.4378 16.4177 19.5823 17.5622 21.0011 17.5622C22.42 17.5622 23.5644 16.4177 23.5644 14.9989C23.5644 13.58 22.42 12.4356 21.0011 12.4356ZM21.0011 16.6654C20.0842 16.6654 19.3346 15.918 19.3346 14.9989C19.3346 14.0798 20.082 13.3324 21.0011 13.3324C21.9202 13.3324 22.6676 14.0798 22.6676 14.9989C22.6676 15.918 21.918 16.6654 21.0011 16.6654ZM24.2671 12.3307C24.2671 12.6631 23.9994 12.9286 23.6693 12.9286C23.3369 12.9286 23.0714 12.6609 23.0714 12.3307C23.0714 12.0006 23.3391 11.7328 23.6693 11.7328C23.9994 11.7328 24.2671 12.0006 24.2671 12.3307ZM25.9649 12.9375C25.9269 12.1366 25.744 11.4272 25.1573 10.8427C24.5728 10.2582 23.8634 10.0753 23.0625 10.0351C22.237 9.98829 19.763 9.98829 18.9375 10.0351C18.1389 10.0731 17.4294 10.256 16.8427 10.8405C16.256 11.425 16.0753 12.1344 16.0351 12.9353C15.9883 13.7607 15.9883 16.2348 16.0351 17.0602C16.0731 17.8611 16.256 18.5706 16.8427 19.155C17.4294 19.7395 18.1366 19.9225 18.9375 19.9626C19.763 20.0095 22.237 20.0095 23.0625 19.9626C23.8634 19.9247 24.5728 19.7418 25.1573 19.155C25.7418 18.5706 25.9247 17.8611 25.9649 17.0602C26.0117 16.2348 26.0117 13.763 25.9649 12.9375ZM24.8985 17.9459C24.7245 18.3832 24.3876 18.72 23.9481 18.8963C23.29 19.1573 21.7284 19.097 21.0011 19.097C20.2738 19.097 18.71 19.155 18.0541 18.8963C17.6168 18.7223 17.28 18.3854 17.1037 17.9459C16.8427 17.2878 16.903 15.7262 16.903 14.9989C16.903 14.2716 16.845 12.7078 17.1037 12.0519C17.2777 11.6146 17.6146 11.2777 18.0541 11.1015C18.7122 10.8405 20.2738 10.9007 21.0011 10.9007C21.7284 10.9007 23.2922 10.8427 23.9481 11.1015C24.3854 11.2755 24.7223 11.6124 24.8985 12.0519C25.1595 12.71 25.0993 14.2716 25.0993 14.9989C25.0993 15.7262 25.1595 17.29 24.8985 17.9459Z" fill="#CD486B"/>
</svg>
