<svg width="120" height="30" viewBox="0 0 120 30" fill="none" xmlns="http://www.w3.org/2000/svg">
<rect width="120" height="30" rx="2" fill="#323330"/>
<circle cx="116" cy="26" r="3" stroke="black" stroke-opacity="0.3" stroke-width="0.2"/>
<path d="M118.178 27.694C118.046 27.832 117.911 27.931 117.773 27.991C117.635 28.051 117.482 28.081 117.314 28.081C117.08 28.081 116.9 28.024 116.774 27.91C116.648 27.79 116.528 27.58 116.414 27.28L116.072 26.398C116 26.236 115.931 26.119 115.865 26.047C115.799 25.969 115.691 25.93 115.541 25.93V26.902C115.541 27.178 115.562 27.376 115.604 27.496C115.652 27.61 115.76 27.742 115.928 27.892L115.865 28H114.245L114.182 27.838C114.332 27.796 114.44 27.757 114.506 27.721C114.572 27.679 114.617 27.625 114.641 27.559C114.665 27.493 114.677 27.391 114.677 27.253V24.913C114.677 24.625 114.653 24.424 114.605 24.31C114.563 24.19 114.458 24.058 114.29 23.914L114.362 23.797H115.928L115.991 23.941C115.799 24.043 115.676 24.139 115.622 24.229C115.568 24.319 115.541 24.472 115.541 24.688V25.804H115.568L116.639 24.589C116.693 24.523 116.729 24.466 116.747 24.418C116.771 24.364 116.786 24.304 116.792 24.238C116.792 24.196 116.768 24.115 116.72 23.995L116.666 23.896L116.783 23.797H117.845L117.899 23.959L117.692 24.022C117.524 24.094 117.365 24.214 117.215 24.382L115.955 25.822C116.267 25.846 116.513 25.912 116.693 26.02C116.873 26.122 117.005 26.275 117.089 26.479L117.503 27.523C117.533 27.601 117.569 27.658 117.611 27.694C117.653 27.724 117.707 27.739 117.773 27.739C117.869 27.739 117.98 27.691 118.106 27.595L118.178 27.694Z" fill="black" fill-opacity="0.3"/>
<path d="M36.902 10.965V17.478C36.902 18.284 36.655 18.921 36.161 19.389C35.6757 19.857 35.0343 20.091 34.237 20.091C33.4397 20.091 32.794 19.857 32.3 19.389C31.8147 18.921 31.572 18.284 31.572 17.478H33.067C33.0757 17.8767 33.1753 18.193 33.366 18.427C33.5653 18.661 33.8557 18.778 34.237 18.778C34.6183 18.778 34.9087 18.661 35.108 18.427C35.3073 18.1843 35.407 17.868 35.407 17.478V10.965H36.902ZM38.8189 16.386C38.8189 15.6667 38.9662 15.0297 39.2609 14.475C39.5642 13.9203 39.9716 13.4913 40.4829 13.188C41.0029 12.876 41.5749 12.72 42.1989 12.72C42.7622 12.72 43.2519 12.8327 43.6679 13.058C44.0926 13.2747 44.4306 13.5477 44.6819 13.877V12.837H46.1769V20H44.6819V18.934C44.4306 19.272 44.0882 19.5537 43.6549 19.779C43.2216 20.0043 42.7276 20.117 42.1729 20.117C41.5576 20.117 40.9942 19.961 40.4829 19.649C39.9716 19.3283 39.5642 18.8863 39.2609 18.323C38.9662 17.751 38.8189 17.1053 38.8189 16.386ZM44.6819 16.412C44.6819 15.918 44.5779 15.489 44.3699 15.125C44.1706 14.761 43.9062 14.4837 43.5769 14.293C43.2476 14.1023 42.8922 14.007 42.5109 14.007C42.1296 14.007 41.7742 14.1023 41.4449 14.293C41.1156 14.475 40.8469 14.748 40.6389 15.112C40.4396 15.4673 40.3399 15.892 40.3399 16.386C40.3399 16.88 40.4396 17.3133 40.6389 17.686C40.8469 18.0587 41.1156 18.3447 41.4449 18.544C41.7829 18.7347 42.1382 18.83 42.5109 18.83C42.8922 18.83 43.2476 18.7347 43.5769 18.544C43.9062 18.3533 44.1706 18.076 44.3699 17.712C44.5779 17.3393 44.6819 16.906 44.6819 16.412ZM50.8924 18.674L52.9204 12.837H54.4934L51.7634 20H49.9954L47.2784 12.837H48.8644L50.8924 18.674ZM55.1197 16.386C55.1197 15.6667 55.267 15.0297 55.5617 14.475C55.865 13.9203 56.2723 13.4913 56.7837 13.188C57.3037 12.876 57.8757 12.72 58.4997 12.72C59.063 12.72 59.5527 12.8327 59.9687 13.058C60.3933 13.2747 60.7313 13.5477 60.9827 13.877V12.837H62.4777V20H60.9827V18.934C60.7313 19.272 60.389 19.5537 59.9557 19.779C59.5223 20.0043 59.0283 20.117 58.4737 20.117C57.8583 20.117 57.295 19.961 56.7837 19.649C56.2723 19.3283 55.865 18.8863 55.5617 18.323C55.267 17.751 55.1197 17.1053 55.1197 16.386ZM60.9827 16.412C60.9827 15.918 60.8787 15.489 60.6707 15.125C60.4713 14.761 60.207 14.4837 59.8777 14.293C59.5483 14.1023 59.193 14.007 58.8117 14.007C58.4303 14.007 58.075 14.1023 57.7457 14.293C57.4163 14.475 57.1477 14.748 56.9397 15.112C56.7403 15.4673 56.6407 15.892 56.6407 16.386C56.6407 16.88 56.7403 17.3133 56.9397 17.686C57.1477 18.0587 57.4163 18.3447 57.7457 18.544C58.0837 18.7347 58.439 18.83 58.8117 18.83C59.193 18.83 59.5483 18.7347 59.8777 18.544C60.207 18.3533 60.4713 18.076 60.6707 17.712C60.8787 17.3393 60.9827 16.906 60.9827 16.412ZM67.4012 20.091C66.7946 20.091 66.2486 19.987 65.7632 19.779C65.2779 19.5623 64.8966 19.259 64.6192 18.869C64.3419 18.479 64.2032 18.024 64.2032 17.504H65.7892C65.8239 17.894 65.9756 18.2147 66.2442 18.466C66.5216 18.7173 66.9072 18.843 67.4012 18.843C67.9126 18.843 68.3112 18.7217 68.5972 18.479C68.8832 18.2277 69.0262 17.907 69.0262 17.517C69.0262 17.2137 68.9352 16.9667 68.7532 16.776C68.5799 16.5853 68.3589 16.438 68.0902 16.334C67.8302 16.23 67.4662 16.1173 66.9982 15.996C66.4089 15.84 65.9279 15.684 65.5552 15.528C65.1912 15.3633 64.8792 15.112 64.6192 14.774C64.3592 14.436 64.2292 13.9853 64.2292 13.422C64.2292 12.902 64.3592 12.447 64.6192 12.057C64.8792 11.667 65.2432 11.368 65.7112 11.16C66.1792 10.952 66.7209 10.848 67.3362 10.848C68.2116 10.848 68.9266 11.069 69.4812 11.511C70.0446 11.9443 70.3566 12.5423 70.4172 13.305H68.7792C68.7532 12.9757 68.5972 12.694 68.3112 12.46C68.0252 12.226 67.6482 12.109 67.1802 12.109C66.7556 12.109 66.4089 12.2173 66.1402 12.434C65.8716 12.6507 65.7372 12.9627 65.7372 13.37C65.7372 13.6473 65.8196 13.877 65.9842 14.059C66.1576 14.2323 66.3742 14.371 66.6342 14.475C66.8942 14.579 67.2496 14.6917 67.7002 14.813C68.2982 14.9777 68.7836 15.1423 69.1562 15.307C69.5376 15.4717 69.8582 15.7273 70.1182 16.074C70.3869 16.412 70.5212 16.867 70.5212 17.439C70.5212 17.8983 70.3956 18.3317 70.1442 18.739C69.9016 19.1463 69.5419 19.4757 69.0652 19.727C68.5972 19.9697 68.0426 20.091 67.4012 20.091ZM71.7759 16.412C71.7759 15.6753 71.9233 15.0297 72.2179 14.475C72.5213 13.9117 72.9373 13.4783 73.4659 13.175C73.9946 12.8717 74.6013 12.72 75.2859 12.72C76.1526 12.72 76.8676 12.928 77.4309 13.344C78.0029 13.7513 78.3886 14.3363 78.5879 15.099H76.9889C76.8589 14.7437 76.6509 14.4663 76.3649 14.267C76.0789 14.0677 75.7193 13.968 75.2859 13.968C74.6793 13.968 74.1939 14.1847 73.8299 14.618C73.4746 15.0427 73.2969 15.6407 73.2969 16.412C73.2969 17.1833 73.4746 17.7857 73.8299 18.219C74.1939 18.6523 74.6793 18.869 75.2859 18.869C76.1439 18.869 76.7116 18.492 76.9889 17.738H78.5879C78.3799 18.466 77.9899 19.0467 77.4179 19.48C76.8459 19.9047 76.1353 20.117 75.2859 20.117C74.6013 20.117 73.9946 19.9653 73.4659 19.662C72.9373 19.35 72.5213 18.9167 72.2179 18.362C71.9233 17.7987 71.7759 17.1487 71.7759 16.412ZM81.5468 13.877C81.7635 13.513 82.0495 13.2313 82.4048 13.032C82.7688 12.824 83.1978 12.72 83.6918 12.72V14.254H83.3148C82.7342 14.254 82.2922 14.4013 81.9888 14.696C81.6942 14.9907 81.5468 15.502 81.5468 16.23V20H80.0648V12.837H81.5468V13.877ZM85.8081 11.888C85.5394 11.888 85.3141 11.797 85.1321 11.615C84.9501 11.433 84.8591 11.2077 84.8591 10.939C84.8591 10.6703 84.9501 10.445 85.1321 10.263C85.3141 10.081 85.5394 9.99 85.8081 9.99C86.0681 9.99 86.2891 10.081 86.4711 10.263C86.6531 10.445 86.7441 10.6703 86.7441 10.939C86.7441 11.2077 86.6531 11.433 86.4711 11.615C86.2891 11.797 86.0681 11.888 85.8081 11.888ZM86.5361 12.837V20H85.0541V12.837H86.5361ZM89.9638 13.89C90.2152 13.5607 90.5575 13.2833 90.9908 13.058C91.4242 12.8327 91.9138 12.72 92.4598 12.72C93.0838 12.72 93.6515 12.876 94.1628 13.188C94.6828 13.4913 95.0902 13.9203 95.3848 14.475C95.6795 15.0297 95.8268 15.6667 95.8268 16.386C95.8268 17.1053 95.6795 17.751 95.3848 18.323C95.0902 18.8863 94.6828 19.3283 94.1628 19.649C93.6515 19.961 93.0838 20.117 92.4598 20.117C91.9138 20.117 91.4285 20.0087 91.0038 19.792C90.5792 19.5667 90.2325 19.2893 89.9638 18.96V23.406H88.4818V12.837H89.9638V13.89ZM94.3188 16.386C94.3188 15.892 94.2148 15.4673 94.0068 15.112C93.8075 14.748 93.5388 14.475 93.2008 14.293C92.8715 14.1023 92.5162 14.007 92.1348 14.007C91.7622 14.007 91.4068 14.1023 91.0688 14.293C90.7395 14.4837 90.4708 14.761 90.2628 15.125C90.0635 15.489 89.9638 15.918 89.9638 16.412C89.9638 16.906 90.0635 17.3393 90.2628 17.712C90.4708 18.076 90.7395 18.3533 91.0688 18.544C91.4068 18.7347 91.7622 18.83 92.1348 18.83C92.5162 18.83 92.8715 18.7347 93.2008 18.544C93.5388 18.3447 93.8075 18.0587 94.0068 17.686C94.2148 17.3133 94.3188 16.88 94.3188 16.386ZM99.0214 14.046V18.011C99.0214 18.2797 99.082 18.4747 99.2034 18.596C99.3334 18.7087 99.55 18.765 99.8534 18.765H100.763V20H99.5934C98.926 20 98.4147 19.844 98.0594 19.532C97.704 19.22 97.5264 18.713 97.5264 18.011V14.046H96.6814V12.837H97.5264V11.056H99.0214V12.837H100.763V14.046H99.0214Z" fill="white"/>
<circle cx="16" cy="15" r="8" fill="white"/>
<path d="M16.1318 21.2791C15.9818 21.2791 15.8296 21.2388 15.6976 21.1627L14.3167 20.3458C14.1108 20.2294 14.2115 20.1891 14.2786 20.1667C14.5539 20.0705 14.6099 20.0504 14.9031 19.8825C14.9344 19.8646 14.9747 19.8713 15.006 19.8915L16.0669 20.5204C16.1049 20.5427 16.1587 20.5427 16.1945 20.5204L20.3283 18.1345C20.3664 18.1121 20.391 18.0674 20.391 18.0226V13.2509C20.391 13.2039 20.3664 13.1614 20.3261 13.1368L16.1945 10.7531C16.1564 10.7308 16.1049 10.7308 16.0669 10.7531L11.9375 13.139C11.8972 13.1614 11.8726 13.2061 11.8726 13.2531V18.0226C11.8726 18.0674 11.8972 18.1121 11.9375 18.1323L13.07 18.7858C13.6855 19.0924 14.0615 18.7321 14.0615 18.3673V13.6582C14.0615 13.5911 14.1152 13.5396 14.1824 13.5396H14.7061C14.771 13.5396 14.827 13.5911 14.827 13.6582V18.3695C14.827 19.1887 14.3793 19.6587 13.6027 19.6587C13.3632 19.6587 13.1752 19.6587 12.6515 19.3991L11.5682 18.7746C11.2997 18.6202 11.134 18.3315 11.134 18.0204V13.2509C11.134 12.942 11.2997 12.6511 11.5682 12.4966L15.6976 10.1108C15.9595 9.96307 16.3064 9.96307 16.566 10.1108L20.6998 12.4989C20.9684 12.6533 21.134 12.942 21.134 13.2531V18.0226C21.134 18.3315 20.9684 18.6202 20.6998 18.7769L16.566 21.1627C16.4339 21.2388 16.284 21.2791 16.1318 21.2791ZM19.4689 16.5768C19.4689 15.6838 18.8646 15.4465 17.5955 15.2786C16.3108 15.1085 16.181 15.0213 16.181 14.7214C16.181 14.4729 16.2907 14.1417 17.2419 14.1417C18.0902 14.1417 18.4035 14.3252 18.5333 14.8982C18.5445 14.9519 18.5937 14.9922 18.6497 14.9922H19.1869C19.2204 14.9922 19.2518 14.9787 19.2741 14.9541C19.2965 14.9295 19.3077 14.8959 19.3055 14.8624C19.2227 13.8753 18.5669 13.4165 17.2419 13.4165C16.0624 13.4165 15.3596 13.9134 15.3596 14.7482C15.3596 15.6524 16.0602 15.9031 17.1904 16.015C18.5445 16.147 18.6497 16.3462 18.6497 16.6126C18.6497 17.0736 18.2782 17.2706 17.4075 17.2706C16.3131 17.2706 16.0736 16.9953 15.993 16.4514C15.9841 16.3932 15.9348 16.3507 15.8744 16.3507H15.3395C15.2724 16.3507 15.2209 16.4044 15.2209 16.4693C15.2209 17.1654 15.5991 17.9957 17.4098 17.9957C18.7168 17.9935 19.4689 17.4765 19.4689 16.5768Z" fill="#3C873A"/>
</svg>
