<svg width="120" height="30" viewBox="0 0 120 30" fill="none" xmlns="http://www.w3.org/2000/svg">
<rect width="120" height="30" rx="2" fill="#0E76A8"/>
<circle cx="116" cy="26" r="3" stroke="black" stroke-opacity="0.3" stroke-width="0.2"/>
<path d="M118.178 27.694C118.046 27.832 117.911 27.931 117.773 27.991C117.635 28.051 117.482 28.081 117.314 28.081C117.08 28.081 116.9 28.024 116.774 27.91C116.648 27.79 116.528 27.58 116.414 27.28L116.072 26.398C116 26.236 115.931 26.119 115.865 26.047C115.799 25.969 115.691 25.93 115.541 25.93V26.902C115.541 27.178 115.562 27.376 115.604 27.496C115.652 27.61 115.76 27.742 115.928 27.892L115.865 28H114.245L114.182 27.838C114.332 27.796 114.44 27.757 114.506 27.721C114.572 27.679 114.617 27.625 114.641 27.559C114.665 27.493 114.677 27.391 114.677 27.253V24.913C114.677 24.625 114.653 24.424 114.605 24.31C114.563 24.19 114.458 24.058 114.29 23.914L114.362 23.797H115.928L115.991 23.941C115.799 24.043 115.676 24.139 115.622 24.229C115.568 24.319 115.541 24.472 115.541 24.688V25.804H115.568L116.639 24.589C116.693 24.523 116.729 24.466 116.747 24.418C116.771 24.364 116.786 24.304 116.792 24.238C116.792 24.196 116.768 24.115 116.72 23.995L116.666 23.896L116.783 23.797H117.845L117.899 23.959L117.692 24.022C117.524 24.094 117.365 24.214 117.215 24.382L115.955 25.822C116.267 25.846 116.513 25.912 116.693 26.02C116.873 26.122 117.005 26.275 117.089 26.479L117.503 27.523C117.533 27.601 117.569 27.658 117.611 27.694C117.653 27.724 117.707 27.739 117.773 27.739C117.869 27.739 117.98 27.691 118.106 27.595L118.178 27.694Z" fill="black" fill-opacity="0.3"/>
<path d="M45.457 18.804H48.512V20H43.975V10.965H45.457V18.804ZM51.2334 10.965V20H49.7514V10.965H51.2334ZM60.6021 20H59.1201L54.6611 13.253V20H53.1791V10.952H54.6611L59.1201 17.686V10.952H60.6021V20ZM67.5272 20L64.0302 15.957V20H62.5482V10.965H64.0302V15.086L67.5402 10.965H69.3992L65.4732 15.489L69.4642 20H67.5272ZM72.2568 12.161V14.813H75.3768V16.022H72.2568V18.791H75.7668V20H70.7748V10.952H75.7668V12.161H72.2568ZM80.5432 10.965C81.5052 10.965 82.3459 11.1513 83.0652 11.524C83.7932 11.888 84.3522 12.4167 84.7422 13.11C85.1409 13.7947 85.3402 14.5963 85.3402 15.515C85.3402 16.4337 85.1409 17.231 84.7422 17.907C84.3522 18.583 83.7932 19.103 83.0652 19.467C82.3459 19.8223 81.5052 20 80.5432 20H77.5922V10.965H80.5432ZM80.5432 18.791C81.6005 18.791 82.4109 18.505 82.9742 17.933C83.5375 17.361 83.8192 16.555 83.8192 15.515C83.8192 14.4663 83.5375 13.6473 82.9742 13.058C82.4109 12.4687 81.6005 12.174 80.5432 12.174H79.0742V18.791H80.5432ZM88.291 10.965V20H86.809V10.965H88.291ZM97.6597 20H96.1777L91.7187 13.253V20H90.2367V10.952H91.7187L96.1777 17.686V10.952H97.6597V20Z" fill="white"/>
<circle cx="28" cy="15" r="8" fill="white"/>
<path d="M26.0146 18.9998H24.1487V12.9911H26.0146V18.9998ZM25.0806 12.1715C24.484 12.1715 24 11.6773 24 11.0806C24 10.794 24.1138 10.5192 24.3165 10.3165C24.5192 10.1138 24.794 10 25.0806 10C25.3672 10 25.6421 10.1138 25.8447 10.3165C26.0474 10.5192 26.1612 10.794 26.1612 11.0806C26.1612 11.6773 25.6771 12.1715 25.0806 12.1715ZM32.998 18.9998H31.1361V16.0748C31.1361 15.3777 31.1221 14.4837 30.166 14.4837C29.1959 14.4837 29.0472 15.2411 29.0472 16.0246V18.9998H27.1833V12.9911H28.9729V13.8107H28.999C29.2481 13.3386 29.8566 12.8404 30.7645 12.8404C32.6529 12.8404 33 14.084 33 15.6991V18.9998H32.998Z" fill="#0E76A8"/>
</svg>
