<svg width="120" height="30" viewBox="0 0 120 30" fill="none" xmlns="http://www.w3.org/2000/svg">
<rect width="120" height="30" rx="2" fill="#3FA037"/>
<circle cx="116" cy="26" r="3" stroke="black" stroke-opacity="0.3" stroke-width="0.2"/>
<path d="M118.178 27.694C118.046 27.832 117.911 27.931 117.773 27.991C117.635 28.051 117.482 28.081 117.314 28.081C117.08 28.081 116.9 28.024 116.774 27.91C116.648 27.79 116.528 27.58 116.414 27.28L116.072 26.398C116 26.236 115.931 26.119 115.865 26.047C115.799 25.969 115.691 25.93 115.541 25.93V26.902C115.541 27.178 115.562 27.376 115.604 27.496C115.652 27.61 115.76 27.742 115.928 27.892L115.865 28H114.245L114.182 27.838C114.332 27.796 114.44 27.757 114.506 27.721C114.572 27.679 114.617 27.625 114.641 27.559C114.665 27.493 114.677 27.391 114.677 27.253V24.913C114.677 24.625 114.653 24.424 114.605 24.31C114.563 24.19 114.458 24.058 114.29 23.914L114.362 23.797H115.928L115.991 23.941C115.799 24.043 115.676 24.139 115.622 24.229C115.568 24.319 115.541 24.472 115.541 24.688V25.804H115.568L116.639 24.589C116.693 24.523 116.729 24.466 116.747 24.418C116.771 24.364 116.786 24.304 116.792 24.238C116.792 24.196 116.768 24.115 116.72 23.995L116.666 23.896L116.783 23.797H117.845L117.899 23.959L117.692 24.022C117.524 24.094 117.365 24.214 117.215 24.382L115.955 25.822C116.267 25.846 116.513 25.912 116.693 26.02C116.873 26.122 117.005 26.275 117.089 26.479L117.503 27.523C117.533 27.601 117.569 27.658 117.611 27.694C117.653 27.724 117.707 27.739 117.773 27.739C117.869 27.739 117.98 27.691 118.106 27.595L118.178 27.694Z" fill="black" fill-opacity="0.3"/>
<path d="M46.491 10.965V20H45.009V13.812L42.253 20H41.226L38.457 13.812V20H36.975V10.965H38.574L41.746 18.05L44.905 10.965H46.491ZM52.5599 20.091C51.7192 20.091 50.9435 19.896 50.2329 19.506C49.5309 19.1073 48.9719 18.557 48.5559 17.855C48.1485 17.1443 47.9449 16.347 47.9449 15.463C47.9449 14.579 48.1485 13.786 48.5559 13.084C48.9719 12.382 49.5309 11.836 50.2329 11.446C50.9435 11.0473 51.7192 10.848 52.5599 10.848C53.4092 10.848 54.1849 11.0473 54.8869 11.446C55.5975 11.836 56.1565 12.382 56.5639 13.084C56.9712 13.786 57.1749 14.579 57.1749 15.463C57.1749 16.347 56.9712 17.1443 56.5639 17.855C56.1565 18.557 55.5975 19.1073 54.8869 19.506C54.1849 19.896 53.4092 20.091 52.5599 20.091ZM52.5599 18.804C53.1579 18.804 53.6909 18.6697 54.1589 18.401C54.6269 18.1237 54.9909 17.7337 55.2509 17.231C55.5195 16.7197 55.6539 16.1303 55.6539 15.463C55.6539 14.7957 55.5195 14.2107 55.2509 13.708C54.9909 13.2053 54.6269 12.8197 54.1589 12.551C53.6909 12.2823 53.1579 12.148 52.5599 12.148C51.9619 12.148 51.4289 12.2823 50.9609 12.551C50.4929 12.8197 50.1245 13.2053 49.8559 13.708C49.5959 14.2107 49.4659 14.7957 49.4659 15.463C49.4659 16.1303 49.5959 16.7197 49.8559 17.231C50.1245 17.7337 50.4929 18.1237 50.9609 18.401C51.4289 18.6697 51.9619 18.804 52.5599 18.804ZM66.0562 20H64.5742L60.1152 13.253V20H58.6332V10.952H60.1152L64.5742 17.686V10.952H66.0562V20ZM74.5413 13.565C74.3073 13.1143 73.9823 12.7763 73.5663 12.551C73.1503 12.317 72.6693 12.2 72.1233 12.2C71.5253 12.2 70.9923 12.3343 70.5243 12.603C70.0563 12.8717 69.688 13.253 69.4193 13.747C69.1593 14.241 69.0293 14.813 69.0293 15.463C69.0293 16.113 69.1593 16.6893 69.4193 17.192C69.688 17.686 70.0563 18.0673 70.5243 18.336C70.9923 18.6047 71.5253 18.739 72.1233 18.739C72.9293 18.739 73.5837 18.5137 74.0863 18.063C74.589 17.6123 74.8967 17.0013 75.0093 16.23H71.6163V15.047H76.5953V16.204C76.5 16.906 76.2487 17.5517 75.8413 18.141C75.4427 18.7303 74.9183 19.2027 74.2683 19.558C73.627 19.9047 72.912 20.078 72.1233 20.078C71.274 20.078 70.4983 19.883 69.7963 19.493C69.0943 19.0943 68.5353 18.544 68.1193 17.842C67.712 17.14 67.5083 16.347 67.5083 15.463C67.5083 14.579 67.712 13.786 68.1193 13.084C68.5353 12.382 69.0943 11.836 69.7963 11.446C70.507 11.0473 71.2827 10.848 72.1233 10.848C73.0853 10.848 73.939 11.0863 74.6843 11.563C75.4383 12.031 75.9843 12.6983 76.3223 13.565H74.5413ZM82.178 20.091C81.3374 20.091 80.5617 19.896 79.851 19.506C79.149 19.1073 78.59 18.557 78.174 17.855C77.7667 17.1443 77.563 16.347 77.563 15.463C77.563 14.579 77.7667 13.786 78.174 13.084C78.59 12.382 79.149 11.836 79.851 11.446C80.5617 11.0473 81.3374 10.848 82.178 10.848C83.0274 10.848 83.803 11.0473 84.505 11.446C85.2157 11.836 85.7747 12.382 86.182 13.084C86.5894 13.786 86.793 14.579 86.793 15.463C86.793 16.347 86.5894 17.1443 86.182 17.855C85.7747 18.557 85.2157 19.1073 84.505 19.506C83.803 19.896 83.0274 20.091 82.178 20.091ZM82.178 18.804C82.776 18.804 83.309 18.6697 83.777 18.401C84.245 18.1237 84.609 17.7337 84.869 17.231C85.1377 16.7197 85.272 16.1303 85.272 15.463C85.272 14.7957 85.1377 14.2107 84.869 13.708C84.609 13.2053 84.245 12.8197 83.777 12.551C83.309 12.2823 82.776 12.148 82.178 12.148C81.58 12.148 81.047 12.2823 80.579 12.551C80.111 12.8197 79.7427 13.2053 79.474 13.708C79.214 14.2107 79.084 14.7957 79.084 15.463C79.084 16.1303 79.214 16.7197 79.474 17.231C79.7427 17.7337 80.111 18.1237 80.579 18.401C81.047 18.6697 81.58 18.804 82.178 18.804ZM91.2024 10.965C92.1644 10.965 93.005 11.1513 93.7244 11.524C94.4524 11.888 95.0114 12.4167 95.4014 13.11C95.8 13.7947 95.9994 14.5963 95.9994 15.515C95.9994 16.4337 95.8 17.231 95.4014 17.907C95.0114 18.583 94.4524 19.103 93.7244 19.467C93.005 19.8223 92.1644 20 91.2024 20H88.2514V10.965H91.2024ZM91.2024 18.791C92.2597 18.791 93.07 18.505 93.6334 17.933C94.1967 17.361 94.4784 16.555 94.4784 15.515C94.4784 14.4663 94.1967 13.6473 93.6334 13.058C93.07 12.4687 92.2597 12.174 91.2024 12.174H89.7334V18.791H91.2024ZM102.304 15.359C102.789 15.4457 103.201 15.7013 103.539 16.126C103.877 16.5507 104.046 17.0317 104.046 17.569C104.046 18.0283 103.925 18.4443 103.682 18.817C103.448 19.181 103.106 19.4713 102.655 19.688C102.204 19.896 101.68 20 101.082 20H97.4682V10.965H100.913C101.528 10.965 102.057 11.069 102.499 11.277C102.941 11.485 103.275 11.7667 103.5 12.122C103.725 12.4687 103.838 12.8587 103.838 13.292C103.838 13.812 103.699 14.2453 103.422 14.592C103.145 14.9387 102.772 15.1943 102.304 15.359ZM98.9502 14.761H100.783C101.268 14.761 101.645 14.6527 101.914 14.436C102.191 14.2107 102.33 13.89 102.33 13.474C102.33 13.0667 102.191 12.7503 101.914 12.525C101.645 12.291 101.268 12.174 100.783 12.174H98.9502V14.761ZM100.952 18.791C101.455 18.791 101.849 18.6697 102.135 18.427C102.421 18.1843 102.564 17.8463 102.564 17.413C102.564 16.971 102.412 16.62 102.109 16.36C101.806 16.1 101.403 15.97 100.9 15.97H98.9502V18.791H100.952Z" fill="white"/>
<circle cx="21" cy="15" r="8" fill="white"/>
<path d="M20.3417 8.81152C28.6509 15.4904 22.2826 19.4585 21.6061 20.318L21.8711 22.8707L21.4187 22.5071L21.1896 20.2839C20.4523 19.8116 18.5428 19.1445 17.9769 16.642C17.4074 14.1367 18.6915 12.7173 20.3417 8.81152ZM21.085 10.7264C20.549 9.6225 20.8659 10.8137 20.8659 10.8137C21.216 11.9886 20.9835 13.0189 20.7585 14.1611C20.4647 15.649 20.1793 17.6963 20.9221 19.0953C21.6615 20.4914 21.3423 19.791 21.1454 19.0313C20.9512 18.2681 21.1755 16.5639 21.3829 15.4935C21.6704 14.0063 21.9802 12.5771 21.085 10.7264Z" fill="#4DB33D"/>
</svg>
