<svg width="120" height="30" viewBox="0 0 120 30" fill="none" xmlns="http://www.w3.org/2000/svg">
<rect width="120" height="30" rx="2" fill="#303030"/>
<circle cx="116" cy="26" r="3" stroke="black" stroke-opacity="0.3" stroke-width="0.2"/>
<path d="M118.178 27.694C118.046 27.832 117.911 27.931 117.773 27.991C117.635 28.051 117.482 28.081 117.314 28.081C117.08 28.081 116.9 28.024 116.774 27.91C116.648 27.79 116.528 27.58 116.414 27.28L116.072 26.398C116 26.236 115.931 26.119 115.865 26.047C115.799 25.969 115.691 25.93 115.541 25.93V26.902C115.541 27.178 115.562 27.376 115.604 27.496C115.652 27.61 115.76 27.742 115.928 27.892L115.865 28H114.245L114.182 27.838C114.332 27.796 114.44 27.757 114.506 27.721C114.572 27.679 114.617 27.625 114.641 27.559C114.665 27.493 114.677 27.391 114.677 27.253V24.913C114.677 24.625 114.653 24.424 114.605 24.31C114.563 24.19 114.458 24.058 114.29 23.914L114.362 23.797H115.928L115.991 23.941C115.799 24.043 115.676 24.139 115.622 24.229C115.568 24.319 115.541 24.472 115.541 24.688V25.804H115.568L116.639 24.589C116.693 24.523 116.729 24.466 116.747 24.418C116.771 24.364 116.786 24.304 116.792 24.238C116.792 24.196 116.768 24.115 116.72 23.995L116.666 23.896L116.783 23.797H117.845L117.899 23.959L117.692 24.022C117.524 24.094 117.365 24.214 117.215 24.382L115.955 25.822C116.267 25.846 116.513 25.912 116.693 26.02C116.873 26.122 117.005 26.275 117.089 26.479L117.503 27.523C117.533 27.601 117.569 27.658 117.611 27.694C117.653 27.724 117.707 27.739 117.773 27.739C117.869 27.739 117.98 27.691 118.106 27.595L118.178 27.694Z" fill="black" fill-opacity="0.3"/>
<path d="M51.398 20H49.916L45.457 13.253V20H43.975V10.952H45.457L49.916 17.686V10.952H51.398V20ZM57.4651 20.091C56.6245 20.091 55.8488 19.896 55.1381 19.506C54.4361 19.1073 53.8771 18.557 53.4611 17.855C53.0538 17.1443 52.8501 16.347 52.8501 15.463C52.8501 14.579 53.0538 13.786 53.4611 13.084C53.8771 12.382 54.4361 11.836 55.1381 11.446C55.8488 11.0473 56.6245 10.848 57.4651 10.848C58.3145 10.848 59.0901 11.0473 59.7921 11.446C60.5028 11.836 61.0618 12.382 61.4691 13.084C61.8765 13.786 62.0801 14.579 62.0801 15.463C62.0801 16.347 61.8765 17.1443 61.4691 17.855C61.0618 18.557 60.5028 19.1073 59.7921 19.506C59.0901 19.896 58.3145 20.091 57.4651 20.091ZM57.4651 18.804C58.0631 18.804 58.5961 18.6697 59.0641 18.401C59.5321 18.1237 59.8961 17.7337 60.1561 17.231C60.4248 16.7197 60.5591 16.1303 60.5591 15.463C60.5591 14.7957 60.4248 14.2107 60.1561 13.708C59.8961 13.2053 59.5321 12.8197 59.0641 12.551C58.5961 12.2823 58.0631 12.148 57.4651 12.148C56.8671 12.148 56.3341 12.2823 55.8661 12.551C55.3981 12.8197 55.0298 13.2053 54.7611 13.708C54.5011 14.2107 54.3711 14.7957 54.3711 15.463C54.3711 16.1303 54.5011 16.7197 54.7611 17.231C55.0298 17.7337 55.3981 18.1237 55.8661 18.401C56.3341 18.6697 56.8671 18.804 57.4651 18.804ZM66.4895 10.965C67.4515 10.965 68.2921 11.1513 69.0115 11.524C69.7395 11.888 70.2985 12.4167 70.6885 13.11C71.0871 13.7947 71.2865 14.5963 71.2865 15.515C71.2865 16.4337 71.0871 17.231 70.6885 17.907C70.2985 18.583 69.7395 19.103 69.0115 19.467C68.2921 19.8223 67.4515 20 66.4895 20H63.5385V10.965H66.4895ZM66.4895 18.791C67.5468 18.791 68.3571 18.505 68.9205 17.933C69.4838 17.361 69.7655 16.555 69.7655 15.515C69.7655 14.4663 69.4838 13.6473 68.9205 13.058C68.3571 12.4687 67.5468 12.174 66.4895 12.174H65.0205V18.791H66.4895ZM74.2373 12.161V14.813H77.3573V16.022H74.2373V18.791H77.7473V20H72.7553V10.952H77.7473V12.161H74.2373ZM87.8766 10.965V17.478C87.8766 18.284 87.6296 18.921 87.1356 19.389C86.6503 19.857 86.0089 20.091 85.2116 20.091C84.4143 20.091 83.7686 19.857 83.2746 19.389C82.7893 18.921 82.5466 18.284 82.5466 17.478H84.0416C84.0503 17.8767 84.1499 18.193 84.3406 18.427C84.5399 18.661 84.8303 18.778 85.2116 18.778C85.5929 18.778 85.8833 18.661 86.0826 18.427C86.2819 18.1843 86.3816 17.868 86.3816 17.478V10.965H87.8766ZM93.2645 20.091C92.6578 20.091 92.1118 19.987 91.6265 19.779C91.1412 19.5623 90.7598 19.259 90.4825 18.869C90.2052 18.479 90.0665 18.024 90.0665 17.504H91.6525C91.6872 17.894 91.8388 18.2147 92.1075 18.466C92.3848 18.7173 92.7705 18.843 93.2645 18.843C93.7758 18.843 94.1745 18.7217 94.4605 18.479C94.7465 18.2277 94.8895 17.907 94.8895 17.517C94.8895 17.2137 94.7985 16.9667 94.6165 16.776C94.4432 16.5853 94.2222 16.438 93.9535 16.334C93.6935 16.23 93.3295 16.1173 92.8615 15.996C92.2722 15.84 91.7912 15.684 91.4185 15.528C91.0545 15.3633 90.7425 15.112 90.4825 14.774C90.2225 14.436 90.0925 13.9853 90.0925 13.422C90.0925 12.902 90.2225 12.447 90.4825 12.057C90.7425 11.667 91.1065 11.368 91.5745 11.16C92.0425 10.952 92.5842 10.848 93.1995 10.848C94.0748 10.848 94.7898 11.069 95.3445 11.511C95.9078 11.9443 96.2198 12.5423 96.2805 13.305H94.6425C94.6165 12.9757 94.4605 12.694 94.1745 12.46C93.8885 12.226 93.5115 12.109 93.0435 12.109C92.6188 12.109 92.2722 12.2173 92.0035 12.434C91.7348 12.6507 91.6005 12.9627 91.6005 13.37C91.6005 13.6473 91.6828 13.877 91.8475 14.059C92.0208 14.2323 92.2375 14.371 92.4975 14.475C92.7575 14.579 93.1128 14.6917 93.5635 14.813C94.1615 14.9777 94.6468 15.1423 95.0195 15.307C95.4008 15.4717 95.7215 15.7273 95.9815 16.074C96.2502 16.412 96.3845 16.867 96.3845 17.439C96.3845 17.8983 96.2588 18.3317 96.0075 18.739C95.7648 19.1463 95.4052 19.4757 94.9285 19.727C94.4605 19.9697 93.9058 20.091 93.2645 20.091Z" fill="white"/>
<circle cx="28" cy="15" r="8" fill="white"/>
<path d="M27.9306 19.2247C27.8913 19.2247 27.8519 19.2135 27.8163 19.1947L27.4563 18.981C27.4019 18.951 27.4281 18.9397 27.4469 18.9341C27.5181 18.9097 27.5331 18.9041 27.61 18.8591C27.6175 18.8554 27.6288 18.8572 27.6363 18.861L27.9138 19.026C27.9231 19.0316 27.9381 19.0316 27.9475 19.026L29.0313 18.3997C29.0406 18.3941 29.0481 18.3829 29.0481 18.3697V17.1191C29.0481 17.106 29.0425 17.0947 29.0313 17.0891L27.9475 16.4647C27.9381 16.4591 27.925 16.4591 27.9138 16.4647L26.83 17.0891C26.8188 17.0947 26.8131 17.1079 26.8131 17.1191V18.3697C26.8131 18.381 26.8206 18.3922 26.83 18.3979L27.1263 18.5685C27.2875 18.6491 27.3869 18.5535 27.3869 18.4597V17.2241C27.3869 17.2072 27.4 17.1922 27.4188 17.1922H27.5556C27.5725 17.1922 27.5875 17.2054 27.5875 17.2241V18.4597C27.5875 18.6754 27.4713 18.7972 27.2669 18.7972C27.205 18.7972 27.1544 18.7972 27.0175 18.7297L26.7325 18.5666C26.6631 18.5254 26.6181 18.4504 26.6181 18.3697V17.1191C26.6181 17.0385 26.6613 16.9616 26.7325 16.9222L27.8163 16.296C27.8856 16.2566 27.9756 16.2566 28.0431 16.296L29.1269 16.9222C29.1963 16.9635 29.2413 17.0385 29.2413 17.1191V18.3697C29.2413 18.4504 29.1981 18.5272 29.1269 18.5666L28.0431 19.1929C28.0113 19.2135 27.9719 19.2247 27.9306 19.2247ZM28.8063 17.991C28.8063 17.7566 28.6487 17.6947 28.315 17.6497C27.9775 17.6047 27.9438 17.5822 27.9438 17.5035C27.9438 17.4379 27.9719 17.3516 28.2213 17.3516C28.4444 17.3516 28.5269 17.4004 28.5606 17.5504C28.5644 17.5654 28.5756 17.5747 28.5906 17.5747H28.7313C28.7406 17.5747 28.7481 17.571 28.7538 17.5654C28.7594 17.5579 28.7631 17.5504 28.7613 17.541C28.7388 17.2822 28.5681 17.1622 28.2213 17.1622C27.9119 17.1622 27.7281 17.2935 27.7281 17.511C27.7281 17.7491 27.9119 17.8129 28.2081 17.8429C28.5625 17.8785 28.5906 17.9291 28.5906 17.9985C28.5906 18.1204 28.4931 18.171 28.2644 18.171C27.9775 18.171 27.9138 18.0997 27.8931 17.9572C27.8913 17.9422 27.8781 17.931 27.8613 17.931H27.7206C27.7038 17.931 27.6888 17.9441 27.6888 17.9629C27.6888 18.1447 27.7881 18.3622 28.2625 18.3622C28.6094 18.3622 28.8063 18.2272 28.8063 17.991ZM29.8281 17.0516C29.8281 17.166 29.7344 17.2597 29.62 17.2597C29.5056 17.2597 29.4119 17.166 29.4119 17.0516C29.4119 16.9335 29.5094 16.8435 29.62 16.8435C29.7325 16.8416 29.8281 16.9335 29.8281 17.0516ZM29.7944 17.0516C29.7944 16.9541 29.7156 16.8772 29.6181 16.8772C29.5225 16.8772 29.4438 16.9541 29.4438 17.0516C29.4438 17.1491 29.5225 17.2279 29.6181 17.2279C29.7156 17.226 29.7944 17.1472 29.7944 17.0516ZM29.71 17.1679H29.6613C29.6594 17.1566 29.6519 17.0966 29.6519 17.0947C29.6481 17.0816 29.6444 17.0741 29.6275 17.0741H29.5863V17.1679H29.5413V16.9335H29.6219C29.65 16.9335 29.7044 16.9335 29.7044 16.9954C29.7044 17.0385 29.6763 17.0479 29.6594 17.0535C29.6913 17.0554 29.6931 17.076 29.6988 17.106C29.7006 17.1247 29.7044 17.1566 29.71 17.1679ZM29.6575 17.0029C29.6575 16.971 29.635 16.971 29.6238 16.971H29.5863V17.0366H29.6219C29.6519 17.0366 29.6575 17.016 29.6575 17.0029ZM24.5744 14.331C24.5744 14.2804 24.5481 14.2354 24.505 14.211L23.3556 13.5491C23.3369 13.5379 23.3144 13.5322 23.2919 13.5304H23.2806C23.2581 13.5304 23.2375 13.5379 23.2169 13.5491L22.0694 14.211C22.0263 14.2354 22 14.2822 22 14.331L22.0019 16.1122C22.0019 16.1366 22.015 16.1591 22.0356 16.1722C22.0563 16.1854 22.0825 16.1854 22.105 16.1722L22.7875 15.7804C22.8306 15.7541 22.8569 15.7091 22.8569 15.6604V14.8279C22.8569 14.7791 22.8831 14.7322 22.9263 14.7079L23.2169 14.541C23.2394 14.5279 23.2619 14.5222 23.2862 14.5222C23.3106 14.5222 23.335 14.5279 23.3556 14.541L23.6463 14.7079C23.6894 14.7322 23.7156 14.7791 23.7156 14.8279V15.6604C23.7156 15.7091 23.7419 15.756 23.785 15.7804L24.4675 16.1722C24.4881 16.1854 24.5163 16.1854 24.5369 16.1722C24.5575 16.161 24.5706 16.1366 24.5706 16.1122L24.5744 14.331ZM30.8594 12.3866V15.6941C30.8594 15.7429 30.8331 15.7897 30.79 15.8141L29.6406 16.4779C29.5975 16.5022 29.545 16.5022 29.5019 16.4779L28.3525 15.8141C28.3094 15.7897 28.2831 15.7429 28.2831 15.6941V14.3666C28.2831 14.3179 28.3094 14.271 28.3525 14.2466L29.5019 13.5829C29.545 13.5585 29.5975 13.5585 29.6406 13.5829L29.9275 13.7479C29.9594 13.7666 30.0006 13.7422 30.0006 13.7066V11.9441C30.0006 11.8916 30.0569 11.8579 30.1038 11.8841L30.7881 12.2666C30.8313 12.2891 30.8594 12.336 30.8594 12.3866ZM29.9969 14.8035C29.9969 14.7904 29.9894 14.7791 29.98 14.7735L29.5863 14.5447C29.575 14.5391 29.5619 14.5391 29.5506 14.5447L29.1569 14.7735C29.1456 14.7791 29.14 14.7904 29.14 14.8035V15.2591C29.14 15.2722 29.1475 15.2835 29.1569 15.2891L29.5506 15.516C29.5619 15.5216 29.575 15.5216 29.5844 15.516L29.9781 15.2891C29.9894 15.2835 29.995 15.2722 29.995 15.2591V14.8035H29.9969ZM33.9306 14.7904C33.9738 14.766 34 14.7191 34 14.6704V14.3497C34 14.301 33.9738 14.2541 33.9306 14.2297L32.7888 13.566C32.7456 13.5416 32.6931 13.5416 32.65 13.566L31.5006 14.2297C31.4575 14.2541 31.4313 14.301 31.4313 14.3497V15.6772C31.4313 15.7279 31.4575 15.7729 31.5006 15.7972L32.6425 16.4479C32.6838 16.4722 32.7363 16.4722 32.7794 16.4479L33.4694 16.0635C33.5163 16.0372 33.5163 15.9697 33.4694 15.9435L32.3125 15.2797C32.29 15.2666 32.2769 15.2441 32.2769 15.2197V14.8035C32.2769 14.7791 32.29 14.7566 32.3125 14.7435L32.6725 14.5354C32.6931 14.5222 32.7213 14.5222 32.7419 14.5354L33.1019 14.7435C33.1225 14.7566 33.1375 14.7791 33.1375 14.8035V15.1297C33.1375 15.1822 33.1956 15.216 33.2425 15.1897L33.9306 14.7904ZM32.4813 14.856C32.4738 14.8616 32.4681 14.8691 32.4681 14.8785V15.1335C32.4681 15.1429 32.4738 15.1522 32.4813 15.156L32.7025 15.2835C32.71 15.2891 32.7213 15.2891 32.7288 15.2835L32.95 15.156C32.9575 15.1504 32.9631 15.1429 32.9631 15.1335V14.8785C32.9631 14.8691 32.9575 14.8597 32.95 14.856L32.7288 14.7285C32.7213 14.7229 32.71 14.7229 32.7025 14.7285L32.4813 14.856ZM27.715 15.6716V14.3516C27.715 14.3029 27.685 14.256 27.6419 14.2316L26.4963 13.5716C26.4569 13.5491 26.4025 13.5454 26.3575 13.5716L25.2119 14.2316C25.1688 14.256 25.1388 14.301 25.1388 14.3516V15.6716C25.1388 15.7241 25.1744 15.7691 25.2138 15.7916L26.3613 16.4516C26.4063 16.4779 26.4588 16.476 26.5 16.4516L27.6438 15.7916C27.6775 15.7729 27.7019 15.741 27.7113 15.7035C27.7131 15.6941 27.715 15.6829 27.715 15.6716ZM26.3219 13.3297L26.3069 13.3391H26.3275L26.3219 13.3297ZM27.7506 15.771L27.7431 15.7579V15.7747L27.7506 15.771Z" fill="#3C873A"/>
</svg>
