<svg width="120" height="30" viewBox="0 0 120 30" fill="none" xmlns="http://www.w3.org/2000/svg">
<rect width="120" height="30" rx="2" fill="#1C2C4C"/>
<circle cx="116" cy="26" r="3" stroke="black" stroke-opacity="0.3" stroke-width="0.2"/>
<path d="M118.178 27.694C118.046 27.832 117.911 27.931 117.773 27.991C117.635 28.051 117.482 28.081 117.314 28.081C117.08 28.081 116.9 28.024 116.774 27.91C116.648 27.79 116.528 27.58 116.414 27.28L116.072 26.398C116 26.236 115.931 26.119 115.865 26.047C115.799 25.969 115.691 25.93 115.541 25.93V26.902C115.541 27.178 115.562 27.376 115.604 27.496C115.652 27.61 115.76 27.742 115.928 27.892L115.865 28H114.245L114.182 27.838C114.332 27.796 114.44 27.757 114.506 27.721C114.572 27.679 114.617 27.625 114.641 27.559C114.665 27.493 114.677 27.391 114.677 27.253V24.913C114.677 24.625 114.653 24.424 114.605 24.31C114.563 24.19 114.458 24.058 114.29 23.914L114.362 23.797H115.928L115.991 23.941C115.799 24.043 115.676 24.139 115.622 24.229C115.568 24.319 115.541 24.472 115.541 24.688V25.804H115.568L116.639 24.589C116.693 24.523 116.729 24.466 116.747 24.418C116.771 24.364 116.786 24.304 116.792 24.238C116.792 24.196 116.768 24.115 116.72 23.995L116.666 23.896L116.783 23.797H117.845L117.899 23.959L117.692 24.022C117.524 24.094 117.365 24.214 117.215 24.382L115.955 25.822C116.267 25.846 116.513 25.912 116.693 26.02C116.873 26.122 117.005 26.275 117.089 26.479L117.503 27.523C117.533 27.601 117.569 27.658 117.611 27.694C117.653 27.724 117.707 27.739 117.773 27.739C117.869 27.739 117.98 27.691 118.106 27.595L118.178 27.694Z" fill="black" fill-opacity="0.3"/>
<path d="M46.668 20L44.588 16.386H43.457V20H41.975V10.965H45.095C45.7883 10.965 46.3733 11.0863 46.85 11.329C47.3353 11.5717 47.695 11.8967 47.929 12.304C48.1717 12.7113 48.293 13.1663 48.293 13.669C48.293 14.2583 48.1197 14.7957 47.773 15.281C47.435 15.7577 46.9107 16.0827 46.2 16.256L48.436 20H46.668ZM43.457 15.203H45.095C45.6497 15.203 46.0657 15.0643 46.343 14.787C46.629 14.5097 46.772 14.137 46.772 13.669C46.772 13.201 46.6333 12.837 46.356 12.577C46.0787 12.3083 45.6583 12.174 45.095 12.174H43.457V15.203ZM51.6709 12.161V14.813H54.7909V16.022H51.6709V18.791H55.1809V20H50.1889V10.952H55.1809V12.161H51.6709ZM62.4533 18.154H58.6703L58.0203 20H56.4733L59.7103 10.952H61.4263L64.6633 20H63.1033L62.4533 18.154ZM62.0373 16.945L60.5683 12.746L59.0863 16.945H62.0373ZM65.5767 15.463C65.5767 14.579 65.7804 13.786 66.1877 13.084C66.6037 12.382 67.1627 11.836 67.8647 11.446C68.5754 11.0473 69.351 10.848 70.1917 10.848C71.1537 10.848 72.0074 11.0863 72.7527 11.563C73.5067 12.031 74.0527 12.6983 74.3907 13.565H72.6097C72.3757 13.0883 72.0507 12.733 71.6347 12.499C71.2187 12.265 70.7377 12.148 70.1917 12.148C69.5937 12.148 69.0607 12.2823 68.5927 12.551C68.1247 12.8197 67.7564 13.2053 67.4877 13.708C67.2277 14.2107 67.0977 14.7957 67.0977 15.463C67.0977 16.1303 67.2277 16.7153 67.4877 17.218C67.7564 17.7207 68.1247 18.1107 68.5927 18.388C69.0607 18.6567 69.5937 18.791 70.1917 18.791C70.7377 18.791 71.2187 18.674 71.6347 18.44C72.0507 18.206 72.3757 17.8507 72.6097 17.374H74.3907C74.0527 18.2407 73.5067 18.908 72.7527 19.376C72.0074 19.844 71.1537 20.078 70.1917 20.078C69.3424 20.078 68.5667 19.883 67.8647 19.493C67.1627 19.0943 66.6037 18.544 66.1877 17.842C65.7804 17.14 65.5767 16.347 65.5767 15.463ZM81.9624 10.965V12.174H79.5574V20H78.0754V12.174H75.6574V10.965H81.9624ZM91.7672 10.965V17.478C91.7672 18.284 91.5202 18.921 91.0262 19.389C90.5409 19.857 89.8996 20.091 89.1022 20.091C88.3049 20.091 87.6592 19.857 87.1652 19.389C86.6799 18.921 86.4372 18.284 86.4372 17.478H87.9322C87.9409 17.8767 88.0406 18.193 88.2312 18.427C88.4306 18.661 88.7209 18.778 89.1022 18.778C89.4836 18.778 89.7739 18.661 89.9732 18.427C90.1726 18.1843 90.2722 17.868 90.2722 17.478V10.965H91.7672ZM97.1551 20.091C96.5485 20.091 96.0025 19.987 95.5171 19.779C95.0318 19.5623 94.6505 19.259 94.3731 18.869C94.0958 18.479 93.9571 18.024 93.9571 17.504H95.5431C95.5778 17.894 95.7295 18.2147 95.9981 18.466C96.2755 18.7173 96.6611 18.843 97.1551 18.843C97.6665 18.843 98.0651 18.7217 98.3511 18.479C98.6371 18.2277 98.7801 17.907 98.7801 17.517C98.7801 17.2137 98.6891 16.9667 98.5071 16.776C98.3338 16.5853 98.1128 16.438 97.8441 16.334C97.5841 16.23 97.2201 16.1173 96.7521 15.996C96.1628 15.84 95.6818 15.684 95.3091 15.528C94.9451 15.3633 94.6331 15.112 94.3731 14.774C94.1131 14.436 93.9831 13.9853 93.9831 13.422C93.9831 12.902 94.1131 12.447 94.3731 12.057C94.6331 11.667 94.9971 11.368 95.4651 11.16C95.9331 10.952 96.4748 10.848 97.0901 10.848C97.9655 10.848 98.6805 11.069 99.2351 11.511C99.7985 11.9443 100.11 12.5423 100.171 13.305H98.5331C98.5071 12.9757 98.3511 12.694 98.0651 12.46C97.7791 12.226 97.4021 12.109 96.9341 12.109C96.5095 12.109 96.1628 12.2173 95.8941 12.434C95.6255 12.6507 95.4911 12.9627 95.4911 13.37C95.4911 13.6473 95.5735 13.877 95.7381 14.059C95.9115 14.2323 96.1281 14.371 96.3881 14.475C96.6481 14.579 97.0035 14.6917 97.4541 14.813C98.0521 14.9777 98.5375 15.1423 98.9101 15.307C99.2915 15.4717 99.6121 15.7273 99.8721 16.074C100.141 16.412 100.275 16.867 100.275 17.439C100.275 17.8983 100.149 18.3317 99.8981 18.739C99.6555 19.1463 99.2958 19.4757 98.8191 19.727C98.3511 19.9697 97.7965 20.091 97.1551 20.091Z" fill="white"/>
<circle cx="26" cy="15" r="8" fill="white"/>
<path d="M29.8016 13.6528C29.675 13.6106 29.5484 13.5708 29.4219 13.5333C29.443 13.4466 29.4617 13.3599 29.4805 13.2731C29.7688 11.8763 29.5789 10.7536 28.9391 10.3833C28.3227 10.0294 27.3172 10.3974 26.3 11.2833C26.1992 11.37 26.1008 11.4614 26.007 11.5528C25.9437 11.4919 25.8781 11.431 25.8125 11.3724C24.7461 10.4255 23.6773 10.0271 23.0375 10.3997C22.4234 10.756 22.2406 11.813 22.4984 13.1349C22.5242 13.2661 22.5523 13.395 22.5852 13.5263C22.4352 13.5685 22.2875 13.6153 22.1492 13.6646C20.8977 14.0981 20 14.7825 20 15.4903C20 16.2216 20.9563 16.9552 22.257 17.4005C22.3625 17.4356 22.468 17.4708 22.5758 17.5013C22.5406 17.6419 22.5102 17.7802 22.482 17.9231C22.2359 19.2239 22.4281 20.2552 23.0422 20.6091C23.675 20.9747 24.7391 20.5997 25.775 19.6927C25.857 19.62 25.9391 19.545 26.0211 19.4653C26.1242 19.5661 26.232 19.6622 26.3398 19.756C27.343 20.6185 28.3344 20.9677 28.9461 20.6138C29.5789 20.2481 29.7852 19.1396 29.518 17.7896C29.4969 17.6864 29.4734 17.581 29.4477 17.4731C29.5227 17.4521 29.5953 17.4286 29.668 17.4052C31.0203 16.9575 32 16.2333 32 15.4903C32 14.7802 31.0766 14.0911 29.8016 13.6528ZM26.6305 11.663C27.5023 10.9036 28.3156 10.606 28.6859 10.8192C29.082 11.0466 29.2344 11.9653 28.9859 13.1724C28.9695 13.2521 28.9531 13.3294 28.932 13.4067C28.4117 13.2896 27.8844 13.2052 27.3547 13.1583C27.05 12.7224 26.7172 12.3052 26.3563 11.9138C26.4477 11.8271 26.5367 11.745 26.6305 11.663ZM23.9187 16.7067C24.0383 16.9106 24.1602 17.1146 24.2891 17.3138C23.9234 17.2739 23.5602 17.2153 23.2016 17.138C23.3047 16.8005 23.4336 16.4513 23.5836 16.095C23.6914 16.3013 23.8016 16.5052 23.9187 16.7067ZM23.2086 13.8872C23.5461 13.8122 23.9047 13.7513 24.2773 13.7044C24.1531 13.8989 24.0312 14.0981 23.9164 14.2997C23.8016 14.4989 23.6891 14.7028 23.5836 14.9091C23.4359 14.5599 23.3117 14.2177 23.2086 13.8872ZM23.8508 15.5021C24.0055 15.1786 24.1742 14.8622 24.3523 14.5505C24.5305 14.2388 24.7227 13.9364 24.9242 13.6388C25.2758 13.613 25.6344 13.5989 26 13.5989C26.3656 13.5989 26.7266 13.613 27.0758 13.6388C27.275 13.9341 27.4648 14.2364 27.6453 14.5458C27.8258 14.8552 27.9945 15.1716 28.1539 15.4927C27.9969 15.8161 27.8281 16.1349 27.6477 16.4489C27.4695 16.7606 27.2797 17.063 27.0805 17.363C26.7313 17.3888 26.368 17.4005 26 17.4005C25.632 17.4005 25.2758 17.3888 24.9312 17.3677C24.7273 17.07 24.5352 16.7653 24.3547 16.4536C24.1742 16.1419 24.0078 15.8255 23.8508 15.5021ZM28.0836 16.7021C28.2031 16.4958 28.3156 16.2872 28.4258 16.0763C28.5758 16.4161 28.707 16.7606 28.8219 17.1146C28.4586 17.1966 28.0906 17.2599 27.7203 17.3021C27.8469 17.1052 27.9664 16.9036 28.0836 16.7021ZM28.4211 14.9091C28.3109 14.7028 28.1984 14.4966 28.0812 14.295C27.9664 14.0958 27.8469 13.8989 27.7227 13.7044C28.1 13.7513 28.4609 13.8146 28.7984 13.8919C28.6906 14.2388 28.5641 14.5763 28.4211 14.9091ZM26.0047 12.2724C26.2508 12.5396 26.4828 12.8208 26.6984 13.1114C26.2344 13.0903 25.768 13.0903 25.3039 13.1114C25.5336 12.8091 25.7703 12.5278 26.0047 12.2724ZM23.2859 10.8356C23.6797 10.606 24.5539 10.9341 25.475 11.7497C25.5336 11.8013 25.5922 11.8575 25.6531 11.9138C25.2898 12.3052 24.9547 12.7224 24.6477 13.1583C24.118 13.2052 23.593 13.2872 23.0727 13.4021C23.0422 13.2825 23.0164 13.1606 22.9906 13.0388C22.7703 11.9044 22.9156 11.0489 23.2859 10.8356ZM22.7117 17.0138C22.6133 16.9856 22.5172 16.9552 22.4211 16.9224C21.9219 16.7653 21.3547 16.5169 20.9445 16.1911C20.7078 16.0271 20.5484 15.7739 20.5039 15.4903C20.5039 15.0614 21.2445 14.513 22.3133 14.1403C22.4469 14.0935 22.5828 14.0513 22.7188 14.0114C22.8781 14.52 23.0703 15.0192 23.293 15.5021C23.068 15.9919 22.8734 16.4981 22.7117 17.0138ZM25.4445 19.3106C25.0578 19.6646 24.6102 19.9458 24.1227 20.138C23.8625 20.2622 23.5625 20.2739 23.2953 20.1685C22.9227 19.9528 22.768 19.1255 22.9789 18.0122C23.0047 17.881 23.0328 17.7497 23.0656 17.6208C23.5906 17.7333 24.1203 17.8106 24.657 17.8505C24.9664 18.2888 25.3062 18.7083 25.6695 19.1021C25.5945 19.1747 25.5195 19.245 25.4445 19.3106ZM26.0187 18.7411C25.7797 18.4833 25.5406 18.1974 25.3086 17.8903C25.5336 17.8997 25.7656 17.9044 26 17.9044C26.2414 17.9044 26.4781 17.8997 26.7125 17.888C26.4969 18.1856 26.2648 18.4692 26.0187 18.7411ZM29.082 19.4442C29.0609 19.7302 28.9203 19.9974 28.6953 20.1778C28.3227 20.3935 27.5281 20.1122 26.6703 19.3763C26.5719 19.2919 26.4734 19.2005 26.3727 19.1067C26.7312 18.7106 27.0617 18.2911 27.3617 17.8505C27.8984 17.806 28.4328 17.7239 28.9602 17.6044C28.9836 17.7005 29.0047 17.7966 29.0234 17.8903C29.1383 18.3966 29.157 18.9239 29.082 19.4442ZM29.5086 16.9247C29.443 16.9458 29.3773 16.9669 29.3094 16.9856C29.1453 16.4747 28.9438 15.9755 28.7117 15.4903C28.9367 15.0122 29.1266 14.52 29.2859 14.0161C29.4078 14.0513 29.525 14.0888 29.6375 14.1263C30.7297 14.5013 31.4961 15.0591 31.4961 15.4856C31.4961 15.945 30.6781 16.538 29.5086 16.9247ZM26 16.5731C26.593 16.5731 27.0734 16.0927 27.0734 15.4997C27.0734 14.9067 26.593 14.4263 26 14.4263C25.407 14.4263 24.9266 14.9067 24.9266 15.4997C24.9266 16.0927 25.407 16.5731 26 16.5731Z" fill="#61DBFB"/>
</svg>
