<svg width="120" height="30" viewBox="0 0 120 30" fill="none" xmlns="http://www.w3.org/2000/svg">
<rect width="120" height="30" rx="2" fill="#CC6699"/>
<circle cx="116" cy="26" r="3" stroke="black" stroke-opacity="0.3" stroke-width="0.2"/>
<path d="M118.178 27.694C118.046 27.832 117.911 27.931 117.773 27.991C117.635 28.051 117.482 28.081 117.314 28.081C117.08 28.081 116.9 28.024 116.774 27.91C116.648 27.79 116.528 27.58 116.414 27.28L116.072 26.398C116 26.236 115.931 26.119 115.865 26.047C115.799 25.969 115.691 25.93 115.541 25.93V26.902C115.541 27.178 115.562 27.376 115.604 27.496C115.652 27.61 115.76 27.742 115.928 27.892L115.865 28H114.245L114.182 27.838C114.332 27.796 114.44 27.757 114.506 27.721C114.572 27.679 114.617 27.625 114.641 27.559C114.665 27.493 114.677 27.391 114.677 27.253V24.913C114.677 24.625 114.653 24.424 114.605 24.31C114.563 24.19 114.458 24.058 114.29 23.914L114.362 23.797H115.928L115.991 23.941C115.799 24.043 115.676 24.139 115.622 24.229C115.568 24.319 115.541 24.472 115.541 24.688V25.804H115.568L116.639 24.589C116.693 24.523 116.729 24.466 116.747 24.418C116.771 24.364 116.786 24.304 116.792 24.238C116.792 24.196 116.768 24.115 116.72 23.995L116.666 23.896L116.783 23.797H117.845L117.899 23.959L117.692 24.022C117.524 24.094 117.365 24.214 117.215 24.382L115.955 25.822C116.267 25.846 116.513 25.912 116.693 26.02C116.873 26.122 117.005 26.275 117.089 26.479L117.503 27.523C117.533 27.601 117.569 27.658 117.611 27.694C117.653 27.724 117.707 27.739 117.773 27.739C117.869 27.739 117.98 27.691 118.106 27.595L118.178 27.694Z" fill="black" fill-opacity="0.3"/>
<path d="M50.952 20.091C50.3453 20.091 49.7993 19.987 49.314 19.779C48.8287 19.5623 48.4473 19.259 48.17 18.869C47.8927 18.479 47.754 18.024 47.754 17.504H49.34C49.3747 17.894 49.5263 18.2147 49.795 18.466C50.0723 18.7173 50.458 18.843 50.952 18.843C51.4633 18.843 51.862 18.7217 52.148 18.479C52.434 18.2277 52.577 17.907 52.577 17.517C52.577 17.2137 52.486 16.9667 52.304 16.776C52.1307 16.5853 51.9097 16.438 51.641 16.334C51.381 16.23 51.017 16.1173 50.549 15.996C49.9597 15.84 49.4787 15.684 49.106 15.528C48.742 15.3633 48.43 15.112 48.17 14.774C47.91 14.436 47.78 13.9853 47.78 13.422C47.78 12.902 47.91 12.447 48.17 12.057C48.43 11.667 48.794 11.368 49.262 11.16C49.73 10.952 50.2717 10.848 50.887 10.848C51.7623 10.848 52.4773 11.069 53.032 11.511C53.5953 11.9443 53.9073 12.5423 53.968 13.305H52.33C52.304 12.9757 52.148 12.694 51.862 12.46C51.576 12.226 51.199 12.109 50.731 12.109C50.3063 12.109 49.9597 12.2173 49.691 12.434C49.4223 12.6507 49.288 12.9627 49.288 13.37C49.288 13.6473 49.3703 13.877 49.535 14.059C49.7083 14.2323 49.925 14.371 50.185 14.475C50.445 14.579 50.8003 14.6917 51.251 14.813C51.849 14.9777 52.3343 15.1423 52.707 15.307C53.0883 15.4717 53.409 15.7273 53.669 16.074C53.9377 16.412 54.072 16.867 54.072 17.439C54.072 17.8983 53.9463 18.3317 53.695 18.739C53.4523 19.1463 53.0927 19.4757 52.616 19.727C52.148 19.9697 51.5933 20.091 50.952 20.091ZM55.3267 15.463C55.3267 14.579 55.5304 13.786 55.9377 13.084C56.3537 12.382 56.9127 11.836 57.6147 11.446C58.3254 11.0473 59.101 10.848 59.9417 10.848C60.9037 10.848 61.7574 11.0863 62.5027 11.563C63.2567 12.031 63.8027 12.6983 64.1407 13.565H62.3597C62.1257 13.0883 61.8007 12.733 61.3847 12.499C60.9687 12.265 60.4877 12.148 59.9417 12.148C59.3437 12.148 58.8107 12.2823 58.3427 12.551C57.8747 12.8197 57.5064 13.2053 57.2377 13.708C56.9777 14.2107 56.8477 14.7957 56.8477 15.463C56.8477 16.1303 56.9777 16.7153 57.2377 17.218C57.5064 17.7207 57.8747 18.1107 58.3427 18.388C58.8107 18.6567 59.3437 18.791 59.9417 18.791C60.4877 18.791 60.9687 18.674 61.3847 18.44C61.8007 18.206 62.1257 17.8507 62.3597 17.374H64.1407C63.8027 18.2407 63.2567 18.908 62.5027 19.376C61.7574 19.844 60.9037 20.078 59.9417 20.078C59.0924 20.078 58.3167 19.883 57.6147 19.493C56.9127 19.0943 56.3537 18.544 55.9377 17.842C55.5304 17.14 55.3267 16.347 55.3267 15.463ZM68.8524 20.091C68.2457 20.091 67.6997 19.987 67.2144 19.779C66.7291 19.5623 66.3477 19.259 66.0704 18.869C65.7931 18.479 65.6544 18.024 65.6544 17.504H67.2404C67.2751 17.894 67.4267 18.2147 67.6954 18.466C67.9727 18.7173 68.3584 18.843 68.8524 18.843C69.3637 18.843 69.7624 18.7217 70.0484 18.479C70.3344 18.2277 70.4774 17.907 70.4774 17.517C70.4774 17.2137 70.3864 16.9667 70.2044 16.776C70.0311 16.5853 69.8101 16.438 69.5414 16.334C69.2814 16.23 68.9174 16.1173 68.4494 15.996C67.8601 15.84 67.3791 15.684 67.0064 15.528C66.6424 15.3633 66.3304 15.112 66.0704 14.774C65.8104 14.436 65.6804 13.9853 65.6804 13.422C65.6804 12.902 65.8104 12.447 66.0704 12.057C66.3304 11.667 66.6944 11.368 67.1624 11.16C67.6304 10.952 68.1721 10.848 68.7874 10.848C69.6627 10.848 70.3777 11.069 70.9324 11.511C71.4957 11.9443 71.8077 12.5423 71.8684 13.305H70.2304C70.2044 12.9757 70.0484 12.694 69.7624 12.46C69.4764 12.226 69.0994 12.109 68.6314 12.109C68.2067 12.109 67.8601 12.2173 67.5914 12.434C67.3227 12.6507 67.1884 12.9627 67.1884 13.37C67.1884 13.6473 67.2707 13.877 67.4354 14.059C67.6087 14.2323 67.8254 14.371 68.0854 14.475C68.3454 14.579 68.7007 14.6917 69.1514 14.813C69.7494 14.9777 70.2347 15.1423 70.6074 15.307C70.9887 15.4717 71.3094 15.7273 71.5694 16.074C71.8381 16.412 71.9724 16.867 71.9724 17.439C71.9724 17.8983 71.8467 18.3317 71.5954 18.739C71.3527 19.1463 70.9931 19.4757 70.5164 19.727C70.0484 19.9697 69.4937 20.091 68.8524 20.091ZM76.6981 20.091C76.0914 20.091 75.5454 19.987 75.0601 19.779C74.5748 19.5623 74.1934 19.259 73.9161 18.869C73.6388 18.479 73.5001 18.024 73.5001 17.504H75.0861C75.1208 17.894 75.2724 18.2147 75.5411 18.466C75.8184 18.7173 76.2041 18.843 76.6981 18.843C77.2094 18.843 77.6081 18.7217 77.8941 18.479C78.1801 18.2277 78.3231 17.907 78.3231 17.517C78.3231 17.2137 78.2321 16.9667 78.0501 16.776C77.8768 16.5853 77.6558 16.438 77.3871 16.334C77.1271 16.23 76.7631 16.1173 76.2951 15.996C75.7058 15.84 75.2248 15.684 74.8521 15.528C74.4881 15.3633 74.1761 15.112 73.9161 14.774C73.6561 14.436 73.5261 13.9853 73.5261 13.422C73.5261 12.902 73.6561 12.447 73.9161 12.057C74.1761 11.667 74.5401 11.368 75.0081 11.16C75.4761 10.952 76.0178 10.848 76.6331 10.848C77.5084 10.848 78.2234 11.069 78.7781 11.511C79.3414 11.9443 79.6534 12.5423 79.7141 13.305H78.0761C78.0501 12.9757 77.8941 12.694 77.6081 12.46C77.3221 12.226 76.9451 12.109 76.4771 12.109C76.0524 12.109 75.7058 12.2173 75.4371 12.434C75.1684 12.6507 75.0341 12.9627 75.0341 13.37C75.0341 13.6473 75.1164 13.877 75.2811 14.059C75.4544 14.2323 75.6711 14.371 75.9311 14.475C76.1911 14.579 76.5464 14.6917 76.9971 14.813C77.5951 14.9777 78.0804 15.1423 78.4531 15.307C78.8344 15.4717 79.1551 15.7273 79.4151 16.074C79.6838 16.412 79.8181 16.867 79.8181 17.439C79.8181 17.8983 79.6924 18.3317 79.4411 18.739C79.1984 19.1463 78.8388 19.4757 78.3621 19.727C77.8941 19.9697 77.3394 20.091 76.6981 20.091Z" fill="white"/>
<circle cx="32" cy="15" r="8" fill="white"/>
<path d="M31.6595 17.3038C31.6539 17.315 31.6482 17.324 31.6595 17.3038V17.3038ZM36.3307 15.6725C35.9536 15.6724 35.5815 15.759 35.2432 15.9256C35.1326 15.7025 35.0182 15.5075 34.9995 15.3613C34.977 15.1906 34.9526 15.0894 34.9789 14.8869C35.0051 14.6844 35.1232 14.3975 35.1214 14.3769C35.1195 14.3562 35.0951 14.2531 34.8532 14.2512C34.6113 14.2494 34.4032 14.2981 34.379 14.3619C34.3363 14.4784 34.3031 14.5981 34.2797 14.72C34.2365 14.9394 33.7961 15.7231 33.5467 16.1319C33.4642 15.9725 33.3948 15.8319 33.3798 15.7194C33.3573 15.5488 33.333 15.4475 33.3592 15.245C33.3855 15.0425 33.5036 14.7556 33.5017 14.735C33.4998 14.7144 33.4755 14.6112 33.2338 14.6094C32.9921 14.6075 32.7838 14.6562 32.7594 14.72C32.735 14.7837 32.7088 14.9337 32.66 15.0781C32.6113 15.2225 32.0246 16.5275 31.871 16.8669C31.7923 17.0394 31.7248 17.1781 31.676 17.2719C31.6685 17.2869 31.6629 17.2963 31.6591 17.3038C31.6647 17.2944 31.6685 17.285 31.6685 17.2888C31.6272 17.3694 31.6029 17.4144 31.6029 17.4144V17.4163C31.571 17.4763 31.5354 17.5307 31.5185 17.5307C31.5072 17.5307 31.4829 17.3731 31.5241 17.1575C31.6122 16.7038 31.8204 15.9988 31.8185 15.9744C31.8166 15.9613 31.8579 15.8394 31.6816 15.7738C31.511 15.7119 31.4491 15.815 31.4341 15.815C31.4191 15.815 31.4079 15.8525 31.4079 15.8525C31.4079 15.8525 31.5972 15.0575 31.0443 15.0575C30.6993 15.0575 30.2193 15.4363 29.9834 15.7794C29.8353 15.86 29.5147 16.0344 29.1772 16.22C29.0478 16.2913 28.9147 16.3644 28.789 16.4338C28.7797 16.4244 28.7722 16.415 28.7628 16.4056C28.0917 15.6894 26.8527 15.1831 26.9052 14.2212C26.9239 13.8706 27.0458 12.95 29.2878 11.8325C31.1253 10.9174 32.5944 11.1687 32.8473 11.7275C33.2111 12.5243 32.0619 14.0075 30.1537 14.2212C29.4263 14.3019 29.044 14.0206 28.9484 13.9156C28.849 13.805 28.834 13.7994 28.7965 13.82C28.7347 13.8537 28.774 13.9512 28.7965 14.0094C28.8528 14.1575 29.0872 14.42 29.4863 14.5512C29.837 14.6656 30.6897 14.7294 31.7208 14.33C32.8792 13.8837 33.7809 12.6406 33.5165 11.6C33.2473 10.5424 31.4937 10.1956 29.8357 10.7843C28.8477 11.135 27.7793 11.6862 27.0108 12.4043C26.0978 13.2594 25.9517 14.0037 26.0117 14.315C26.2253 15.4194 27.7475 16.1394 28.3566 16.6719C28.3266 16.6888 28.2985 16.7038 28.2723 16.7188C27.9668 16.8706 26.8064 17.4782 26.5159 18.1194C26.1878 18.8469 26.5703 19.3682 26.8214 19.4394C27.605 19.6569 28.4073 19.265 28.8383 18.6219C29.2694 17.9788 29.2171 17.1388 29.0183 16.7563C29.0165 16.7506 29.0127 16.7469 29.0108 16.7413C29.0896 16.6944 29.1702 16.6475 29.2508 16.6006C29.4063 16.5088 29.5582 16.4244 29.6913 16.3513C29.6163 16.5538 29.5619 16.7975 29.5338 17.15C29.5 17.5625 29.6707 18.0969 29.8919 18.3069C29.9894 18.3988 30.1074 18.4007 30.1805 18.4007C30.4392 18.4007 30.5555 18.1869 30.6847 17.9319C30.8441 17.6207 30.9847 17.2588 30.9847 17.2588C30.9847 17.2588 30.8084 18.2375 31.2903 18.2375C31.4664 18.2375 31.6426 18.0107 31.7216 17.8944V17.8963C31.7216 17.8963 31.7253 17.8888 31.7347 17.8738C31.7534 17.8457 31.7628 17.8288 31.7628 17.8288V17.8232C31.8341 17.7013 31.9897 17.4219 32.2239 16.9606C32.5276 16.3644 32.8181 15.62 32.8181 15.62C32.8461 15.7836 32.885 15.9452 32.9343 16.1038C32.9868 16.2819 33.0975 16.4769 33.1856 16.6663C33.1143 16.7638 33.0712 16.82 33.0712 16.82C33.0713 16.8215 33.072 16.8228 33.0731 16.8238C33.0168 16.8988 32.9531 16.9794 32.8875 17.0581C32.6476 17.3431 32.3624 17.6694 32.3249 17.7632C32.2799 17.8738 32.2912 17.9563 32.3774 18.02C32.4412 18.0688 32.5537 18.0763 32.6716 18.0669C32.8873 18.0519 33.0391 17.9994 33.1123 17.9657C33.2471 17.9173 33.3745 17.8504 33.4908 17.7669C33.7252 17.5944 33.8677 17.3469 33.8546 17.0206C33.8471 16.8406 33.789 16.6606 33.7177 16.4919C33.7383 16.4619 33.7608 16.43 33.7815 16.3981C34.1525 15.8563 34.4394 15.2615 34.4394 15.2615C34.4675 15.4251 34.5063 15.5867 34.5557 15.7453C34.6007 15.8971 34.6886 16.064 34.7692 16.2271C34.4207 16.5103 34.205 16.8384 34.13 17.054C33.9913 17.4534 34.1 17.6334 34.3044 17.6747C34.3963 17.6934 34.5275 17.6503 34.625 17.609C34.7698 17.5608 34.9064 17.4906 35.0299 17.4009C35.2642 17.2284 35.4909 16.9865 35.4759 16.6584C35.4703 16.5103 35.429 16.3621 35.3747 16.2196C35.669 16.0959 36.0514 16.0284 36.5389 16.0846C37.5829 16.2065 37.7873 16.859 37.7479 17.1309C37.7085 17.4028 37.4891 17.5547 37.416 17.5997C37.3429 17.6447 37.3204 17.6615 37.326 17.6953C37.3354 17.744 37.3691 17.7422 37.431 17.7309C37.5173 17.7159 37.9783 17.5097 37.9989 17.0053C38.0289 16.3678 37.416 15.6665 36.3302 15.6721L36.3307 15.6725ZM28.2835 18.3857C27.9387 18.7625 27.455 18.905 27.247 18.785C27.0239 18.6553 27.112 18.1007 27.5375 17.699C27.7962 17.4553 28.1298 17.2303 28.351 17.0915C28.4016 17.0615 28.4748 17.0165 28.5648 16.9621C28.5798 16.9528 28.5873 16.949 28.5873 16.949C28.6042 16.9378 28.6229 16.9284 28.6417 16.9171C28.7971 17.4872 28.6473 17.9897 28.2835 18.3853V18.3857ZM30.8028 16.6719C30.6828 16.9663 30.4299 17.7163 30.2761 17.6769C30.1449 17.6432 30.0642 17.0713 30.2499 16.5088C30.3436 16.2256 30.5424 15.8881 30.6605 15.7569C30.8497 15.545 31.0578 15.4775 31.1066 15.5619C31.1722 15.6725 30.8778 16.4881 30.8028 16.6719ZM32.8841 17.6657C32.8335 17.6919 32.7866 17.7088 32.7641 17.6957C32.7472 17.6863 32.7847 17.6507 32.7847 17.6507C32.7847 17.6507 33.0453 17.3713 33.1485 17.2438C33.2085 17.1688 33.2778 17.0806 33.3526 16.9831C33.3526 16.9925 33.3545 17.0019 33.3545 17.0131C33.3521 17.3488 33.0298 17.5757 32.8835 17.6657H32.8841ZM34.4887 17.3C34.4512 17.2738 34.4568 17.1856 34.5825 16.9119C34.6312 16.805 34.7435 16.625 34.9387 16.4525C34.9608 16.5178 34.9728 16.5861 34.9743 16.655C34.9725 17.0769 34.6706 17.2344 34.4889 17.3H34.4887Z" fill="#FF0000"/>
</svg>
