<svg width="120" height="30" viewBox="0 0 120 30" fill="none" xmlns="http://www.w3.org/2000/svg">
<rect width="120" height="30" rx="2" fill="#00AFF0"/>
<circle cx="116" cy="26" r="3" stroke="black" stroke-opacity="0.3" stroke-width="0.2"/>
<path d="M118.178 27.694C118.046 27.832 117.911 27.931 117.773 27.991C117.635 28.051 117.482 28.081 117.314 28.081C117.08 28.081 116.9 28.024 116.774 27.91C116.648 27.79 116.528 27.58 116.414 27.28L116.072 26.398C116 26.236 115.931 26.119 115.865 26.047C115.799 25.969 115.691 25.93 115.541 25.93V26.902C115.541 27.178 115.562 27.376 115.604 27.496C115.652 27.61 115.76 27.742 115.928 27.892L115.865 28H114.245L114.182 27.838C114.332 27.796 114.44 27.757 114.506 27.721C114.572 27.679 114.617 27.625 114.641 27.559C114.665 27.493 114.677 27.391 114.677 27.253V24.913C114.677 24.625 114.653 24.424 114.605 24.31C114.563 24.19 114.458 24.058 114.29 23.914L114.362 23.797H115.928L115.991 23.941C115.799 24.043 115.676 24.139 115.622 24.229C115.568 24.319 115.541 24.472 115.541 24.688V25.804H115.568L116.639 24.589C116.693 24.523 116.729 24.466 116.747 24.418C116.771 24.364 116.786 24.304 116.792 24.238C116.792 24.196 116.768 24.115 116.72 23.995L116.666 23.896L116.783 23.797H117.845L117.899 23.959L117.692 24.022C117.524 24.094 117.365 24.214 117.215 24.382L115.955 25.822C116.267 25.846 116.513 25.912 116.693 26.02C116.873 26.122 117.005 26.275 117.089 26.479L117.503 27.523C117.533 27.601 117.569 27.658 117.611 27.694C117.653 27.724 117.707 27.739 117.773 27.739C117.869 27.739 117.98 27.691 118.106 27.595L118.178 27.694Z" fill="black" fill-opacity="0.3"/>
<path d="M55.952 20.091C55.3453 20.091 54.7993 19.987 54.314 19.779C53.8287 19.5623 53.4473 19.259 53.17 18.869C52.8927 18.479 52.754 18.024 52.754 17.504H54.34C54.3747 17.894 54.5263 18.2147 54.795 18.466C55.0723 18.7173 55.458 18.843 55.952 18.843C56.4633 18.843 56.862 18.7217 57.148 18.479C57.434 18.2277 57.577 17.907 57.577 17.517C57.577 17.2137 57.486 16.9667 57.304 16.776C57.1307 16.5853 56.9097 16.438 56.641 16.334C56.381 16.23 56.017 16.1173 55.549 15.996C54.9597 15.84 54.4787 15.684 54.106 15.528C53.742 15.3633 53.43 15.112 53.17 14.774C52.91 14.436 52.78 13.9853 52.78 13.422C52.78 12.902 52.91 12.447 53.17 12.057C53.43 11.667 53.794 11.368 54.262 11.16C54.73 10.952 55.2717 10.848 55.887 10.848C56.7623 10.848 57.4773 11.069 58.032 11.511C58.5953 11.9443 58.9073 12.5423 58.968 13.305H57.33C57.304 12.9757 57.148 12.694 56.862 12.46C56.576 12.226 56.199 12.109 55.731 12.109C55.3063 12.109 54.9597 12.2173 54.691 12.434C54.4223 12.6507 54.288 12.9627 54.288 13.37C54.288 13.6473 54.3703 13.877 54.535 14.059C54.7083 14.2323 54.925 14.371 55.185 14.475C55.445 14.579 55.8003 14.6917 56.251 14.813C56.849 14.9777 57.3343 15.1423 57.707 15.307C58.0883 15.4717 58.409 15.7273 58.669 16.074C58.9377 16.412 59.072 16.867 59.072 17.439C59.072 17.8983 58.9463 18.3317 58.695 18.739C58.4523 19.1463 58.0927 19.4757 57.616 19.727C57.148 19.9697 56.5933 20.091 55.952 20.091ZM65.7997 20L62.3027 15.957V20H60.8207V10.965H62.3027V15.086L65.8127 10.965H67.6717L63.7457 15.489L67.7367 20H65.7997ZM75.7423 10.965L72.7523 16.724V20H71.2703V16.724L68.2673 10.965H69.9183L72.0113 15.398L74.1043 10.965H75.7423ZM83.2364 13.656C83.2364 14.1153 83.128 14.5487 82.9114 14.956C82.6947 15.3633 82.348 15.697 81.8714 15.957C81.3947 16.2083 80.7837 16.334 80.0384 16.334H78.4004V20H76.9184V10.965H80.0384C80.7317 10.965 81.3167 11.0863 81.7934 11.329C82.2787 11.563 82.6384 11.8837 82.8724 12.291C83.115 12.6983 83.2364 13.1533 83.2364 13.656ZM80.0384 15.125C80.6017 15.125 81.022 14.9993 81.2994 14.748C81.5767 14.488 81.7154 14.124 81.7154 13.656C81.7154 12.668 81.1564 12.174 80.0384 12.174H78.4004V15.125H80.0384ZM86.1318 12.161V14.813H89.2518V16.022H86.1318V18.791H89.6418V20H84.6498V10.952H89.6418V12.161H86.1318Z" fill="white"/>
<circle cx="37" cy="15" r="8" fill="white"/>
<path d="M41.482 15.979C41.5468 15.6664 41.5869 15.3338 41.5869 15.0011C41.5869 12.4671 39.5352 10.4175 37.0033 10.4175C36.6707 10.4175 36.3402 10.4555 36.0254 10.5224C35.6012 10.1942 35.0743 10 34.5006 10C33.1208 10 32 11.1208 32 12.5006C32 13.0743 32.1942 13.6012 32.5202 14.0232C32.4555 14.3358 32.4153 14.6684 32.4153 15.0011C32.4153 17.5352 34.4671 19.5847 36.9989 19.5847C37.3315 19.5847 37.662 19.5468 37.9768 19.4798C38.401 19.8057 38.9279 20 39.4994 20C40.8792 20 42 18.8792 42 17.4994C42.0022 16.9279 41.808 16.401 41.482 15.979ZM37.1373 18.0219C35.6727 18.0219 34.447 17.3699 34.447 16.5707C34.447 16.2134 34.6479 15.8875 35.1056 15.8875C35.8022 15.8875 35.8669 16.8899 37.0726 16.8899C37.6463 16.8899 38.017 16.6354 38.017 16.3027C38.017 15.8852 37.6597 15.8205 37.0792 15.6776C35.6839 15.3338 34.4492 15.1864 34.4492 13.7307C34.4492 12.409 35.7575 11.9201 36.885 11.9201C38.1152 11.9201 39.3588 12.409 39.3588 13.1569C39.3588 13.5343 39.1043 13.8669 38.6823 13.8669C38.0504 13.8669 38.0304 13.119 37.0078 13.119C36.434 13.119 36.0701 13.2753 36.0701 13.6213C36.0701 14.0634 36.5345 14.1081 37.6128 14.3581C38.5372 14.5657 39.6379 14.9565 39.6379 16.0906C39.6379 17.4101 38.363 18.0219 37.1373 18.0219Z" fill="#00AFF0"/>
</svg>
