<svg width="121" height="30" viewBox="0 0 121 30" fill="none" xmlns="http://www.w3.org/2000/svg">
<rect width="120" height="30" rx="2" fill="#00ACEE"/>
<circle cx="117" cy="26" r="3" stroke="black" stroke-opacity="0.3" stroke-width="0.2"/>
<path d="M119.178 27.694C119.046 27.832 118.911 27.931 118.773 27.991C118.635 28.051 118.482 28.081 118.314 28.081C118.08 28.081 117.9 28.024 117.774 27.91C117.648 27.79 117.528 27.58 117.414 27.28L117.072 26.398C117 26.236 116.931 26.119 116.865 26.047C116.799 25.969 116.691 25.93 116.541 25.93V26.902C116.541 27.178 116.562 27.376 116.604 27.496C116.652 27.61 116.76 27.742 116.928 27.892L116.865 28H115.245L115.182 27.838C115.332 27.796 115.44 27.757 115.506 27.721C115.572 27.679 115.617 27.625 115.641 27.559C115.665 27.493 115.677 27.391 115.677 27.253V24.913C115.677 24.625 115.653 24.424 115.605 24.31C115.563 24.19 115.458 24.058 115.29 23.914L115.362 23.797H116.928L116.991 23.941C116.799 24.043 116.676 24.139 116.622 24.229C116.568 24.319 116.541 24.472 116.541 24.688V25.804H116.568L117.639 24.589C117.693 24.523 117.729 24.466 117.747 24.418C117.771 24.364 117.786 24.304 117.792 24.238C117.792 24.196 117.768 24.115 117.72 23.995L117.666 23.896L117.783 23.797H118.845L118.899 23.959L118.692 24.022C118.524 24.094 118.365 24.214 118.215 24.382L116.955 25.822C117.267 25.846 117.513 25.912 117.693 26.02C117.873 26.122 118.005 26.275 118.089 26.479L118.503 27.523C118.533 27.601 118.569 27.658 118.611 27.694C118.653 27.724 118.707 27.739 118.773 27.739C118.869 27.739 118.98 27.691 119.106 27.595L119.178 27.694Z" fill="black" fill-opacity="0.3"/>
<path d="M50.812 10.965V12.174H48.407V20H46.925V12.174H44.507V10.965H50.812ZM64.0779 10.965L61.3999 20H59.7229L57.8249 13.162L55.8099 20L54.1459 20.013L51.5849 10.965H53.1579L55.0299 18.323L57.0579 10.965H58.7219L60.6069 18.284L62.4919 10.965H64.0779ZM66.7822 10.965V20H65.3002V10.965H66.7822ZM74.5649 10.965V12.174H72.1599V20H70.6779V12.174H68.2599V10.965H74.5649ZM81.9028 10.965V12.174H79.4978V20H78.0158V12.174H75.5978V10.965H81.9028ZM84.8857 12.161V14.813H88.0057V16.022H84.8857V18.791H88.3957V20H83.4037V10.952H88.3957V12.161H84.8857ZM94.9141 20L92.8341 16.386H91.7031V20H90.2211V10.965H93.3411C94.0344 10.965 94.6194 11.0863 95.0961 11.329C95.5814 11.5717 95.9411 11.8967 96.1751 12.304C96.4178 12.7113 96.5391 13.1663 96.5391 13.669C96.5391 14.2583 96.3658 14.7957 96.0191 15.281C95.6811 15.7577 95.1568 16.0827 94.4461 16.256L96.6821 20H94.9141ZM91.7031 15.203H93.3411C93.8958 15.203 94.3118 15.0643 94.5891 14.787C94.8751 14.5097 95.0181 14.137 95.0181 13.669C95.0181 13.201 94.8794 12.837 94.6021 12.577C94.3248 12.3083 93.9044 12.174 93.3411 12.174H91.7031V15.203Z" fill="white"/>
<circle cx="29" cy="15" r="8" fill="white"/>
<path d="M33.7665 13.3069C33.7741 13.4135 33.7741 13.5201 33.7741 13.6267C33.7741 16.8779 31.2995 20.6241 26.7767 20.6241C25.3833 20.6241 24.0888 20.2206 23 19.5201C23.198 19.5429 23.3883 19.5505 23.5939 19.5505C24.7436 19.5505 25.802 19.1622 26.6472 18.4998C25.566 18.4769 24.6599 17.7688 24.3477 16.7942C24.5 16.817 24.6523 16.8322 24.8122 16.8322C25.033 16.8322 25.2538 16.8018 25.4594 16.7485C24.3325 16.5201 23.4873 15.5302 23.4873 14.3348V14.3043C23.8147 14.4871 24.1954 14.6013 24.599 14.6165C23.9365 14.1749 23.5025 13.4211 23.5025 12.5683C23.5025 12.1114 23.6243 11.6926 23.8375 11.3272C25.0482 12.8195 26.868 13.7942 28.9086 13.9008C28.8706 13.718 28.8477 13.5277 28.8477 13.3373C28.8477 11.982 29.9442 10.8779 31.3071 10.8779C32.0152 10.8779 32.6548 11.1749 33.1041 11.6546C33.6599 11.548 34.1929 11.3424 34.665 11.0607C34.4822 11.6318 34.0939 12.1115 33.5838 12.416C34.0787 12.3627 34.5584 12.2256 35 12.0353C34.665 12.5226 34.2462 12.9566 33.7665 13.3069Z" fill="#00ACEE"/>
</svg>
