<svg width="120" height="30" viewBox="0 0 120 30" fill="none" xmlns="http://www.w3.org/2000/svg">
<rect width="120" height="30" rx="2" fill="#282828"/>
<ellipse cx="115.5" cy="26" rx="3.5" ry="3" stroke="black" stroke-opacity="0.3" stroke-width="0.2"/>
<path d="M117.678 27.694C117.546 27.832 117.411 27.931 117.273 27.991C117.135 28.051 116.982 28.081 116.814 28.081C116.58 28.081 116.4 28.024 116.274 27.91C116.148 27.79 116.028 27.58 115.914 27.28L115.572 26.398C115.5 26.236 115.431 26.119 115.365 26.047C115.299 25.969 115.191 25.93 115.041 25.93V26.902C115.041 27.178 115.062 27.376 115.104 27.496C115.152 27.61 115.26 27.742 115.428 27.892L115.365 28H113.745L113.682 27.838C113.832 27.796 113.94 27.757 114.006 27.721C114.072 27.679 114.117 27.625 114.141 27.559C114.165 27.493 114.177 27.391 114.177 27.253V24.913C114.177 24.625 114.153 24.424 114.105 24.31C114.063 24.19 113.958 24.058 113.79 23.914L113.862 23.797H115.428L115.491 23.941C115.299 24.043 115.176 24.139 115.122 24.229C115.068 24.319 115.041 24.472 115.041 24.688V25.804H115.068L116.139 24.589C116.193 24.523 116.229 24.466 116.247 24.418C116.271 24.364 116.286 24.304 116.292 24.238C116.292 24.196 116.268 24.115 116.22 23.995L116.166 23.896L116.283 23.797H117.345L117.399 23.959L117.192 24.022C117.024 24.094 116.865 24.214 116.715 24.382L115.455 25.822C115.767 25.846 116.013 25.912 116.193 26.02C116.373 26.122 116.505 26.275 116.589 26.479L117.003 27.523C117.033 27.601 117.069 27.658 117.111 27.694C117.153 27.724 117.207 27.739 117.273 27.739C117.369 27.739 117.48 27.691 117.606 27.595L117.678 27.694Z" fill="black" fill-opacity="0.3"/>
<path d="M49.67 10.965L46.68 16.724V20H45.198V16.724L42.195 10.965H43.846L45.939 15.398L48.032 10.965H49.67ZM54.9671 20.091C54.1264 20.091 53.3508 19.896 52.6401 19.506C51.9381 19.1073 51.3791 18.557 50.9631 17.855C50.5558 17.1443 50.3521 16.347 50.3521 15.463C50.3521 14.579 50.5558 13.786 50.9631 13.084C51.3791 12.382 51.9381 11.836 52.6401 11.446C53.3508 11.0473 54.1264 10.848 54.9671 10.848C55.8164 10.848 56.5921 11.0473 57.2941 11.446C58.0048 11.836 58.5638 12.382 58.9711 13.084C59.3784 13.786 59.5821 14.579 59.5821 15.463C59.5821 16.347 59.3784 17.1443 58.9711 17.855C58.5638 18.557 58.0048 19.1073 57.2941 19.506C56.5921 19.896 55.8164 20.091 54.9671 20.091ZM54.9671 18.804C55.5651 18.804 56.0981 18.6697 56.5661 18.401C57.0341 18.1237 57.3981 17.7337 57.6581 17.231C57.9268 16.7197 58.0611 16.1303 58.0611 15.463C58.0611 14.7957 57.9268 14.2107 57.6581 13.708C57.3981 13.2053 57.0341 12.8197 56.5661 12.551C56.0981 12.2823 55.5651 12.148 54.9671 12.148C54.3691 12.148 53.8361 12.2823 53.3681 12.551C52.9001 12.8197 52.5318 13.2053 52.2631 13.708C52.0031 14.2107 51.8731 14.7957 51.8731 15.463C51.8731 16.1303 52.0031 16.7197 52.2631 17.231C52.5318 17.7337 52.9001 18.1237 53.3681 18.401C53.8361 18.6697 54.3691 18.804 54.9671 18.804ZM62.5094 10.965V16.724C62.5094 17.4087 62.6871 17.9243 63.0424 18.271C63.4064 18.6177 63.9091 18.791 64.5504 18.791C65.2004 18.791 65.7031 18.6177 66.0584 18.271C66.4224 17.9243 66.6044 17.4087 66.6044 16.724V10.965H68.0864V16.698C68.0864 17.4347 67.9261 18.0587 67.6054 18.57C67.2848 19.0813 66.8558 19.4627 66.3184 19.714C65.7811 19.9653 65.1874 20.091 64.5374 20.091C63.8874 20.091 63.2938 19.9653 62.7564 19.714C62.2278 19.4627 61.8074 19.0813 61.4954 18.57C61.1834 18.0587 61.0274 17.4347 61.0274 16.698V10.965H62.5094ZM75.853 10.965V12.174H73.448V20H71.966V12.174H69.548V10.965H75.853ZM78.8229 10.965V16.724C78.8229 17.4087 79.0006 17.9243 79.3559 18.271C79.7199 18.6177 80.2226 18.791 80.8639 18.791C81.5139 18.791 82.0166 18.6177 82.3719 18.271C82.7359 17.9243 82.9179 17.4087 82.9179 16.724V10.965H84.3999V16.698C84.3999 17.4347 84.2396 18.0587 83.9189 18.57C83.5982 19.0813 83.1692 19.4627 82.6319 19.714C82.0946 19.9653 81.5009 20.091 80.8509 20.091C80.2009 20.091 79.6072 19.9653 79.0699 19.714C78.5412 19.4627 78.1209 19.0813 77.8089 18.57C77.4969 18.0587 77.3409 17.4347 77.3409 16.698V10.965H78.8229ZM91.1655 15.359C91.6508 15.4457 92.0625 15.7013 92.4005 16.126C92.7385 16.5507 92.9075 17.0317 92.9075 17.569C92.9075 18.0283 92.7862 18.4443 92.5435 18.817C92.3095 19.181 91.9672 19.4713 91.5165 19.688C91.0658 19.896 90.5415 20 89.9435 20H86.3295V10.965H89.7745C90.3898 10.965 90.9185 11.069 91.3605 11.277C91.8025 11.485 92.1362 11.7667 92.3615 12.122C92.5868 12.4687 92.6995 12.8587 92.6995 13.292C92.6995 13.812 92.5608 14.2453 92.2835 14.592C92.0062 14.9387 91.6335 15.1943 91.1655 15.359ZM87.8115 14.761H89.6445C90.1298 14.761 90.5068 14.6527 90.7755 14.436C91.0528 14.2107 91.1915 13.89 91.1915 13.474C91.1915 13.0667 91.0528 12.7503 90.7755 12.525C90.5068 12.291 90.1298 12.174 89.6445 12.174H87.8115V14.761ZM89.8135 18.791C90.3162 18.791 90.7105 18.6697 90.9965 18.427C91.2825 18.1843 91.4255 17.8463 91.4255 17.413C91.4255 16.971 91.2738 16.62 90.9705 16.36C90.6672 16.1 90.2642 15.97 89.7615 15.97H87.8115V18.791H89.8135ZM96 12.161V14.813H99.12V16.022H96V18.791H99.51V20H94.518V10.952H99.51V12.161H96Z" fill="white"/>
<circle cx="27" cy="15" r="8" fill="white"/>
<path d="M32.7492 12.2889C32.6112 11.7693 32.2046 11.36 31.6883 11.2211C30.7525 10.9688 27 10.9688 27 10.9688C27 10.9688 23.2475 10.9688 22.3117 11.2211C21.7954 11.36 21.3888 11.7693 21.2508 12.2889C21 13.2308 21 15.196 21 15.196C21 15.196 21 17.1612 21.2508 18.1031C21.3888 18.6228 21.7954 19.015 22.3117 19.1539C23.2475 19.4062 27 19.4062 27 19.4062C27 19.4062 30.7525 19.4062 31.6883 19.1539C32.2046 19.015 32.6112 18.6228 32.7492 18.1031C33 17.1612 33 15.196 33 15.196C33 15.196 33 13.2308 32.7492 12.2889ZM25.7727 16.9803V13.4118L28.9091 15.1961L25.7727 16.9803Z" fill="#FF0000"/>
</svg>
