<svg width="120" height="30" viewBox="0 0 120 30" fill="none" xmlns="http://www.w3.org/2000/svg">
<rect width="120" height="30" rx="2" fill="black"/>
<ellipse cx="115.5" cy="26" rx="3.5" ry="3" stroke="black" stroke-opacity="0.3" stroke-width="0.2"/>
<path d="M117.678 27.694C117.546 27.832 117.411 27.931 117.273 27.991C117.135 28.051 116.982 28.081 116.814 28.081C116.58 28.081 116.4 28.024 116.274 27.91C116.148 27.79 116.028 27.58 115.914 27.28L115.572 26.398C115.5 26.236 115.431 26.119 115.365 26.047C115.299 25.969 115.191 25.93 115.041 25.93V26.902C115.041 27.178 115.062 27.376 115.104 27.496C115.152 27.61 115.26 27.742 115.428 27.892L115.365 28H113.745L113.682 27.838C113.832 27.796 113.94 27.757 114.006 27.721C114.072 27.679 114.117 27.625 114.141 27.559C114.165 27.493 114.177 27.391 114.177 27.253V24.913C114.177 24.625 114.153 24.424 114.105 24.31C114.063 24.19 113.958 24.058 113.79 23.914L113.862 23.797H115.428L115.491 23.941C115.299 24.043 115.176 24.139 115.122 24.229C115.068 24.319 115.041 24.472 115.041 24.688V25.804H115.068L116.139 24.589C116.193 24.523 116.229 24.466 116.247 24.418C116.271 24.364 116.286 24.304 116.292 24.238C116.292 24.196 116.268 24.115 116.22 23.995L116.166 23.896L116.283 23.797H117.345L117.399 23.959L117.192 24.022C117.024 24.094 116.865 24.214 116.715 24.382L115.455 25.822C115.767 25.846 116.013 25.912 116.193 26.02C116.373 26.122 116.505 26.275 116.589 26.479L117.003 27.523C117.033 27.601 117.069 27.658 117.111 27.694C117.153 27.724 117.207 27.739 117.273 27.739C117.369 27.739 117.48 27.691 117.606 27.595L117.678 27.694Z" fill="black" fill-opacity="0.3"/>
<path d="M51.525 14.75C51.525 13.72 51.755 12.8 52.215 11.99C52.685 11.17 53.32 10.535 54.12 10.085C54.93 9.625 55.835 9.395 56.835 9.395C58.005 9.395 59.03 9.695 59.91 10.295C60.79 10.895 61.405 11.725 61.755 12.785H59.34C59.1 12.285 58.76 11.91 58.32 11.66C57.89 11.41 57.39 11.285 56.82 11.285C56.21 11.285 55.665 11.43 55.185 11.72C54.715 12 54.345 12.4 54.075 12.92C53.815 13.44 53.685 14.05 53.685 14.75C53.685 15.44 53.815 16.05 54.075 16.58C54.345 17.1 54.715 17.505 55.185 17.795C55.665 18.075 56.21 18.215 56.82 18.215C57.39 18.215 57.89 18.09 58.32 17.84C58.76 17.58 59.1 17.2 59.34 16.7H61.755C61.405 17.77 60.79 18.605 59.91 19.205C59.04 19.795 58.015 20.09 56.835 20.09C55.835 20.09 54.93 19.865 54.12 19.415C53.32 18.955 52.685 18.32 52.215 17.51C51.755 16.7 51.525 15.78 51.525 14.75ZM67.1637 20.105C66.4337 20.105 65.7737 19.98 65.1837 19.73C64.6037 19.48 64.1437 19.12 63.8037 18.65C63.4637 18.18 63.2887 17.625 63.2787 16.985H65.5287C65.5587 17.415 65.7087 17.755 65.9787 18.005C66.2587 18.255 66.6387 18.38 67.1187 18.38C67.6087 18.38 67.9937 18.265 68.2737 18.035C68.5537 17.795 68.6937 17.485 68.6937 17.105C68.6937 16.795 68.5987 16.54 68.4087 16.34C68.2187 16.14 67.9787 15.985 67.6887 15.875C67.4087 15.755 67.0187 15.625 66.5187 15.485C65.8387 15.285 65.2837 15.09 64.8537 14.9C64.4337 14.7 64.0687 14.405 63.7587 14.015C63.4587 13.615 63.3087 13.085 63.3087 12.425C63.3087 11.805 63.4637 11.265 63.7737 10.805C64.0837 10.345 64.5187 9.995 65.0787 9.755C65.6387 9.505 66.2787 9.38 66.9987 9.38C68.0787 9.38 68.9537 9.645 69.6237 10.175C70.3037 10.695 70.6787 11.425 70.7487 12.365H68.4387C68.4187 12.005 68.2637 11.71 67.9737 11.48C67.6937 11.24 67.3187 11.12 66.8487 11.12C66.4387 11.12 66.1087 11.225 65.8587 11.435C65.6187 11.645 65.4987 11.95 65.4987 12.35C65.4987 12.63 65.5887 12.865 65.7687 13.055C65.9587 13.235 66.1887 13.385 66.4587 13.505C66.7387 13.615 67.1287 13.745 67.6287 13.895C68.3087 14.095 68.8637 14.295 69.2937 14.495C69.7237 14.695 70.0937 14.995 70.4037 15.395C70.7137 15.795 70.8687 16.32 70.8687 16.97C70.8687 17.53 70.7237 18.05 70.4337 18.53C70.1437 19.01 69.7187 19.395 69.1587 19.685C68.5987 19.965 67.9337 20.105 67.1637 20.105ZM76.3043 20.105C75.5743 20.105 74.9143 19.98 74.3243 19.73C73.7443 19.48 73.2843 19.12 72.9443 18.65C72.6043 18.18 72.4293 17.625 72.4193 16.985H74.6693C74.6993 17.415 74.8493 17.755 75.1193 18.005C75.3993 18.255 75.7793 18.38 76.2593 18.38C76.7493 18.38 77.1343 18.265 77.4143 18.035C77.6943 17.795 77.8343 17.485 77.8343 17.105C77.8343 16.795 77.7393 16.54 77.5493 16.34C77.3593 16.14 77.1193 15.985 76.8293 15.875C76.5493 15.755 76.1593 15.625 75.6593 15.485C74.9793 15.285 74.4243 15.09 73.9943 14.9C73.5743 14.7 73.2093 14.405 72.8993 14.015C72.5993 13.615 72.4493 13.085 72.4493 12.425C72.4493 11.805 72.6043 11.265 72.9143 10.805C73.2243 10.345 73.6593 9.995 74.2193 9.755C74.7793 9.505 75.4193 9.38 76.1393 9.38C77.2193 9.38 78.0943 9.645 78.7643 10.175C79.4443 10.695 79.8193 11.425 79.8893 12.365H77.5793C77.5593 12.005 77.4043 11.71 77.1143 11.48C76.8343 11.24 76.4593 11.12 75.9893 11.12C75.5793 11.12 75.2493 11.225 74.9993 11.435C74.7593 11.645 74.6393 11.95 74.6393 12.35C74.6393 12.63 74.7293 12.865 74.9093 13.055C75.0993 13.235 75.3293 13.385 75.5993 13.505C75.8793 13.615 76.2693 13.745 76.7693 13.895C77.4493 14.095 78.0043 14.295 78.4343 14.495C78.8643 14.695 79.2343 14.995 79.5443 15.395C79.8543 15.795 80.0093 16.32 80.0093 16.97C80.0093 17.53 79.8643 18.05 79.5743 18.53C79.2843 19.01 78.8593 19.395 78.2993 19.685C77.7393 19.965 77.0743 20.105 76.3043 20.105ZM81.6199 11.945C81.6699 10.945 82.0199 10.175 82.6699 9.635C83.3299 9.085 84.1949 8.81 85.2649 8.81C85.9949 8.81 86.6199 8.94 87.1399 9.2C87.6599 9.45 88.0499 9.795 88.3099 10.235C88.5799 10.665 88.7149 11.155 88.7149 11.705C88.7149 12.335 88.5499 12.87 88.2199 13.31C87.8999 13.74 87.5149 14.03 87.0649 14.18V14.24C87.6449 14.42 88.0949 14.74 88.4149 15.2C88.7449 15.66 88.9099 16.25 88.9099 16.97C88.9099 17.57 88.7699 18.105 88.4899 18.575C88.2199 19.045 87.8149 19.415 87.2749 19.685C86.7449 19.945 86.1049 20.075 85.3549 20.075C84.2249 20.075 83.3049 19.79 82.5949 19.22C81.8849 18.65 81.5099 17.81 81.4699 16.7H83.5099C83.5299 17.19 83.6949 17.585 84.0049 17.885C84.3249 18.175 84.7599 18.32 85.3099 18.32C85.8199 18.32 86.2099 18.18 86.4799 17.9C86.7599 17.61 86.8999 17.24 86.8999 16.79C86.8999 16.19 86.7099 15.76 86.3299 15.5C85.9499 15.24 85.3599 15.11 84.5599 15.11H84.1249V13.385H84.5599C85.9799 13.385 86.6899 12.91 86.6899 11.96C86.6899 11.53 86.5599 11.195 86.2999 10.955C86.0499 10.715 85.6849 10.595 85.2049 10.595C84.7349 10.595 84.3699 10.725 84.1099 10.985C83.8599 11.235 83.7149 11.555 83.6749 11.945H81.6199Z" fill="white"/>
<circle cx="17" cy="15" r="12" fill="white"/>
<path d="M24.5 8.50098L22.5 20.001L15.5219 22.501L9.5 20.001L10.1125 17.0385H12.675L12.425 18.3072L16.0625 19.6947L20.2531 18.3072L20.8406 15.2729H10.4219L10.9219 12.7104H21.35L21.6781 11.0635H11.2594L11.7687 8.50098H24.5Z" fill="#2965F1"/>
</svg>
