<svg width="133" height="30" viewBox="0 0 133 30" fill="none" xmlns="http://www.w3.org/2000/svg">
<rect width="133" height="30" rx="2" fill="#303030"/>
<circle cx="129" cy="26" r="3" stroke="black" stroke-opacity="0.3" stroke-width="0.2"/>
<path d="M131.178 27.694C131.046 27.832 130.911 27.931 130.773 27.991C130.635 28.051 130.482 28.081 130.314 28.081C130.08 28.081 129.9 28.024 129.774 27.91C129.648 27.79 129.528 27.58 129.414 27.28L129.072 26.398C129 26.236 128.931 26.119 128.865 26.047C128.799 25.969 128.691 25.93 128.541 25.93V26.902C128.541 27.178 128.562 27.376 128.604 27.496C128.652 27.61 128.76 27.742 128.928 27.892L128.865 28H127.245L127.182 27.838C127.332 27.796 127.44 27.757 127.506 27.721C127.572 27.679 127.617 27.625 127.641 27.559C127.665 27.493 127.677 27.391 127.677 27.253V24.913C127.677 24.625 127.653 24.424 127.605 24.31C127.563 24.19 127.458 24.058 127.29 23.914L127.362 23.797H128.928L128.991 23.941C128.799 24.043 128.676 24.139 128.622 24.229C128.568 24.319 128.541 24.472 128.541 24.688V25.804H128.568L129.639 24.589C129.693 24.523 129.729 24.466 129.747 24.418C129.771 24.364 129.786 24.304 129.792 24.238C129.792 24.196 129.768 24.115 129.72 23.995L129.666 23.896L129.783 23.797H130.845L130.899 23.959L130.692 24.022C130.524 24.094 130.365 24.214 130.215 24.382L128.955 25.822C129.267 25.846 129.513 25.912 129.693 26.02C129.873 26.122 130.005 26.275 130.089 26.479L130.503 27.523C130.533 27.601 130.569 27.658 130.611 27.694C130.653 27.724 130.707 27.739 130.773 27.739C130.869 27.739 130.98 27.691 131.106 27.595L131.178 27.694Z" fill="black" fill-opacity="0.3"/>
<path d="M44.135 11.225V13.85H47.66V15.515H44.135V18.29H48.11V20H42.035V9.515H48.11V11.225H44.135ZM54.6084 20L52.8984 17.42L51.3834 20H49.1334L51.8484 15.83L49.1034 11.69H51.4734L53.1684 14.255L54.6984 11.69H56.9484L54.2184 15.83L56.9784 20H54.6084ZM60.219 12.89C60.489 12.51 60.859 12.195 61.329 11.945C61.809 11.685 62.354 11.555 62.964 11.555C63.674 11.555 64.314 11.73 64.884 12.08C65.464 12.43 65.919 12.93 66.249 13.58C66.589 14.22 66.759 14.965 66.759 15.815C66.759 16.665 66.589 17.42 66.249 18.08C65.919 18.73 65.464 19.235 64.884 19.595C64.314 19.955 63.674 20.135 62.964 20.135C62.354 20.135 61.814 20.01 61.344 19.76C60.884 19.51 60.509 19.195 60.219 18.815V23.96H58.119V11.69H60.219V12.89ZM64.614 15.815C64.614 15.315 64.509 14.885 64.299 14.525C64.099 14.155 63.829 13.875 63.489 13.685C63.159 13.495 62.799 13.4 62.409 13.4C62.029 13.4 61.669 13.5 61.329 13.7C60.999 13.89 60.729 14.17 60.519 14.54C60.319 14.91 60.219 15.345 60.219 15.845C60.219 16.345 60.319 16.78 60.519 17.15C60.729 17.52 60.999 17.805 61.329 18.005C61.669 18.195 62.029 18.29 62.409 18.29C62.799 18.29 63.159 18.19 63.489 17.99C63.829 17.79 64.099 17.505 64.299 17.135C64.509 16.765 64.614 16.325 64.614 15.815ZM70.385 12.98C70.655 12.54 71.005 12.195 71.435 11.945C71.875 11.695 72.375 11.57 72.935 11.57V13.775H72.38C71.72 13.775 71.22 13.93 70.88 14.24C70.55 14.55 70.385 15.09 70.385 15.86V20H68.285V11.69H70.385V12.98ZM82.0745 15.665C82.0745 15.965 82.0545 16.235 82.0145 16.475H75.9395C75.9895 17.075 76.1995 17.545 76.5695 17.885C76.9395 18.225 77.3945 18.395 77.9345 18.395C78.7145 18.395 79.2695 18.06 79.5995 17.39H81.8645C81.6245 18.19 81.1645 18.85 80.4845 19.37C79.8045 19.88 78.9695 20.135 77.9795 20.135C77.1795 20.135 76.4595 19.96 75.8195 19.61C75.1895 19.25 74.6945 18.745 74.3345 18.095C73.9845 17.445 73.8095 16.695 73.8095 15.845C73.8095 14.985 73.9845 14.23 74.3345 13.58C74.6845 12.93 75.1745 12.43 75.8045 12.08C76.4345 11.73 77.1595 11.555 77.9795 11.555C78.7695 11.555 79.4745 11.725 80.0945 12.065C80.7245 12.405 81.2095 12.89 81.5495 13.52C81.8995 14.14 82.0745 14.855 82.0745 15.665ZM79.8995 15.065C79.8895 14.525 79.6945 14.095 79.3145 13.775C78.9345 13.445 78.4695 13.28 77.9195 13.28C77.3995 13.28 76.9595 13.44 76.5995 13.76C76.2495 14.07 76.0345 14.505 75.9545 15.065H79.8995ZM86.7873 20.135C86.1073 20.135 85.4973 20.015 84.9573 19.775C84.4173 19.525 83.9873 19.19 83.6673 18.77C83.3573 18.35 83.1873 17.885 83.1573 17.375H85.2723C85.3123 17.695 85.4673 17.96 85.7373 18.17C86.0173 18.38 86.3623 18.485 86.7723 18.485C87.1723 18.485 87.4823 18.405 87.7023 18.245C87.9323 18.085 88.0473 17.88 88.0473 17.63C88.0473 17.36 87.9073 17.16 87.6273 17.03C87.3573 16.89 86.9223 16.74 86.3223 16.58C85.7023 16.43 85.1923 16.275 84.7923 16.115C84.4023 15.955 84.0623 15.71 83.7723 15.38C83.4923 15.05 83.3523 14.605 83.3523 14.045C83.3523 13.585 83.4823 13.165 83.7423 12.785C84.0123 12.405 84.3923 12.105 84.8823 11.885C85.3823 11.665 85.9673 11.555 86.6373 11.555C87.6273 11.555 88.4173 11.805 89.0073 12.305C89.5973 12.795 89.9223 13.46 89.9823 14.3H87.9723C87.9423 13.97 87.8023 13.71 87.5523 13.52C87.3123 13.32 86.9873 13.22 86.5773 13.22C86.1973 13.22 85.9023 13.29 85.6923 13.43C85.4923 13.57 85.3923 13.765 85.3923 14.015C85.3923 14.295 85.5323 14.51 85.8123 14.66C86.0923 14.8 86.5273 14.945 87.1173 15.095C87.7173 15.245 88.2123 15.4 88.6023 15.56C88.9923 15.72 89.3273 15.97 89.6073 16.31C89.8973 16.64 90.0473 17.08 90.0573 17.63C90.0573 18.11 89.9223 18.54 89.6523 18.92C89.3923 19.3 89.0123 19.6 88.5123 19.82C88.0223 20.03 87.4473 20.135 86.7873 20.135ZM94.9611 20.135C94.2811 20.135 93.6711 20.015 93.1311 19.775C92.5911 19.525 92.1611 19.19 91.8411 18.77C91.5311 18.35 91.3611 17.885 91.3311 17.375H93.4461C93.4861 17.695 93.6411 17.96 93.9111 18.17C94.1911 18.38 94.5361 18.485 94.9461 18.485C95.3461 18.485 95.6561 18.405 95.8761 18.245C96.1061 18.085 96.2211 17.88 96.2211 17.63C96.2211 17.36 96.0811 17.16 95.8011 17.03C95.5311 16.89 95.0961 16.74 94.4961 16.58C93.8761 16.43 93.3661 16.275 92.9661 16.115C92.5761 15.955 92.2361 15.71 91.9461 15.38C91.6661 15.05 91.5261 14.605 91.5261 14.045C91.5261 13.585 91.6561 13.165 91.9161 12.785C92.1861 12.405 92.5661 12.105 93.0561 11.885C93.5561 11.665 94.1411 11.555 94.8111 11.555C95.8011 11.555 96.5911 11.805 97.1811 12.305C97.7711 12.795 98.0961 13.46 98.1561 14.3H96.1461C96.1161 13.97 95.9761 13.71 95.7261 13.52C95.4861 13.32 95.1611 13.22 94.7511 13.22C94.3711 13.22 94.0761 13.29 93.8661 13.43C93.6661 13.57 93.5661 13.765 93.5661 14.015C93.5661 14.295 93.7061 14.51 93.9861 14.66C94.2661 14.8 94.7011 14.945 95.2911 15.095C95.8911 15.245 96.3861 15.4 96.7761 15.56C97.1661 15.72 97.5011 15.97 97.7811 16.31C98.0711 16.64 98.2211 17.08 98.2311 17.63C98.2311 18.11 98.0961 18.54 97.8261 18.92C97.5661 19.3 97.1861 19.6 96.6861 19.82C96.1961 20.03 95.6211 20.135 94.9611 20.135ZM100.885 20.105C100.505 20.105 100.19 19.99 99.9399 19.76C99.6999 19.52 99.5799 19.225 99.5799 18.875C99.5799 18.525 99.6999 18.235 99.9399 18.005C100.19 17.765 100.505 17.645 100.885 17.645C101.255 17.645 101.56 17.765 101.8 18.005C102.04 18.235 102.16 18.525 102.16 18.875C102.16 19.225 102.04 19.52 101.8 19.76C101.56 19.99 101.255 20.105 100.885 20.105ZM109.956 9.53V16.88C109.956 17.9 109.661 18.695 109.071 19.265C108.481 19.825 107.691 20.105 106.701 20.105C105.701 20.105 104.891 19.815 104.271 19.235C103.661 18.655 103.356 17.845 103.356 16.805H105.456C105.466 17.255 105.571 17.605 105.771 17.855C105.981 18.105 106.281 18.23 106.671 18.23C107.051 18.23 107.341 18.11 107.541 17.87C107.741 17.63 107.841 17.3 107.841 16.88V9.53H109.956ZM116.021 20.105C115.291 20.105 114.631 19.98 114.041 19.73C113.461 19.48 113.001 19.12 112.661 18.65C112.321 18.18 112.146 17.625 112.136 16.985H114.386C114.416 17.415 114.566 17.755 114.836 18.005C115.116 18.255 115.496 18.38 115.976 18.38C116.466 18.38 116.851 18.265 117.131 18.035C117.411 17.795 117.551 17.485 117.551 17.105C117.551 16.795 117.456 16.54 117.266 16.34C117.076 16.14 116.836 15.985 116.546 15.875C116.266 15.755 115.876 15.625 115.376 15.485C114.696 15.285 114.141 15.09 113.711 14.9C113.291 14.7 112.926 14.405 112.616 14.015C112.316 13.615 112.166 13.085 112.166 12.425C112.166 11.805 112.321 11.265 112.631 10.805C112.941 10.345 113.376 9.995 113.936 9.755C114.496 9.505 115.136 9.38 115.856 9.38C116.936 9.38 117.811 9.645 118.481 10.175C119.161 10.695 119.536 11.425 119.606 12.365H117.296C117.276 12.005 117.121 11.71 116.831 11.48C116.551 11.24 116.176 11.12 115.706 11.12C115.296 11.12 114.966 11.225 114.716 11.435C114.476 11.645 114.356 11.95 114.356 12.35C114.356 12.63 114.446 12.865 114.626 13.055C114.816 13.235 115.046 13.385 115.316 13.505C115.596 13.615 115.986 13.745 116.486 13.895C117.166 14.095 117.721 14.295 118.151 14.495C118.581 14.695 118.951 14.995 119.261 15.395C119.571 15.795 119.726 16.32 119.726 16.97C119.726 17.53 119.581 18.05 119.291 18.53C119.001 19.01 118.576 19.395 118.016 19.685C117.456 19.965 116.791 20.105 116.021 20.105Z" fill="white"/>
<circle cx="17" cy="15" r="12" fill="white"/>
<path d="M16.76 14.665C16.76 14.965 16.74 15.235 16.7 15.475H10.625C10.675 16.075 10.885 16.545 11.255 16.885C11.625 17.225 12.08 17.395 12.62 17.395C13.4 17.395 13.955 17.06 14.285 16.39H16.55C16.31 17.19 15.85 17.85 15.17 18.37C14.49 18.88 13.655 19.135 12.665 19.135C11.865 19.135 11.145 18.96 10.505 18.61C9.875 18.25 9.38 17.745 9.02 17.095C8.67 16.445 8.495 15.695 8.495 14.845C8.495 13.985 8.67 13.23 9.02 12.58C9.37 11.93 9.86 11.43 10.49 11.08C11.12 10.73 11.845 10.555 12.665 10.555C13.455 10.555 14.16 10.725 14.78 11.065C15.41 11.405 15.895 11.89 16.235 12.52C16.585 13.14 16.76 13.855 16.76 14.665ZM14.585 14.065C14.575 13.525 14.38 13.095 14 12.775C13.62 12.445 13.155 12.28 12.605 12.28C12.085 12.28 11.645 12.44 11.285 12.76C10.935 13.07 10.72 13.505 10.64 14.065H14.585ZM22.8828 19L21.1728 16.42L19.6578 19H17.4078L20.1228 14.83L17.3778 10.69H19.7478L21.4428 13.255L22.9728 10.69H25.2228L22.4928 14.83L25.2528 19H22.8828Z" fill="#303030"/>
</svg>
