<svg width="120" height="30" viewBox="0 0 120 30" fill="none" xmlns="http://www.w3.org/2000/svg">
<rect width="120" height="30" rx="2" fill="#E34C26"/>
<ellipse cx="115.5" cy="26" rx="3.5" ry="3" stroke="black" stroke-opacity="0.3" stroke-width="0.2"/>
<path d="M117.678 27.694C117.546 27.832 117.411 27.931 117.273 27.991C117.135 28.051 116.982 28.081 116.814 28.081C116.58 28.081 116.4 28.024 116.274 27.91C116.148 27.79 116.028 27.58 115.914 27.28L115.572 26.398C115.5 26.236 115.431 26.119 115.365 26.047C115.299 25.969 115.191 25.93 115.041 25.93V26.902C115.041 27.178 115.062 27.376 115.104 27.496C115.152 27.61 115.26 27.742 115.428 27.892L115.365 28H113.745L113.682 27.838C113.832 27.796 113.94 27.757 114.006 27.721C114.072 27.679 114.117 27.625 114.141 27.559C114.165 27.493 114.177 27.391 114.177 27.253V24.913C114.177 24.625 114.153 24.424 114.105 24.31C114.063 24.19 113.958 24.058 113.79 23.914L113.862 23.797H115.428L115.491 23.941C115.299 24.043 115.176 24.139 115.122 24.229C115.068 24.319 115.041 24.472 115.041 24.688V25.804H115.068L116.139 24.589C116.193 24.523 116.229 24.466 116.247 24.418C116.271 24.364 116.286 24.304 116.292 24.238C116.292 24.196 116.268 24.115 116.22 23.995L116.166 23.896L116.283 23.797H117.345L117.399 23.959L117.192 24.022C117.024 24.094 116.865 24.214 116.715 24.382L115.455 25.822C115.767 25.846 116.013 25.912 116.193 26.02C116.373 26.122 116.505 26.275 116.589 26.479L117.003 27.523C117.033 27.601 117.069 27.658 117.111 27.694C117.153 27.724 117.207 27.739 117.273 27.739C117.369 27.739 117.48 27.691 117.606 27.595L117.678 27.694Z" fill="black" fill-opacity="0.3"/>
<path d="M56.72 9.53V20H54.62V15.545H50.135V20H48.035V9.53H50.135V13.835H54.62V9.53H56.72ZM65.912 9.53V11.225H63.122V20H61.022V11.225H58.232V9.53H65.912ZM78.8592 9.53V20H76.7592V13.19L73.9542 20H72.3642L69.5442 13.19V20H67.4442V9.53H69.8292L73.1592 17.315L76.4892 9.53H78.8592ZM83.0354 18.335H86.4854V20H80.9354V9.53H83.0354V18.335ZM94.9302 10.88H90.0702V13.445C90.2802 13.185 90.5802 12.975 90.9702 12.815C91.3602 12.645 91.7752 12.56 92.2152 12.56C93.0152 12.56 93.6702 12.735 94.1802 13.085C94.6902 13.435 95.0602 13.885 95.2902 14.435C95.5202 14.975 95.6352 15.555 95.6352 16.175C95.6352 17.325 95.3052 18.25 94.6452 18.95C93.9952 19.65 93.0652 20 91.8552 20C90.7152 20 89.8052 19.715 89.1252 19.145C88.4452 18.575 88.0602 17.83 87.9702 16.91H90.0102C90.1002 17.31 90.3002 17.63 90.6102 17.87C90.9302 18.11 91.3352 18.23 91.8252 18.23C92.4152 18.23 92.8602 18.045 93.1602 17.675C93.4602 17.305 93.6102 16.815 93.6102 16.205C93.6102 15.585 93.4552 15.115 93.1452 14.795C92.8452 14.465 92.4002 14.3 91.8102 14.3C91.3902 14.3 91.0402 14.405 90.7602 14.615C90.4802 14.825 90.2802 15.105 90.1602 15.455H88.1502V9.035H94.9302V10.88Z" fill="white"/>
<circle cx="17" cy="15" r="12" fill="white"/>
<path d="M10.1429 7.5L11.3699 21.4148L16.8754 23.25L22.416 21.4148L23.6429 7.5H10.1429ZM20.9781 11.9965H14.5164L14.6605 13.7332H20.834L20.3558 18.9504L16.914 19.8996V19.9102H16.8754L13.4054 18.9504L13.1945 16.2855H14.8715L14.9945 17.625L16.8754 18.1348L18.7633 17.625L18.9742 15.4383H13.1066L12.6566 10.3195H21.1328L20.9781 11.9965Z" fill="#E34C26"/>
</svg>
