<svg width="127" height="30" viewBox="0 0 127 30" fill="none" xmlns="http://www.w3.org/2000/svg">
<rect width="127" height="30" rx="2" fill="#323330"/>
<circle cx="123" cy="26" r="3" stroke="black" stroke-opacity="0.3" stroke-width="0.2"/>
<path d="M125.178 27.694C125.046 27.832 124.911 27.931 124.773 27.991C124.635 28.051 124.482 28.081 124.314 28.081C124.08 28.081 123.9 28.024 123.774 27.91C123.648 27.79 123.528 27.58 123.414 27.28L123.072 26.398C123 26.236 122.931 26.119 122.865 26.047C122.799 25.969 122.691 25.93 122.541 25.93V26.902C122.541 27.178 122.562 27.376 122.604 27.496C122.652 27.61 122.76 27.742 122.928 27.892L122.865 28H121.245L121.182 27.838C121.332 27.796 121.44 27.757 121.506 27.721C121.572 27.679 121.617 27.625 121.641 27.559C121.665 27.493 121.677 27.391 121.677 27.253V24.913C121.677 24.625 121.653 24.424 121.605 24.31C121.563 24.19 121.458 24.058 121.29 23.914L121.362 23.797H122.928L122.991 23.941C122.799 24.043 122.676 24.139 122.622 24.229C122.568 24.319 122.541 24.472 122.541 24.688V25.804H122.568L123.639 24.589C123.693 24.523 123.729 24.466 123.747 24.418C123.771 24.364 123.786 24.304 123.792 24.238C123.792 24.196 123.768 24.115 123.72 23.995L123.666 23.896L123.783 23.797H124.845L124.899 23.959L124.692 24.022C124.524 24.094 124.365 24.214 124.215 24.382L122.955 25.822C123.267 25.846 123.513 25.912 123.693 26.02C123.873 26.122 124.005 26.275 124.089 26.479L124.503 27.523C124.533 27.601 124.569 27.658 124.611 27.694C124.653 27.724 124.707 27.739 124.773 27.739C124.869 27.739 124.98 27.691 125.106 27.595L125.178 27.694Z" fill="black" fill-opacity="0.3"/>
<path d="M41.9167 9.53V16.88C41.9167 17.9 41.6217 18.695 41.0317 19.265C40.4417 19.825 39.6517 20.105 38.6617 20.105C37.6617 20.105 36.8517 19.815 36.2317 19.235C35.6217 18.655 35.3167 17.845 35.3167 16.805H37.4167C37.4267 17.255 37.5317 17.605 37.7317 17.855C37.9417 18.105 38.2417 18.23 38.6317 18.23C39.0117 18.23 39.3017 18.11 39.5017 17.87C39.7017 17.63 39.8017 17.3 39.8017 16.88V9.53H41.9167ZM43.8264 15.815C43.8264 14.975 43.9914 14.23 44.3214 13.58C44.6614 12.93 45.1164 12.43 45.6864 12.08C46.2664 11.73 46.9114 11.555 47.6214 11.555C48.2414 11.555 48.7814 11.68 49.2414 11.93C49.7114 12.18 50.0864 12.495 50.3664 12.875V11.69H52.4814V20H50.3664V18.785C50.0964 19.175 49.7214 19.5 49.2414 19.76C48.7714 20.01 48.2264 20.135 47.6064 20.135C46.9064 20.135 46.2664 19.955 45.6864 19.595C45.1164 19.235 44.6614 18.73 44.3214 18.08C43.9914 17.42 43.8264 16.665 43.8264 15.815ZM50.3664 15.845C50.3664 15.335 50.2664 14.9 50.0664 14.54C49.8664 14.17 49.5964 13.89 49.2564 13.7C48.9164 13.5 48.5514 13.4 48.1614 13.4C47.7714 13.4 47.4114 13.495 47.0814 13.685C46.7514 13.875 46.4814 14.155 46.2714 14.525C46.0714 14.885 45.9714 15.315 45.9714 15.815C45.9714 16.315 46.0714 16.755 46.2714 17.135C46.4814 17.505 46.7514 17.79 47.0814 17.99C47.4214 18.19 47.7814 18.29 48.1614 18.29C48.5514 18.29 48.9164 18.195 49.2564 18.005C49.5964 17.805 49.8664 17.525 50.0664 17.165C50.2664 16.795 50.3664 16.355 50.3664 15.845ZM57.9974 18.065L60.0974 11.69H62.3324L59.2574 20H56.7074L53.6474 11.69H55.8974L57.9974 18.065ZM62.9719 15.815C62.9719 14.975 63.1369 14.23 63.4669 13.58C63.8069 12.93 64.2619 12.43 64.8319 12.08C65.4119 11.73 66.0569 11.555 66.7669 11.555C67.3869 11.555 67.9269 11.68 68.3869 11.93C68.8569 12.18 69.2319 12.495 69.5119 12.875V11.69H71.6269V20H69.5119V18.785C69.2419 19.175 68.8669 19.5 68.3869 19.76C67.9169 20.01 67.3719 20.135 66.7519 20.135C66.0519 20.135 65.4119 19.955 64.8319 19.595C64.2619 19.235 63.8069 18.73 63.4669 18.08C63.1369 17.42 62.9719 16.665 62.9719 15.815ZM69.5119 15.845C69.5119 15.335 69.4119 14.9 69.2119 14.54C69.0119 14.17 68.7419 13.89 68.4019 13.7C68.0619 13.5 67.6969 13.4 67.3069 13.4C66.9169 13.4 66.5569 13.495 66.2269 13.685C65.8969 13.875 65.6269 14.155 65.4169 14.525C65.2169 14.885 65.1169 15.315 65.1169 15.815C65.1169 16.315 65.2169 16.755 65.4169 17.135C65.6269 17.505 65.8969 17.79 66.2269 17.99C66.5669 18.19 66.9269 18.29 67.3069 18.29C67.6969 18.29 68.0619 18.195 68.4019 18.005C68.7419 17.805 69.0119 17.525 69.2119 17.165C69.4119 16.795 69.5119 16.355 69.5119 15.845ZM77.2929 20.105C76.5629 20.105 75.9029 19.98 75.3129 19.73C74.7329 19.48 74.2729 19.12 73.9329 18.65C73.5929 18.18 73.4179 17.625 73.4079 16.985H75.6579C75.6879 17.415 75.8379 17.755 76.1079 18.005C76.3879 18.255 76.7679 18.38 77.2479 18.38C77.7379 18.38 78.1229 18.265 78.4029 18.035C78.6829 17.795 78.8229 17.485 78.8229 17.105C78.8229 16.795 78.7279 16.54 78.5379 16.34C78.3479 16.14 78.1079 15.985 77.8179 15.875C77.5379 15.755 77.1479 15.625 76.6479 15.485C75.9679 15.285 75.4129 15.09 74.9829 14.9C74.5629 14.7 74.1979 14.405 73.8879 14.015C73.5879 13.615 73.4379 13.085 73.4379 12.425C73.4379 11.805 73.5929 11.265 73.9029 10.805C74.2129 10.345 74.6479 9.995 75.2079 9.755C75.7679 9.505 76.4079 9.38 77.1279 9.38C78.2079 9.38 79.0829 9.645 79.7529 10.175C80.4329 10.695 80.8079 11.425 80.8779 12.365H78.5679C78.5479 12.005 78.3929 11.71 78.1029 11.48C77.8229 11.24 77.4479 11.12 76.9779 11.12C76.5679 11.12 76.2379 11.225 75.9879 11.435C75.7479 11.645 75.6279 11.95 75.6279 12.35C75.6279 12.63 75.7179 12.865 75.8979 13.055C76.0879 13.235 76.3179 13.385 76.5879 13.505C76.8679 13.615 77.2579 13.745 77.7579 13.895C78.4379 14.095 78.9929 14.295 79.4229 14.495C79.8529 14.695 80.2229 14.995 80.5329 15.395C80.8429 15.795 80.9979 16.32 80.9979 16.97C80.9979 17.53 80.8529 18.05 80.5629 18.53C80.2729 19.01 79.8479 19.395 79.2879 19.685C78.7279 19.965 78.0629 20.105 77.2929 20.105ZM82.2786 15.845C82.2786 14.985 82.4536 14.235 82.8036 13.595C83.1536 12.945 83.6386 12.445 84.2586 12.095C84.8786 11.735 85.5886 11.555 86.3886 11.555C87.4186 11.555 88.2686 11.815 88.9386 12.335C89.6186 12.845 90.0736 13.565 90.3036 14.495H88.0386C87.9186 14.135 87.7136 13.855 87.4236 13.655C87.1436 13.445 86.7936 13.34 86.3736 13.34C85.7736 13.34 85.2986 13.56 84.9486 14C84.5986 14.43 84.4236 15.045 84.4236 15.845C84.4236 16.635 84.5986 17.25 84.9486 17.69C85.2986 18.12 85.7736 18.335 86.3736 18.335C87.2236 18.335 87.7786 17.955 88.0386 17.195H90.3036C90.0736 18.095 89.6186 18.81 88.9386 19.34C88.2586 19.87 87.4086 20.135 86.3886 20.135C85.5886 20.135 84.8786 19.96 84.2586 19.61C83.6386 19.25 83.1536 18.75 82.8036 18.11C82.4536 17.46 82.2786 16.705 82.2786 15.845ZM93.942 12.98C94.212 12.54 94.562 12.195 94.992 11.945C95.432 11.695 95.932 11.57 96.492 11.57V13.775H95.937C95.277 13.775 94.777 13.93 94.437 14.24C94.107 14.55 93.942 15.09 93.942 15.86V20H91.842V11.69H93.942V12.98ZM98.9715 10.7C98.6015 10.7 98.2915 10.585 98.0415 10.355C97.8015 10.115 97.6815 9.82 97.6815 9.47C97.6815 9.12 97.8015 8.83 98.0415 8.6C98.2915 8.36 98.6015 8.24 98.9715 8.24C99.3415 8.24 99.6465 8.36 99.8865 8.6C100.136 8.83 100.261 9.12 100.261 9.47C100.261 9.82 100.136 10.115 99.8865 10.355C99.6465 10.585 99.3415 10.7 98.9715 10.7ZM100.006 11.69V20H97.9065V11.69H100.006ZM104.181 12.89C104.451 12.51 104.821 12.195 105.291 11.945C105.771 11.685 106.316 11.555 106.926 11.555C107.636 11.555 108.276 11.73 108.846 12.08C109.426 12.43 109.881 12.93 110.211 13.58C110.551 14.22 110.721 14.965 110.721 15.815C110.721 16.665 110.551 17.42 110.211 18.08C109.881 18.73 109.426 19.235 108.846 19.595C108.276 19.955 107.636 20.135 106.926 20.135C106.316 20.135 105.776 20.01 105.306 19.76C104.846 19.51 104.471 19.195 104.181 18.815V23.96H102.081V11.69H104.181V12.89ZM108.576 15.815C108.576 15.315 108.471 14.885 108.261 14.525C108.061 14.155 107.791 13.875 107.451 13.685C107.121 13.495 106.761 13.4 106.371 13.4C105.991 13.4 105.631 13.5 105.291 13.7C104.961 13.89 104.691 14.17 104.481 14.54C104.281 14.91 104.181 15.345 104.181 15.845C104.181 16.345 104.281 16.78 104.481 17.15C104.691 17.52 104.961 17.805 105.291 18.005C105.631 18.195 105.991 18.29 106.371 18.29C106.761 18.29 107.121 18.19 107.451 17.99C107.791 17.79 108.061 17.505 108.261 17.135C108.471 16.765 108.576 16.325 108.576 15.815ZM114.692 13.415V17.435C114.692 17.715 114.757 17.92 114.887 18.05C115.027 18.17 115.257 18.23 115.577 18.23H116.552V20H115.232C113.462 20 112.577 19.14 112.577 17.42V13.415H111.587V11.69H112.577V9.635H114.692V11.69H116.552V13.415H114.692Z" fill="white"/>
<ellipse cx="17.3214" cy="15" rx="12.3214" ry="12" fill="white"/>
<path d="M17.5245 24.4186C17.2935 24.4186 17.0591 24.3582 16.8557 24.2441L14.7288 23.0187C14.4117 22.8441 14.5668 22.7837 14.6702 22.7501C15.0942 22.6058 15.1804 22.5755 15.632 22.3237C15.6803 22.2969 15.7423 22.307 15.7906 22.3372L17.4245 23.2806C17.4831 23.3141 17.5658 23.3141 17.621 23.2806L23.9878 19.7018C24.0464 19.6682 24.0844 19.6011 24.0844 19.5339V12.3763C24.0844 12.3058 24.0464 12.2421 23.9844 12.2051L17.621 8.6297C17.5624 8.59613 17.4831 8.59613 17.4245 8.6297L11.0645 12.2085C11.0025 12.2421 10.9646 12.3092 10.9646 12.3797V19.5339C10.9646 19.6011 11.0025 19.6682 11.0645 19.6984L12.8088 20.6787C13.7568 21.1387 14.3359 20.5981 14.3359 20.0509V12.9874C14.3359 12.8866 14.4186 12.8094 14.522 12.8094H15.3286C15.4286 12.8094 15.5148 12.8866 15.5148 12.9874V20.0543C15.5148 21.283 14.8254 21.988 13.6292 21.988C13.2604 21.988 12.9708 21.988 12.1642 21.5986L10.4958 20.6619C10.0821 20.4303 9.82703 19.9972 9.82703 19.5306V12.3763C9.82703 11.913 10.0821 11.4766 10.4958 11.245L16.8557 7.66618C17.259 7.44461 17.7933 7.44461 18.1932 7.66618L24.5601 11.2483C24.9737 11.48 25.2288 11.913 25.2288 12.3797V19.5339C25.2288 19.9972 24.9737 20.4303 24.5601 20.6653L18.1932 24.2441C17.9898 24.3582 17.7589 24.4186 17.5245 24.4186ZM22.6641 17.3652C22.6641 16.0256 21.7334 15.6698 19.7789 15.418C17.8002 15.1628 17.6003 15.0319 17.6003 14.582C17.6003 14.2094 17.7692 13.7125 19.2343 13.7125C20.5407 13.7125 21.0233 13.9878 21.2232 14.8472C21.2405 14.9278 21.3163 14.9882 21.4025 14.9882H22.2298C22.2815 14.9882 22.3298 14.9681 22.3642 14.9312C22.3987 14.8942 22.416 14.8439 22.4125 14.7935C22.285 13.313 21.275 12.6248 19.2343 12.6248C17.4176 12.6248 16.3352 13.3701 16.3352 14.6223C16.3352 15.9786 17.4142 16.3546 19.155 16.5225C21.2405 16.7206 21.4025 17.0194 21.4025 17.4189C21.4025 18.1105 20.8303 18.4059 19.4893 18.4059C17.8037 18.4059 17.4348 17.9929 17.3108 17.1771C17.297 17.0899 17.2211 17.0261 17.1281 17.0261H16.3042C16.2008 17.0261 16.1215 17.1066 16.1215 17.204C16.1215 18.2481 16.7041 19.4936 19.4928 19.4936C21.5059 19.4903 22.6641 18.7147 22.6641 17.3652Z" fill="#3C873A"/>
</svg>
