<svg width="136" height="30" viewBox="0 0 136 30" fill="none" xmlns="http://www.w3.org/2000/svg">
<rect width="136" height="30" rx="2" fill="#116149"/>
<circle cx="132" cy="26" r="3" stroke="black" stroke-opacity="0.3" stroke-width="0.2"/>
<path d="M134.178 27.694C134.046 27.832 133.911 27.931 133.773 27.991C133.635 28.051 133.482 28.081 133.314 28.081C133.08 28.081 132.9 28.024 132.774 27.91C132.648 27.79 132.528 27.58 132.414 27.28L132.072 26.398C132 26.236 131.931 26.119 131.865 26.047C131.799 25.969 131.691 25.93 131.541 25.93V26.902C131.541 27.178 131.562 27.376 131.604 27.496C131.652 27.61 131.76 27.742 131.928 27.892L131.865 28H130.245L130.182 27.838C130.332 27.796 130.44 27.757 130.506 27.721C130.572 27.679 130.617 27.625 130.641 27.559C130.665 27.493 130.677 27.391 130.677 27.253V24.913C130.677 24.625 130.653 24.424 130.605 24.31C130.563 24.19 130.458 24.058 130.29 23.914L130.362 23.797H131.928L131.991 23.941C131.799 24.043 131.676 24.139 131.622 24.229C131.568 24.319 131.541 24.472 131.541 24.688V25.804H131.568L132.639 24.589C132.693 24.523 132.729 24.466 132.747 24.418C132.771 24.364 132.786 24.304 132.792 24.238C132.792 24.196 132.768 24.115 132.72 23.995L132.666 23.896L132.783 23.797H133.845L133.899 23.959L133.692 24.022C133.524 24.094 133.365 24.214 133.215 24.382L131.955 25.822C132.267 25.846 132.513 25.912 132.693 26.02C132.873 26.122 133.005 26.275 133.089 26.479L133.503 27.523C133.533 27.601 133.569 27.658 133.611 27.694C133.653 27.724 133.707 27.739 133.773 27.739C133.869 27.739 133.98 27.691 134.106 27.595L134.178 27.694Z" fill="black" fill-opacity="0.3"/>
<path d="M52.45 9.53V20H50.35V13.19L47.545 20H45.955L43.135 13.19V20H41.035V9.53H43.42L46.75 17.315L50.08 9.53H52.45ZM59.3862 20.105C58.4062 20.105 57.5062 19.875 56.6862 19.415C55.8662 18.955 55.2162 18.32 54.7362 17.51C54.2562 16.69 54.0162 15.765 54.0162 14.735C54.0162 13.715 54.2562 12.8 54.7362 11.99C55.2162 11.17 55.8662 10.53 56.6862 10.07C57.5062 9.61 58.4062 9.38 59.3862 9.38C60.3762 9.38 61.2762 9.61 62.0862 10.07C62.9062 10.53 63.5512 11.17 64.0212 11.99C64.5012 12.8 64.7412 13.715 64.7412 14.735C64.7412 15.765 64.5012 16.69 64.0212 17.51C63.5512 18.32 62.9062 18.955 62.0862 19.415C61.2662 19.875 60.3662 20.105 59.3862 20.105ZM59.3862 18.23C60.0162 18.23 60.5712 18.09 61.0512 17.81C61.5312 17.52 61.9062 17.11 62.1762 16.58C62.4462 16.05 62.5812 15.435 62.5812 14.735C62.5812 14.035 62.4462 13.425 62.1762 12.905C61.9062 12.375 61.5312 11.97 61.0512 11.69C60.5712 11.41 60.0162 11.27 59.3862 11.27C58.7562 11.27 58.1962 11.41 57.7062 11.69C57.2262 11.97 56.8512 12.375 56.5812 12.905C56.3112 13.425 56.1762 14.035 56.1762 14.735C56.1762 15.435 56.3112 16.05 56.5812 16.58C56.8512 17.11 57.2262 17.52 57.7062 17.81C58.1962 18.09 58.7562 18.23 59.3862 18.23ZM75.2586 20H73.1586L68.4036 12.815V20H66.3036V9.515H68.4036L73.1586 16.715V9.515H75.2586V20ZM84.6238 12.68C84.3838 12.24 84.0538 11.905 83.6338 11.675C83.2138 11.445 82.7238 11.33 82.1638 11.33C81.5438 11.33 80.9938 11.47 80.5138 11.75C80.0338 12.03 79.6588 12.43 79.3888 12.95C79.1188 13.47 78.9838 14.07 78.9838 14.75C78.9838 15.45 79.1188 16.06 79.3888 16.58C79.6688 17.1 80.0538 17.5 80.5438 17.78C81.0338 18.06 81.6038 18.2 82.2538 18.2C83.0538 18.2 83.7088 17.99 84.2188 17.57C84.7288 17.14 85.0638 16.545 85.2238 15.785H81.6238V14.18H87.2938V16.01C87.1538 16.74 86.8538 17.415 86.3938 18.035C85.9338 18.655 85.3388 19.155 84.6088 19.535C83.8888 19.905 83.0788 20.09 82.1788 20.09C81.1688 20.09 80.2538 19.865 79.4338 19.415C78.6238 18.955 77.9838 18.32 77.5138 17.51C77.0538 16.7 76.8238 15.78 76.8238 14.75C76.8238 13.72 77.0538 12.8 77.5138 11.99C77.9838 11.17 78.6238 10.535 79.4338 10.085C80.2538 9.625 81.1638 9.395 82.1638 9.395C83.3438 9.395 84.3688 9.685 85.2388 10.265C86.1088 10.835 86.7088 11.64 87.0388 12.68H84.6238ZM93.7075 20.105C92.7275 20.105 91.8275 19.875 91.0075 19.415C90.1875 18.955 89.5375 18.32 89.0575 17.51C88.5775 16.69 88.3375 15.765 88.3375 14.735C88.3375 13.715 88.5775 12.8 89.0575 11.99C89.5375 11.17 90.1875 10.53 91.0075 10.07C91.8275 9.61 92.7275 9.38 93.7075 9.38C94.6975 9.38 95.5975 9.61 96.4075 10.07C97.2275 10.53 97.8725 11.17 98.3425 11.99C98.8225 12.8 99.0625 13.715 99.0625 14.735C99.0625 15.765 98.8225 16.69 98.3425 17.51C97.8725 18.32 97.2275 18.955 96.4075 19.415C95.5875 19.875 94.6875 20.105 93.7075 20.105ZM93.7075 18.23C94.3375 18.23 94.8925 18.09 95.3725 17.81C95.8525 17.52 96.2275 17.11 96.4975 16.58C96.7675 16.05 96.9025 15.435 96.9025 14.735C96.9025 14.035 96.7675 13.425 96.4975 12.905C96.2275 12.375 95.8525 11.97 95.3725 11.69C94.8925 11.41 94.3375 11.27 93.7075 11.27C93.0775 11.27 92.5175 11.41 92.0275 11.69C91.5475 11.97 91.1725 12.375 90.9025 12.905C90.6325 13.425 90.4975 14.035 90.4975 14.735C90.4975 15.435 90.6325 16.05 90.9025 16.58C91.1725 17.11 91.5475 17.52 92.0275 17.81C92.5175 18.09 93.0775 18.23 93.7075 18.23ZM107.859 9.53C108.959 9.53 109.924 9.745 110.754 10.175C111.594 10.605 112.239 11.22 112.689 12.02C113.149 12.81 113.379 13.73 113.379 14.78C113.379 15.83 113.149 16.75 112.689 17.54C112.239 18.32 111.594 18.925 110.754 19.355C109.924 19.785 108.959 20 107.859 20H104.199V9.53H107.859ZM107.784 18.215C108.884 18.215 109.734 17.915 110.334 17.315C110.934 16.715 111.234 15.87 111.234 14.78C111.234 13.69 110.934 12.84 110.334 12.23C109.734 11.61 108.884 11.3 107.784 11.3H106.299V18.215H107.784ZM120.891 14.63C121.481 14.74 121.966 15.035 122.346 15.515C122.726 15.995 122.916 16.545 122.916 17.165C122.916 17.725 122.776 18.22 122.496 18.65C122.226 19.07 121.831 19.4 121.311 19.64C120.791 19.88 120.176 20 119.466 20H114.951V9.53H119.271C119.981 9.53 120.591 9.645 121.101 9.875C121.621 10.105 122.011 10.425 122.271 10.835C122.541 11.245 122.676 11.71 122.676 12.23C122.676 12.84 122.511 13.35 122.181 13.76C121.861 14.17 121.431 14.46 120.891 14.63ZM117.051 13.85H118.971C119.471 13.85 119.856 13.74 120.126 13.52C120.396 13.29 120.531 12.965 120.531 12.545C120.531 12.125 120.396 11.8 120.126 11.57C119.856 11.34 119.471 11.225 118.971 11.225H117.051V13.85ZM119.166 18.29C119.676 18.29 120.071 18.17 120.351 17.93C120.641 17.69 120.786 17.35 120.786 16.91C120.786 16.46 120.636 16.11 120.336 15.86C120.036 15.6 119.631 15.47 119.121 15.47H117.051V18.29H119.166Z" fill="white"/>
<circle cx="17" cy="15" r="12" fill="white"/>
<path d="M16.0125 5.7168C28.4764 15.735 18.9238 21.6873 17.909 22.9765L18.3065 26.8056L17.628 26.2602L17.2843 22.9254C16.1784 22.2169 13.3142 21.2163 12.4652 17.4625C11.6111 13.7045 13.5371 11.5755 16.0125 5.7168ZM17.1275 8.58906C16.3234 6.93327 16.7988 8.72008 16.7988 8.72008C17.3239 10.4824 16.9752 12.0279 16.6377 13.7412C16.197 15.9729 15.769 19.044 16.8831 21.1424C17.9921 23.2366 17.5135 22.186 17.218 21.0464C16.9268 19.9016 17.2631 17.3454 17.5743 15.7398C18.0056 13.509 18.4702 11.3651 17.1275 8.58906V8.58906Z" fill="#116149"/>
</svg>
