<svg width="120" height="30" viewBox="0 0 120 30" fill="none" xmlns="http://www.w3.org/2000/svg">
<rect width="120" height="30" rx="2" fill="#3C873A"/>
<circle cx="116" cy="26" r="3" stroke="black" stroke-opacity="0.3" stroke-width="0.2"/>
<path d="M118.178 27.694C118.046 27.832 117.911 27.931 117.773 27.991C117.635 28.051 117.482 28.081 117.314 28.081C117.08 28.081 116.9 28.024 116.774 27.91C116.648 27.79 116.528 27.58 116.414 27.28L116.072 26.398C116 26.236 115.931 26.119 115.865 26.047C115.799 25.969 115.691 25.93 115.541 25.93V26.902C115.541 27.178 115.562 27.376 115.604 27.496C115.652 27.61 115.76 27.742 115.928 27.892L115.865 28H114.245L114.182 27.838C114.332 27.796 114.44 27.757 114.506 27.721C114.572 27.679 114.617 27.625 114.641 27.559C114.665 27.493 114.677 27.391 114.677 27.253V24.913C114.677 24.625 114.653 24.424 114.605 24.31C114.563 24.19 114.458 24.058 114.29 23.914L114.362 23.797H115.928L115.991 23.941C115.799 24.043 115.676 24.139 115.622 24.229C115.568 24.319 115.541 24.472 115.541 24.688V25.804H115.568L116.639 24.589C116.693 24.523 116.729 24.466 116.747 24.418C116.771 24.364 116.786 24.304 116.792 24.238C116.792 24.196 116.768 24.115 116.72 23.995L116.666 23.896L116.783 23.797H117.845L117.899 23.959L117.692 24.022C117.524 24.094 117.365 24.214 117.215 24.382L115.955 25.822C116.267 25.846 116.513 25.912 116.693 26.02C116.873 26.122 117.005 26.275 117.089 26.479L117.503 27.523C117.533 27.601 117.569 27.658 117.611 27.694C117.653 27.724 117.707 27.739 117.773 27.739C117.869 27.739 117.98 27.691 118.106 27.595L118.178 27.694Z" fill="black" fill-opacity="0.3"/>
<path d="M52.99 20H50.89L46.135 12.815V20H44.035V9.515H46.135L50.89 16.715V9.515H52.99V20ZM59.9253 20.105C58.9453 20.105 58.0453 19.875 57.2253 19.415C56.4053 18.955 55.7553 18.32 55.2753 17.51C54.7953 16.69 54.5553 15.765 54.5553 14.735C54.5553 13.715 54.7953 12.8 55.2753 11.99C55.7553 11.17 56.4053 10.53 57.2253 10.07C58.0453 9.61 58.9453 9.38 59.9253 9.38C60.9153 9.38 61.8153 9.61 62.6253 10.07C63.4453 10.53 64.0903 11.17 64.5603 11.99C65.0403 12.8 65.2803 13.715 65.2803 14.735C65.2803 15.765 65.0403 16.69 64.5603 17.51C64.0903 18.32 63.4453 18.955 62.6253 19.415C61.8053 19.875 60.9053 20.105 59.9253 20.105ZM59.9253 18.23C60.5553 18.23 61.1103 18.09 61.5903 17.81C62.0703 17.52 62.4453 17.11 62.7153 16.58C62.9853 16.05 63.1203 15.435 63.1203 14.735C63.1203 14.035 62.9853 13.425 62.7153 12.905C62.4453 12.375 62.0703 11.97 61.5903 11.69C61.1103 11.41 60.5553 11.27 59.9253 11.27C59.2953 11.27 58.7353 11.41 58.2453 11.69C57.7653 11.97 57.3903 12.375 57.1203 12.905C56.8503 13.425 56.7153 14.035 56.7153 14.735C56.7153 15.435 56.8503 16.05 57.1203 16.58C57.3903 17.11 57.7653 17.52 58.2453 17.81C58.7353 18.09 59.2953 18.23 59.9253 18.23ZM70.5026 9.53C71.6026 9.53 72.5676 9.745 73.3976 10.175C74.2376 10.605 74.8826 11.22 75.3326 12.02C75.7926 12.81 76.0226 13.73 76.0226 14.78C76.0226 15.83 75.7926 16.75 75.3326 17.54C74.8826 18.32 74.2376 18.925 73.3976 19.355C72.5676 19.785 71.6026 20 70.5026 20H66.8426V9.53H70.5026ZM70.4276 18.215C71.5276 18.215 72.3776 17.915 72.9776 17.315C73.5776 16.715 73.8776 15.87 73.8776 14.78C73.8776 13.69 73.5776 12.84 72.9776 12.23C72.3776 11.61 71.5276 11.3 70.4276 11.3H68.9426V18.215H70.4276ZM79.6946 11.225V13.85H83.2196V15.515H79.6946V18.29H83.6696V20H77.5946V9.515H83.6696V11.225H79.6946ZM86.508 20.105C86.128 20.105 85.813 19.99 85.563 19.76C85.323 19.52 85.203 19.225 85.203 18.875C85.203 18.525 85.323 18.235 85.563 18.005C85.813 17.765 86.128 17.645 86.508 17.645C86.878 17.645 87.183 17.765 87.423 18.005C87.663 18.235 87.783 18.525 87.783 18.875C87.783 19.225 87.663 19.52 87.423 19.76C87.183 19.99 86.878 20.105 86.508 20.105ZM95.5795 9.53V16.88C95.5795 17.9 95.2845 18.695 94.6945 19.265C94.1045 19.825 93.3145 20.105 92.3245 20.105C91.3245 20.105 90.5145 19.815 89.8945 19.235C89.2845 18.655 88.9795 17.845 88.9795 16.805H91.0795C91.0895 17.255 91.1945 17.605 91.3945 17.855C91.6045 18.105 91.9045 18.23 92.2945 18.23C92.6745 18.23 92.9645 18.11 93.1645 17.87C93.3645 17.63 93.4645 17.3 93.4645 16.88V9.53H95.5795ZM101.644 20.105C100.914 20.105 100.254 19.98 99.6641 19.73C99.0841 19.48 98.6241 19.12 98.2841 18.65C97.9441 18.18 97.7691 17.625 97.7591 16.985H100.009C100.039 17.415 100.189 17.755 100.459 18.005C100.739 18.255 101.119 18.38 101.599 18.38C102.089 18.38 102.474 18.265 102.754 18.035C103.034 17.795 103.174 17.485 103.174 17.105C103.174 16.795 103.079 16.54 102.889 16.34C102.699 16.14 102.459 15.985 102.169 15.875C101.889 15.755 101.499 15.625 100.999 15.485C100.319 15.285 99.7641 15.09 99.3341 14.9C98.9141 14.7 98.5491 14.405 98.2391 14.015C97.9391 13.615 97.7891 13.085 97.7891 12.425C97.7891 11.805 97.9441 11.265 98.2541 10.805C98.5641 10.345 98.9991 9.995 99.5591 9.755C100.119 9.505 100.759 9.38 101.479 9.38C102.559 9.38 103.434 9.645 104.104 10.175C104.784 10.695 105.159 11.425 105.229 12.365H102.919C102.899 12.005 102.744 11.71 102.454 11.48C102.174 11.24 101.799 11.12 101.329 11.12C100.919 11.12 100.589 11.225 100.339 11.435C100.099 11.645 99.9791 11.95 99.9791 12.35C99.9791 12.63 100.069 12.865 100.249 13.055C100.439 13.235 100.669 13.385 100.939 13.505C101.219 13.615 101.609 13.745 102.109 13.895C102.789 14.095 103.344 14.295 103.774 14.495C104.204 14.695 104.574 14.995 104.884 15.395C105.194 15.795 105.349 16.32 105.349 16.97C105.349 17.53 105.204 18.05 104.914 18.53C104.624 19.01 104.199 19.395 103.639 19.685C103.079 19.965 102.414 20.105 101.644 20.105Z" fill="white"/>
<circle cx="17" cy="15" r="12" fill="white"/>
<path d="M16.8959 21.3371C16.8369 21.3371 16.7778 21.3202 16.7244 21.2921L16.1844 20.9715C16.1028 20.9265 16.1422 20.9096 16.1703 20.9012C16.2772 20.8646 16.2997 20.8562 16.415 20.7887C16.4263 20.783 16.4431 20.7858 16.4544 20.7915L16.8706 21.039C16.8847 21.0474 16.9072 21.0474 16.9213 21.039L18.5469 20.0996C18.5609 20.0912 18.5722 20.0743 18.5722 20.0546V18.1787C18.5722 18.159 18.5637 18.1421 18.5469 18.1337L16.9213 17.1971C16.9072 17.1887 16.8875 17.1887 16.8706 17.1971L15.245 18.1337C15.2281 18.1421 15.2197 18.1618 15.2197 18.1787V20.0546C15.2197 20.0715 15.2309 20.0883 15.245 20.0968L15.6894 20.3527C15.9312 20.4737 16.0803 20.3302 16.0803 20.1896V18.3362C16.0803 18.3108 16.1 18.2883 16.1281 18.2883H16.3334C16.3587 18.2883 16.3812 18.308 16.3812 18.3362V20.1896C16.3812 20.513 16.2069 20.6958 15.9003 20.6958C15.8075 20.6958 15.7316 20.6958 15.5262 20.5946L15.0987 20.3499C14.9947 20.288 14.9272 20.1755 14.9272 20.0546V18.1787C14.9272 18.0577 14.9919 17.9424 15.0987 17.8833L16.7244 16.944C16.8284 16.8849 16.9634 16.8849 17.0647 16.944L18.6903 17.8833C18.7944 17.9452 18.8619 18.0577 18.8619 18.1787V20.0546C18.8619 20.1755 18.7972 20.2908 18.6903 20.3499L17.0647 21.2893C17.0169 21.3202 16.9578 21.3371 16.8959 21.3371ZM18.2094 19.4865C18.2094 19.1349 17.9731 19.0421 17.4725 18.9746C16.9662 18.9071 16.9156 18.8733 16.9156 18.7552C16.9156 18.6568 16.9578 18.5274 17.3319 18.5274C17.6666 18.5274 17.7903 18.6005 17.8409 18.8255C17.8466 18.848 17.8634 18.8621 17.8859 18.8621H18.0969C18.1109 18.8621 18.1222 18.8565 18.1306 18.848C18.1391 18.8368 18.1447 18.8255 18.1419 18.8115C18.1081 18.4233 17.8522 18.2433 17.3319 18.2433C16.8678 18.2433 16.5922 18.4402 16.5922 18.7665C16.5922 19.1237 16.8678 19.2193 17.3122 19.2643C17.8438 19.3177 17.8859 19.3937 17.8859 19.4977C17.8859 19.6805 17.7397 19.7565 17.3966 19.7565C16.9662 19.7565 16.8706 19.6496 16.8397 19.4358C16.8369 19.4133 16.8172 19.3965 16.7919 19.3965H16.5809C16.5556 19.3965 16.5331 19.4162 16.5331 19.4443C16.5331 19.7171 16.6822 20.0433 17.3938 20.0433C17.9141 20.0433 18.2094 19.8408 18.2094 19.4865ZM19.7422 18.0774C19.7422 18.249 19.6016 18.3896 19.43 18.3896C19.2584 18.3896 19.1178 18.249 19.1178 18.0774C19.1178 17.9002 19.2641 17.7652 19.43 17.7652C19.5987 17.7624 19.7422 17.9002 19.7422 18.0774ZM19.6916 18.0774C19.6916 17.9312 19.5734 17.8158 19.4272 17.8158C19.2837 17.8158 19.1656 17.9312 19.1656 18.0774C19.1656 18.2237 19.2837 18.3418 19.4272 18.3418C19.5734 18.339 19.6916 18.2208 19.6916 18.0774ZM19.565 18.2518H19.4919C19.4891 18.2349 19.4778 18.1449 19.4778 18.1421C19.4722 18.1224 19.4666 18.1112 19.4412 18.1112H19.3794V18.2518H19.3119V17.9002H19.4328C19.475 17.9002 19.5566 17.9002 19.5566 17.993C19.5566 18.0577 19.5144 18.0718 19.4891 18.0802C19.5369 18.083 19.5397 18.114 19.5481 18.159C19.5509 18.1871 19.5566 18.2349 19.565 18.2518ZM19.4862 18.0043C19.4862 17.9565 19.4525 17.9565 19.4356 17.9565H19.3794V18.0549H19.4328C19.4778 18.0549 19.4862 18.024 19.4862 18.0043ZM11.8616 13.9965C11.8616 13.9205 11.8222 13.853 11.7575 13.8165L10.0334 12.8237C10.0053 12.8068 9.97156 12.7983 9.93781 12.7955H9.92094C9.88719 12.7955 9.85625 12.8068 9.82531 12.8237L8.10406 13.8165C8.03938 13.853 8 13.9233 8 13.9965L8.00281 16.6683C8.00281 16.7049 8.0225 16.7387 8.05344 16.7583C8.08437 16.778 8.12375 16.778 8.1575 16.7583L9.18125 16.1705C9.24594 16.1312 9.28531 16.0637 9.28531 15.9905V14.7418C9.28531 14.6687 9.32469 14.5983 9.38937 14.5618L9.82531 14.3115C9.85906 14.2918 9.89281 14.2833 9.92937 14.2833C9.96594 14.2833 10.0025 14.2918 10.0334 14.3115L10.4694 14.5618C10.5341 14.5983 10.5734 14.6687 10.5734 14.7418V15.9905C10.5734 16.0637 10.6128 16.134 10.6775 16.1705L11.7013 16.7583C11.7322 16.778 11.7744 16.778 11.8053 16.7583C11.8363 16.7415 11.8559 16.7049 11.8559 16.6683L11.8616 13.9965ZM21.2891 11.0799V16.0412C21.2891 16.1143 21.2497 16.1846 21.185 16.2212L19.4609 17.2168C19.3962 17.2533 19.3175 17.2533 19.2528 17.2168L17.5287 16.2212C17.4641 16.1846 17.4247 16.1143 17.4247 16.0412V14.0499C17.4247 13.9768 17.4641 13.9065 17.5287 13.8699L19.2528 12.8743C19.3175 12.8377 19.3962 12.8377 19.4609 12.8743L19.8912 13.1218C19.9391 13.1499 20.0009 13.1133 20.0009 13.0599V10.4162C20.0009 10.3374 20.0853 10.2868 20.1556 10.3262L21.1822 10.8999C21.2469 10.9337 21.2891 11.004 21.2891 11.0799ZM19.9953 14.7052C19.9953 14.6855 19.9841 14.6687 19.97 14.6602L19.3794 14.3171C19.3625 14.3087 19.3428 14.3087 19.3259 14.3171L18.7353 14.6602C18.7184 14.6687 18.71 14.6855 18.71 14.7052V15.3887C18.71 15.4083 18.7213 15.4252 18.7353 15.4337L19.3259 15.774C19.3428 15.7824 19.3625 15.7824 19.3766 15.774L19.9672 15.4337C19.9841 15.4252 19.9925 15.4083 19.9925 15.3887V14.7052H19.9953ZM25.8959 14.6855C25.9606 14.649 26 14.5787 26 14.5055V14.0246C26 13.9515 25.9606 13.8812 25.8959 13.8446L24.1831 12.849C24.1184 12.8124 24.0397 12.8124 23.975 12.849L22.2509 13.8446C22.1862 13.8812 22.1469 13.9515 22.1469 14.0246V16.0158C22.1469 16.0918 22.1862 16.1593 22.2509 16.1958L23.9637 17.1718C24.0256 17.2083 24.1044 17.2083 24.1691 17.1718L25.2041 16.5952C25.2744 16.5558 25.2744 16.4546 25.2041 16.4152L23.4688 15.4196C23.435 15.3999 23.4153 15.3662 23.4153 15.3296V14.7052C23.4153 14.6687 23.435 14.6349 23.4688 14.6152L24.0087 14.303C24.0397 14.2833 24.0819 14.2833 24.1128 14.303L24.6528 14.6152C24.6837 14.6349 24.7062 14.6687 24.7062 14.7052V15.1946C24.7062 15.2733 24.7934 15.324 24.8637 15.2846L25.8959 14.6855ZM23.7219 14.784C23.7106 14.7924 23.7022 14.8037 23.7022 14.8177V15.2002C23.7022 15.2143 23.7106 15.2283 23.7219 15.234L24.0537 15.4252C24.065 15.4337 24.0819 15.4337 24.0931 15.4252L24.425 15.234C24.4362 15.2255 24.4447 15.2143 24.4447 15.2002V14.8177C24.4447 14.8037 24.4362 14.7896 24.425 14.784L24.0931 14.5927C24.0819 14.5843 24.065 14.5843 24.0537 14.5927L23.7219 14.784ZM16.5725 16.0074V14.0274C16.5725 13.9543 16.5275 13.884 16.4628 13.8474L14.7444 12.8574C14.6853 12.8237 14.6037 12.818 14.5362 12.8574L12.8178 13.8474C12.7531 13.884 12.7081 13.9515 12.7081 14.0274V16.0074C12.7081 16.0862 12.7616 16.1537 12.8206 16.1874L14.5419 17.1774C14.6094 17.2168 14.6881 17.214 14.75 17.1774L16.4656 16.1874C16.5162 16.1593 16.5528 16.1115 16.5669 16.0552C16.5697 16.0412 16.5725 16.0243 16.5725 16.0074ZM14.4828 12.4946L14.4603 12.5087H14.4913L14.4828 12.4946ZM16.6259 16.1565L16.6147 16.1368V16.1621L16.6259 16.1565Z" fill="#3C873A"/>
</svg>
