<svg width="120" height="30" viewBox="0 0 120 30" fill="none" xmlns="http://www.w3.org/2000/svg">
<rect width="120" height="30" rx="2" fill="#1C2C4C"/>
<circle cx="116" cy="26" r="3" stroke="black" stroke-opacity="0.3" stroke-width="0.2"/>
<path d="M118.178 27.694C118.046 27.832 117.911 27.931 117.773 27.991C117.635 28.051 117.482 28.081 117.314 28.081C117.08 28.081 116.9 28.024 116.774 27.91C116.648 27.79 116.528 27.58 116.414 27.28L116.072 26.398C116 26.236 115.931 26.119 115.865 26.047C115.799 25.969 115.691 25.93 115.541 25.93V26.902C115.541 27.178 115.562 27.376 115.604 27.496C115.652 27.61 115.76 27.742 115.928 27.892L115.865 28H114.245L114.182 27.838C114.332 27.796 114.44 27.757 114.506 27.721C114.572 27.679 114.617 27.625 114.641 27.559C114.665 27.493 114.677 27.391 114.677 27.253V24.913C114.677 24.625 114.653 24.424 114.605 24.31C114.563 24.19 114.458 24.058 114.29 23.914L114.362 23.797H115.928L115.991 23.941C115.799 24.043 115.676 24.139 115.622 24.229C115.568 24.319 115.541 24.472 115.541 24.688V25.804H115.568L116.639 24.589C116.693 24.523 116.729 24.466 116.747 24.418C116.771 24.364 116.786 24.304 116.792 24.238C116.792 24.196 116.768 24.115 116.72 23.995L116.666 23.896L116.783 23.797H117.845L117.899 23.959L117.692 24.022C117.524 24.094 117.365 24.214 117.215 24.382L115.955 25.822C116.267 25.846 116.513 25.912 116.693 26.02C116.873 26.122 117.005 26.275 117.089 26.479L117.503 27.523C117.533 27.601 117.569 27.658 117.611 27.694C117.653 27.724 117.707 27.739 117.773 27.739C117.869 27.739 117.98 27.691 118.106 27.595L118.178 27.694Z" fill="black" fill-opacity="0.3"/>
<path d="M46.435 20L44.125 15.92H43.135V20H41.035V9.53H44.965C45.775 9.53 46.465 9.675 47.035 9.965C47.605 10.245 48.03 10.63 48.31 11.12C48.6 11.6 48.745 12.14 48.745 12.74C48.745 13.43 48.545 14.055 48.145 14.615C47.745 15.165 47.15 15.545 46.36 15.755L48.865 20H46.435ZM43.135 14.345H44.89C45.46 14.345 45.885 14.21 46.165 13.94C46.445 13.66 46.585 13.275 46.585 12.785C46.585 12.305 46.445 11.935 46.165 11.675C45.885 11.405 45.46 11.27 44.89 11.27H43.135V14.345ZM52.7444 11.225V13.85H56.2694V15.515H52.7444V18.29H56.7194V20H50.6444V9.515H56.7194V11.225H52.7444ZM65.0478 18.005H60.8778L60.1878 20H57.9828L61.7478 9.515H64.1928L67.9578 20H65.7378L65.0478 18.005ZM64.4778 16.325L62.9628 11.945L61.4478 16.325H64.4778ZM68.8551 14.75C68.8551 13.72 69.0851 12.8 69.5451 11.99C70.0151 11.17 70.6501 10.535 71.4501 10.085C72.2601 9.625 73.1651 9.395 74.1651 9.395C75.3351 9.395 76.3601 9.695 77.2401 10.295C78.1201 10.895 78.7351 11.725 79.0851 12.785H76.6701C76.4301 12.285 76.0901 11.91 75.6501 11.66C75.2201 11.41 74.7201 11.285 74.1501 11.285C73.5401 11.285 72.9951 11.43 72.5151 11.72C72.0451 12 71.6751 12.4 71.4051 12.92C71.1451 13.44 71.0151 14.05 71.0151 14.75C71.0151 15.44 71.1451 16.05 71.4051 16.58C71.6751 17.1 72.0451 17.505 72.5151 17.795C72.9951 18.075 73.5401 18.215 74.1501 18.215C74.7201 18.215 75.2201 18.09 75.6501 17.84C76.0901 17.58 76.4301 17.2 76.6701 16.7H79.0851C78.7351 17.77 78.1201 18.605 77.2401 19.205C76.3701 19.795 75.3451 20.09 74.1651 20.09C73.1651 20.09 72.2601 19.865 71.4501 19.415C70.6501 18.955 70.0151 18.32 69.5451 17.51C69.0851 16.7 68.8551 15.78 68.8551 14.75ZM88.0038 9.53V11.225H85.2138V20H83.1138V11.225H80.3238V9.53H88.0038ZM90.466 20.105C90.086 20.105 89.771 19.99 89.521 19.76C89.281 19.52 89.161 19.225 89.161 18.875C89.161 18.525 89.281 18.235 89.521 18.005C89.771 17.765 90.086 17.645 90.466 17.645C90.836 17.645 91.141 17.765 91.381 18.005C91.621 18.235 91.741 18.525 91.741 18.875C91.741 19.225 91.621 19.52 91.381 19.76C91.141 19.99 90.836 20.105 90.466 20.105ZM99.5375 9.53V16.88C99.5375 17.9 99.2425 18.695 98.6525 19.265C98.0625 19.825 97.2725 20.105 96.2825 20.105C95.2825 20.105 94.4725 19.815 93.8525 19.235C93.2425 18.655 92.9375 17.845 92.9375 16.805H95.0375C95.0475 17.255 95.1525 17.605 95.3525 17.855C95.5625 18.105 95.8625 18.23 96.2525 18.23C96.6325 18.23 96.9225 18.11 97.1225 17.87C97.3225 17.63 97.4225 17.3 97.4225 16.88V9.53H99.5375ZM105.602 20.105C104.872 20.105 104.212 19.98 103.622 19.73C103.042 19.48 102.582 19.12 102.242 18.65C101.902 18.18 101.727 17.625 101.717 16.985H103.967C103.997 17.415 104.147 17.755 104.417 18.005C104.697 18.255 105.077 18.38 105.557 18.38C106.047 18.38 106.432 18.265 106.712 18.035C106.992 17.795 107.132 17.485 107.132 17.105C107.132 16.795 107.037 16.54 106.847 16.34C106.657 16.14 106.417 15.985 106.127 15.875C105.847 15.755 105.457 15.625 104.957 15.485C104.277 15.285 103.722 15.09 103.292 14.9C102.872 14.7 102.507 14.405 102.197 14.015C101.897 13.615 101.747 13.085 101.747 12.425C101.747 11.805 101.902 11.265 102.212 10.805C102.522 10.345 102.957 9.995 103.517 9.755C104.077 9.505 104.717 9.38 105.437 9.38C106.517 9.38 107.392 9.645 108.062 10.175C108.742 10.695 109.117 11.425 109.187 12.365H106.877C106.857 12.005 106.702 11.71 106.412 11.48C106.132 11.24 105.757 11.12 105.287 11.12C104.877 11.12 104.547 11.225 104.297 11.435C104.057 11.645 103.937 11.95 103.937 12.35C103.937 12.63 104.027 12.865 104.207 13.055C104.397 13.235 104.627 13.385 104.897 13.505C105.177 13.615 105.567 13.745 106.067 13.895C106.747 14.095 107.302 14.295 107.732 14.495C108.162 14.695 108.532 14.995 108.842 15.395C109.152 15.795 109.307 16.32 109.307 16.97C109.307 17.53 109.162 18.05 108.872 18.53C108.582 19.01 108.157 19.395 107.597 19.685C107.037 19.965 106.372 20.105 105.602 20.105Z" fill="white"/>
<circle cx="17" cy="15" r="12" fill="white"/>
<path d="M22.7023 12.9792C22.5125 12.916 22.3227 12.8562 22.1328 12.8C22.1645 12.6699 22.1926 12.5398 22.2207 12.4097C22.6531 10.3144 22.3684 8.63042 21.4086 8.07495C20.484 7.54409 18.9758 8.09604 17.45 9.42495C17.2988 9.55503 17.1512 9.69214 17.0105 9.82925C16.9156 9.73784 16.8172 9.64644 16.7188 9.55854C15.1191 8.13823 13.516 7.54058 12.5563 8.09956C11.6352 8.63394 11.3609 10.2195 11.7477 12.2023C11.7863 12.3992 11.8285 12.5925 11.8777 12.7894C11.6527 12.8527 11.4312 12.923 11.2238 12.9968C9.34648 13.6472 8 14.6738 8 15.7355C8 16.8324 9.43438 17.9328 11.3855 18.6007C11.5438 18.6535 11.702 18.7062 11.8637 18.7519C11.8109 18.9628 11.7652 19.1703 11.723 19.3847C11.3539 21.3359 11.6422 22.8828 12.5633 23.4136C13.5125 23.9621 15.1086 23.3996 16.6625 22.039C16.7855 21.93 16.9086 21.8175 17.0316 21.698C17.1863 21.8492 17.348 21.9933 17.5098 22.1339C19.0145 23.4277 20.5016 23.9515 21.4191 23.4207C22.3684 22.8722 22.6777 21.2093 22.277 19.1843C22.2453 19.0296 22.2102 18.8714 22.1715 18.7097C22.284 18.6781 22.393 18.6429 22.502 18.6078C24.5305 17.9363 26 16.85 26 15.7355C26 14.6703 24.6148 13.6367 22.7023 12.9792ZM17.9457 9.99448C19.2535 8.85542 20.4734 8.40894 21.0289 8.72886C21.623 9.06987 21.8516 10.448 21.4789 12.2585C21.4543 12.3781 21.4297 12.4941 21.398 12.6101C20.6176 12.4343 19.8266 12.3078 19.032 12.2375C18.575 11.5835 18.0758 10.9578 17.5344 10.3707C17.6715 10.2406 17.8051 10.1175 17.9457 9.99448ZM13.8781 17.5601C14.0574 17.866 14.2402 18.1718 14.4336 18.4707C13.8852 18.4109 13.3402 18.323 12.8023 18.207C12.957 17.7007 13.1504 17.1769 13.3754 16.6425C13.5371 16.9519 13.7023 17.2578 13.8781 17.5601ZM12.8129 13.3308C13.3191 13.2183 13.857 13.1269 14.416 13.0566C14.2297 13.3484 14.0469 13.6472 13.8746 13.9496C13.7023 14.2484 13.5336 14.5542 13.3754 14.8636C13.1539 14.3398 12.9676 13.8265 12.8129 13.3308ZM13.7762 15.7531C14.0082 15.2679 14.2613 14.7933 14.5285 14.3257C14.7957 13.8582 15.084 13.4046 15.3863 12.9582C15.9137 12.9195 16.4516 12.8984 17 12.8984C17.5484 12.8984 18.0898 12.9195 18.6137 12.9582C18.9125 13.4011 19.1973 13.8546 19.468 14.3187C19.7387 14.7828 19.9918 15.2574 20.2309 15.739C19.9953 16.2242 19.7422 16.7023 19.4715 17.1734C19.2043 17.641 18.9195 18.0945 18.6207 18.5445C18.0969 18.5832 17.552 18.6007 17 18.6007C16.448 18.6007 15.9137 18.5832 15.3969 18.5515C15.091 18.105 14.8027 17.648 14.532 17.1804C14.2613 16.7128 14.0117 16.2382 13.7762 15.7531ZM20.1254 17.5531C20.3047 17.2437 20.4734 16.9308 20.6387 16.6144C20.8637 17.1242 21.0605 17.641 21.2328 18.1718C20.6879 18.2949 20.1359 18.3898 19.5805 18.4531C19.7703 18.1578 19.9496 17.8554 20.1254 17.5531ZM20.6316 14.8636C20.4664 14.5542 20.2977 14.2449 20.1219 13.9425C19.9496 13.6437 19.7703 13.3484 19.584 13.0566C20.15 13.1269 20.6914 13.2218 21.1977 13.3378C21.0359 13.8582 20.8461 14.3644 20.6316 14.8636ZM17.007 10.9085C17.3762 11.3093 17.7242 11.7312 18.0477 12.1671C17.3516 12.1355 16.652 12.1355 15.9559 12.1671C16.3004 11.7136 16.6555 11.2917 17.007 10.9085ZM12.9289 8.75347C13.5195 8.40894 14.8309 8.90112 16.2125 10.1246C16.3004 10.2019 16.3883 10.2863 16.4797 10.3707C15.9348 10.9578 15.432 11.5835 14.9715 12.2375C14.177 12.3078 13.3895 12.4308 12.609 12.6031C12.5633 12.4238 12.5246 12.241 12.4859 12.0582C12.1555 10.3566 12.3734 9.07339 12.9289 8.75347ZM12.0676 18.0207C11.9199 17.9785 11.7758 17.9328 11.6316 17.8835C10.8828 17.648 10.032 17.2753 9.4168 16.7867C9.06172 16.5406 8.82266 16.1609 8.75586 15.7355C8.75586 15.0921 9.8668 14.2695 11.4699 13.7105C11.6703 13.6402 11.8742 13.5769 12.0781 13.5171C12.3172 14.28 12.6055 15.0289 12.9395 15.7531C12.602 16.4878 12.3102 17.2472 12.0676 18.0207ZM16.1668 21.466C15.5867 21.9968 14.9152 22.4187 14.184 22.707C13.7937 22.8933 13.3438 22.9109 12.943 22.7527C12.384 22.4292 12.152 21.1882 12.4684 19.5183C12.507 19.3214 12.5492 19.1246 12.5984 18.9312C13.3859 19.1 14.1805 19.216 14.9855 19.2757C15.4496 19.9332 15.9594 20.5625 16.5043 21.1531C16.3918 21.2621 16.2793 21.3675 16.1668 21.466ZM17.0281 20.6117C16.6695 20.225 16.3109 19.796 15.9629 19.3355C16.3004 19.3496 16.6484 19.3566 17 19.3566C17.3621 19.3566 17.7172 19.3496 18.0687 19.332C17.7453 19.7785 17.3973 20.2039 17.0281 20.6117ZM21.623 21.6664C21.5914 22.0953 21.3805 22.496 21.043 22.7667C20.484 23.0902 19.2922 22.6683 18.0055 21.5644C17.8578 21.4378 17.7102 21.3007 17.559 21.1601C18.0969 20.566 18.5926 19.9367 19.0426 19.2757C19.8477 19.2089 20.6492 19.0859 21.4402 18.9066C21.4754 19.0507 21.507 19.1949 21.5352 19.3355C21.7074 20.0949 21.7355 20.8859 21.623 21.6664ZM22.2629 17.8871C22.1645 17.9187 22.066 17.9503 21.9641 17.9785C21.718 17.2121 21.4156 16.4632 21.0676 15.7355C21.4051 15.0183 21.6898 14.28 21.9289 13.5242C22.1117 13.5769 22.2875 13.6332 22.4563 13.6894C24.0945 14.2519 25.2441 15.0886 25.2441 15.7285C25.2441 16.4175 24.0172 17.307 22.2629 17.8871ZM17 17.3597C17.8895 17.3597 18.6102 16.639 18.6102 15.7496C18.6102 14.8601 17.8895 14.1394 17 14.1394C16.1105 14.1394 15.3898 14.8601 15.3898 15.7496C15.3898 16.639 16.1105 17.3597 17 17.3597Z" fill="#047B9A"/>
</svg>
