<svg width="120" height="30" viewBox="0 0 120 30" fill="none" xmlns="http://www.w3.org/2000/svg">
<rect width="120" height="30" rx="2" fill="#CC6699"/>
<circle cx="116" cy="26" r="3" stroke="black" stroke-opacity="0.3" stroke-width="0.2"/>
<path d="M118.178 27.694C118.046 27.832 117.911 27.931 117.773 27.991C117.635 28.051 117.482 28.081 117.314 28.081C117.08 28.081 116.9 28.024 116.774 27.91C116.648 27.79 116.528 27.58 116.414 27.28L116.072 26.398C116 26.236 115.931 26.119 115.865 26.047C115.799 25.969 115.691 25.93 115.541 25.93V26.902C115.541 27.178 115.562 27.376 115.604 27.496C115.652 27.61 115.76 27.742 115.928 27.892L115.865 28H114.245L114.182 27.838C114.332 27.796 114.44 27.757 114.506 27.721C114.572 27.679 114.617 27.625 114.641 27.559C114.665 27.493 114.677 27.391 114.677 27.253V24.913C114.677 24.625 114.653 24.424 114.605 24.31C114.563 24.19 114.458 24.058 114.29 23.914L114.362 23.797H115.928L115.991 23.941C115.799 24.043 115.676 24.139 115.622 24.229C115.568 24.319 115.541 24.472 115.541 24.688V25.804H115.568L116.639 24.589C116.693 24.523 116.729 24.466 116.747 24.418C116.771 24.364 116.786 24.304 116.792 24.238C116.792 24.196 116.768 24.115 116.72 23.995L116.666 23.896L116.783 23.797H117.845L117.899 23.959L117.692 24.022C117.524 24.094 117.365 24.214 117.215 24.382L115.955 25.822C116.267 25.846 116.513 25.912 116.693 26.02C116.873 26.122 117.005 26.275 117.089 26.479L117.503 27.523C117.533 27.601 117.569 27.658 117.611 27.694C117.653 27.724 117.707 27.739 117.773 27.739C117.869 27.739 117.98 27.691 118.106 27.595L118.178 27.694Z" fill="black" fill-opacity="0.3"/>
<path d="M58.65 20.105C57.92 20.105 57.26 19.98 56.67 19.73C56.09 19.48 55.63 19.12 55.29 18.65C54.95 18.18 54.775 17.625 54.765 16.985H57.015C57.045 17.415 57.195 17.755 57.465 18.005C57.745 18.255 58.125 18.38 58.605 18.38C59.095 18.38 59.48 18.265 59.76 18.035C60.04 17.795 60.18 17.485 60.18 17.105C60.18 16.795 60.085 16.54 59.895 16.34C59.705 16.14 59.465 15.985 59.175 15.875C58.895 15.755 58.505 15.625 58.005 15.485C57.325 15.285 56.77 15.09 56.34 14.9C55.92 14.7 55.555 14.405 55.245 14.015C54.945 13.615 54.795 13.085 54.795 12.425C54.795 11.805 54.95 11.265 55.26 10.805C55.57 10.345 56.005 9.995 56.565 9.755C57.125 9.505 57.765 9.38 58.485 9.38C59.565 9.38 60.44 9.645 61.11 10.175C61.79 10.695 62.165 11.425 62.235 12.365H59.925C59.905 12.005 59.75 11.71 59.46 11.48C59.18 11.24 58.805 11.12 58.335 11.12C57.925 11.12 57.595 11.225 57.345 11.435C57.105 11.645 56.985 11.95 56.985 12.35C56.985 12.63 57.075 12.865 57.255 13.055C57.445 13.235 57.675 13.385 57.945 13.505C58.225 13.615 58.615 13.745 59.115 13.895C59.795 14.095 60.35 14.295 60.78 14.495C61.21 14.695 61.58 14.995 61.89 15.395C62.2 15.795 62.355 16.32 62.355 16.97C62.355 17.53 62.21 18.05 61.92 18.53C61.63 19.01 61.205 19.395 60.645 19.685C60.085 19.965 59.42 20.105 58.65 20.105ZM63.6656 14.75C63.6656 13.72 63.8956 12.8 64.3556 11.99C64.8256 11.17 65.4606 10.535 66.2606 10.085C67.0706 9.625 67.9756 9.395 68.9756 9.395C70.1456 9.395 71.1706 9.695 72.0506 10.295C72.9306 10.895 73.5456 11.725 73.8956 12.785H71.4806C71.2406 12.285 70.9006 11.91 70.4606 11.66C70.0306 11.41 69.5306 11.285 68.9606 11.285C68.3506 11.285 67.8056 11.43 67.3256 11.72C66.8556 12 66.4856 12.4 66.2156 12.92C65.9556 13.44 65.8256 14.05 65.8256 14.75C65.8256 15.44 65.9556 16.05 66.2156 16.58C66.4856 17.1 66.8556 17.505 67.3256 17.795C67.8056 18.075 68.3506 18.215 68.9606 18.215C69.5306 18.215 70.0306 18.09 70.4606 17.84C70.9006 17.58 71.2406 17.2 71.4806 16.7H73.8956C73.5456 17.77 72.9306 18.605 72.0506 19.205C71.1806 19.795 70.1556 20.09 68.9756 20.09C67.9756 20.09 67.0706 19.865 66.2606 19.415C65.4606 18.955 64.8256 18.32 64.3556 17.51C63.8956 16.7 63.6656 15.78 63.6656 14.75ZM79.3043 20.105C78.5743 20.105 77.9143 19.98 77.3243 19.73C76.7443 19.48 76.2843 19.12 75.9443 18.65C75.6043 18.18 75.4293 17.625 75.4193 16.985H77.6693C77.6993 17.415 77.8493 17.755 78.1193 18.005C78.3993 18.255 78.7793 18.38 79.2593 18.38C79.7493 18.38 80.1343 18.265 80.4143 18.035C80.6943 17.795 80.8343 17.485 80.8343 17.105C80.8343 16.795 80.7393 16.54 80.5493 16.34C80.3593 16.14 80.1193 15.985 79.8293 15.875C79.5493 15.755 79.1593 15.625 78.6593 15.485C77.9793 15.285 77.4243 15.09 76.9943 14.9C76.5743 14.7 76.2093 14.405 75.8993 14.015C75.5993 13.615 75.4493 13.085 75.4493 12.425C75.4493 11.805 75.6043 11.265 75.9143 10.805C76.2243 10.345 76.6593 9.995 77.2193 9.755C77.7793 9.505 78.4193 9.38 79.1393 9.38C80.2193 9.38 81.0943 9.645 81.7643 10.175C82.4443 10.695 82.8193 11.425 82.8893 12.365H80.5793C80.5593 12.005 80.4043 11.71 80.1143 11.48C79.8343 11.24 79.4593 11.12 78.9893 11.12C78.5793 11.12 78.2493 11.225 77.9993 11.435C77.7593 11.645 77.6393 11.95 77.6393 12.35C77.6393 12.63 77.7293 12.865 77.9093 13.055C78.0993 13.235 78.3293 13.385 78.5993 13.505C78.8793 13.615 79.2693 13.745 79.7693 13.895C80.4493 14.095 81.0043 14.295 81.4343 14.495C81.8643 14.695 82.2343 14.995 82.5443 15.395C82.8543 15.795 83.0093 16.32 83.0093 16.97C83.0093 17.53 82.8643 18.05 82.5743 18.53C82.2843 19.01 81.8593 19.395 81.2993 19.685C80.7393 19.965 80.0743 20.105 79.3043 20.105ZM88.4449 20.105C87.7149 20.105 87.0549 19.98 86.4649 19.73C85.8849 19.48 85.4249 19.12 85.0849 18.65C84.7449 18.18 84.5699 17.625 84.5599 16.985H86.8099C86.8399 17.415 86.9899 17.755 87.2599 18.005C87.5399 18.255 87.9199 18.38 88.3999 18.38C88.8899 18.38 89.2749 18.265 89.5549 18.035C89.8349 17.795 89.9749 17.485 89.9749 17.105C89.9749 16.795 89.8799 16.54 89.6899 16.34C89.4999 16.14 89.2599 15.985 88.9699 15.875C88.6899 15.755 88.2999 15.625 87.7999 15.485C87.1199 15.285 86.5649 15.09 86.1349 14.9C85.7149 14.7 85.3499 14.405 85.0399 14.015C84.7399 13.615 84.5899 13.085 84.5899 12.425C84.5899 11.805 84.7449 11.265 85.0549 10.805C85.3649 10.345 85.7999 9.995 86.3599 9.755C86.9199 9.505 87.5599 9.38 88.2799 9.38C89.3599 9.38 90.2349 9.645 90.9049 10.175C91.5849 10.695 91.9599 11.425 92.0299 12.365H89.7199C89.6999 12.005 89.5449 11.71 89.2549 11.48C88.9749 11.24 88.5999 11.12 88.1299 11.12C87.7199 11.12 87.3899 11.225 87.1399 11.435C86.8999 11.645 86.7799 11.95 86.7799 12.35C86.7799 12.63 86.8699 12.865 87.0499 13.055C87.2399 13.235 87.4699 13.385 87.7399 13.505C88.0199 13.615 88.4099 13.745 88.9099 13.895C89.5899 14.095 90.1449 14.295 90.5749 14.495C91.0049 14.695 91.3749 14.995 91.6849 15.395C91.9949 15.795 92.1499 16.32 92.1499 16.97C92.1499 17.53 92.0049 18.05 91.7149 18.53C91.4249 19.01 90.9999 19.395 90.4399 19.685C89.8799 19.965 89.2149 20.105 88.4449 20.105Z" fill="white"/>
<circle cx="17" cy="15" r="12" fill="white"/>
<path d="M16.4892 18.4552C16.4808 18.472 16.4724 18.4855 16.4892 18.4552V18.4552ZM23.4961 16.0083C22.9304 16.0081 22.3723 16.138 21.8648 16.388C21.6989 16.0533 21.5273 15.7608 21.4992 15.5414C21.4655 15.2854 21.4289 15.1336 21.4683 14.8298C21.5077 14.5261 21.6848 14.0957 21.682 14.0648C21.6792 14.0339 21.6427 13.8792 21.2798 13.8764C20.917 13.8736 20.6048 13.9467 20.5685 14.0423C20.5045 14.2171 20.4546 14.3967 20.4195 14.5795C20.3548 14.9086 19.6941 16.0842 19.3201 16.6973C19.1963 16.4583 19.0922 16.2473 19.0697 16.0786C19.036 15.8226 18.9994 15.6708 19.0388 15.367C19.0782 15.0633 19.2554 14.6329 19.2526 14.602C19.2497 14.5711 19.2132 14.4164 18.8507 14.4136C18.4881 14.4107 18.1756 14.4839 18.1391 14.5795C18.1025 14.6751 18.0631 14.9001 17.99 15.1167C17.9169 15.3333 17.0368 17.2908 16.8065 17.7999C16.6884 18.0586 16.5871 18.2667 16.514 18.4074C16.5027 18.4299 16.4943 18.4439 16.4887 18.4552C16.4971 18.4411 16.5027 18.427 16.5027 18.4327C16.4409 18.5536 16.4043 18.6211 16.4043 18.6211V18.6239C16.3565 18.7139 16.3031 18.7955 16.2777 18.7955C16.2609 18.7955 16.2243 18.5592 16.2862 18.2358C16.4184 17.5552 16.7306 16.4976 16.7278 16.4611C16.7249 16.4414 16.7868 16.2586 16.5224 16.1601C16.2665 16.0673 16.1737 16.222 16.1512 16.222C16.1287 16.222 16.1118 16.2783 16.1118 16.2783C16.1118 16.2783 16.3959 15.0858 15.5665 15.0858C15.049 15.0858 14.3289 15.6539 13.9751 16.1686C13.7529 16.2895 13.272 16.5511 12.7657 16.8295C12.5717 16.9364 12.372 17.0461 12.1835 17.1502C12.1695 17.1361 12.1582 17.122 12.1442 17.108C11.1376 16.0336 9.27904 15.2742 9.35779 13.8314C9.38592 13.3054 9.56873 11.9245 12.9317 10.2482C15.688 8.87568 17.8916 9.25256 18.271 10.0907C18.8166 11.286 17.0928 13.5107 14.2305 13.8314C13.1395 13.9523 12.566 13.5304 12.4226 13.3729C12.2735 13.207 12.251 13.1985 12.1948 13.2295C12.102 13.2801 12.161 13.4264 12.1948 13.5136C12.2792 13.7357 12.6307 14.1295 13.2295 14.3264C13.7555 14.4979 15.0346 14.5936 16.5812 13.9945C18.3188 13.3251 19.6713 11.4604 19.2748 9.89945C18.8709 8.31318 16.2406 7.79286 13.7535 8.67599C12.2716 9.20194 10.669 10.0288 9.51614 11.106C8.14671 12.3885 7.92762 13.5051 8.01762 13.972C8.33797 15.6286 10.6212 16.7086 11.535 17.5073C11.49 17.5327 11.4478 17.5552 11.4084 17.5777C10.9502 17.8055 9.20957 18.7167 8.77391 19.6786C8.28172 20.7699 8.85547 21.5518 9.23207 21.6586C10.4074 21.9849 11.6109 21.3971 12.2575 20.4324C12.9041 19.4677 12.8256 18.2077 12.5275 17.6339C12.5247 17.6255 12.5191 17.6198 12.5163 17.6114C12.6344 17.5411 12.7553 17.4708 12.8763 17.4005C13.1094 17.2627 13.3372 17.1361 13.5369 17.0264C13.4244 17.3302 13.3429 17.6958 13.3007 18.2245C13.2501 18.8433 13.506 19.6449 13.8379 19.9599C13.9841 20.0977 14.161 20.1005 14.2707 20.1005C14.6589 20.1005 14.8332 19.7799 15.027 19.3974C15.2661 18.9305 15.477 18.3877 15.477 18.3877C15.477 18.3877 15.2126 19.8558 15.9355 19.8558C16.1996 19.8558 16.4639 19.5155 16.5823 19.3411V19.3439C16.5823 19.3439 16.588 19.3327 16.602 19.3102C16.6302 19.268 16.6442 19.2427 16.6442 19.2427V19.2342C16.7511 19.0514 16.9845 18.6324 17.3358 17.9405C17.7915 17.0461 18.2271 15.9295 18.2271 15.9295C18.2692 16.175 18.3275 16.4174 18.4015 16.6552C18.4802 16.9223 18.6462 17.2148 18.7784 17.4989C18.6715 17.6452 18.6068 17.7295 18.6068 17.7295C18.607 17.7317 18.608 17.7337 18.6096 17.7352C18.5252 17.8477 18.4296 17.9686 18.3312 18.0867C17.9715 18.5142 17.5437 19.0036 17.4874 19.1442C17.4199 19.3102 17.4368 19.4339 17.5662 19.5296C17.6618 19.6027 17.8305 19.6139 18.0075 19.5999C18.3309 19.5774 18.5587 19.4986 18.6684 19.448C18.8706 19.3755 19.0617 19.2751 19.2362 19.1499C19.5878 18.8911 19.8016 18.5199 19.7819 18.0305C19.7706 17.7605 19.6834 17.4905 19.5766 17.2373C19.6075 17.1923 19.6413 17.1445 19.6722 17.0967C20.2288 16.2839 20.6591 15.3918 20.6591 15.3918C20.7012 15.6372 20.7595 15.8796 20.8335 16.1174C20.901 16.3452 21.0329 16.5955 21.1538 16.8402C20.631 17.2649 20.3075 17.7571 20.195 18.0805C19.9869 18.6796 20.15 18.9496 20.4566 19.0115C20.5944 19.0396 20.7913 18.9749 20.9375 18.9131C21.1548 18.8407 21.3596 18.7354 21.5448 18.6009C21.8963 18.3421 22.2364 17.9793 22.2139 17.4871C22.2054 17.2649 22.1436 17.0427 22.062 16.829C22.5036 16.6433 23.077 16.5421 23.8083 16.6265C25.3743 16.8093 25.6809 17.788 25.6218 18.1959C25.5628 18.6037 25.2337 18.8315 25.124 18.899C25.0143 18.9665 24.9806 18.9918 24.989 19.0424C25.0031 19.1156 25.0537 19.1127 25.1465 19.0959C25.2759 19.0734 25.9675 18.764 25.9984 18.0074C26.0434 17.0512 25.124 15.9993 23.4953 16.0077L23.4961 16.0083ZM11.4253 20.078C10.9081 20.6433 10.1824 20.8571 9.87052 20.6771C9.53582 20.4824 9.66801 19.6505 10.3062 19.0481C10.6943 18.6824 11.1947 18.3449 11.5265 18.1368C11.6025 18.0918 11.7122 18.0243 11.8472 17.9427C11.8697 17.9287 11.8809 17.923 11.8809 17.923C11.9062 17.9062 11.9344 17.8921 11.9625 17.8752C12.1956 18.7302 11.9709 19.484 11.4253 20.0774V20.078ZM15.2042 17.5073C15.0242 17.9489 14.6448 19.0739 14.4142 19.0149C14.2173 18.9642 14.0963 18.1064 14.3748 17.2627C14.5154 16.838 14.8135 16.3317 14.9907 16.1348C15.2745 15.817 15.5867 15.7158 15.6598 15.8423C15.7583 16.0083 15.3167 17.2317 15.2042 17.5073ZM18.3261 18.998C18.2502 19.0374 18.1799 19.0627 18.1461 19.043C18.1208 19.0289 18.177 18.9755 18.177 18.9755C18.177 18.9755 18.568 18.5564 18.7227 18.3652C18.8127 18.2527 18.9167 18.1205 19.029 17.9742C19.029 17.9883 19.0318 18.0024 19.0318 18.0192C19.0281 18.5227 18.5446 18.863 18.3253 18.998H18.3261ZM20.7331 18.4495C20.6768 18.4102 20.6853 18.278 20.8737 17.8674C20.9468 17.707 21.1153 17.437 21.4081 17.1783C21.4412 17.2762 21.4592 17.3787 21.4615 17.482C21.4587 18.1149 21.0059 18.3511 20.7334 18.4495H20.7331Z" fill="#FF0000"/>
</svg>
