<svg width="127" height="30" viewBox="0 0 127 30" fill="none" xmlns="http://www.w3.org/2000/svg">
<rect width="127" height="30" rx="2" fill="#00273F"/>
<circle cx="123" cy="26" r="3" stroke="black" stroke-opacity="0.3" stroke-width="0.2"/>
<path d="M125.178 27.694C125.046 27.832 124.911 27.931 124.773 27.991C124.635 28.051 124.482 28.081 124.314 28.081C124.08 28.081 123.9 28.024 123.774 27.91C123.648 27.79 123.528 27.58 123.414 27.28L123.072 26.398C123 26.236 122.931 26.119 122.865 26.047C122.799 25.969 122.691 25.93 122.541 25.93V26.902C122.541 27.178 122.562 27.376 122.604 27.496C122.652 27.61 122.76 27.742 122.928 27.892L122.865 28H121.245L121.182 27.838C121.332 27.796 121.44 27.757 121.506 27.721C121.572 27.679 121.617 27.625 121.641 27.559C121.665 27.493 121.677 27.391 121.677 27.253V24.913C121.677 24.625 121.653 24.424 121.605 24.31C121.563 24.19 121.458 24.058 121.29 23.914L121.362 23.797H122.928L122.991 23.941C122.799 24.043 122.676 24.139 122.622 24.229C122.568 24.319 122.541 24.472 122.541 24.688V25.804H122.568L123.639 24.589C123.693 24.523 123.729 24.466 123.747 24.418C123.771 24.364 123.786 24.304 123.792 24.238C123.792 24.196 123.768 24.115 123.72 23.995L123.666 23.896L123.783 23.797H124.845L124.899 23.959L124.692 24.022C124.524 24.094 124.365 24.214 124.215 24.382L122.955 25.822C123.267 25.846 123.513 25.912 123.693 26.02C123.873 26.122 124.005 26.275 124.089 26.479L124.503 27.523C124.533 27.601 124.569 27.658 124.611 27.694C124.653 27.724 124.707 27.739 124.773 27.739C124.869 27.739 124.98 27.691 125.106 27.595L125.178 27.694Z" fill="black" fill-opacity="0.3"/>
<path d="M42.9367 9.53V11.225H40.1467V20H38.0467V11.225H35.2567V9.53H42.9367ZM52.419 11.69L47.274 23.93H45.039L46.839 19.79L43.509 11.69H45.864L48.009 17.495L50.184 11.69H52.419ZM55.651 12.89C55.921 12.51 56.291 12.195 56.761 11.945C57.241 11.685 57.786 11.555 58.396 11.555C59.106 11.555 59.746 11.73 60.316 12.08C60.896 12.43 61.351 12.93 61.681 13.58C62.021 14.22 62.191 14.965 62.191 15.815C62.191 16.665 62.021 17.42 61.681 18.08C61.351 18.73 60.896 19.235 60.316 19.595C59.746 19.955 59.106 20.135 58.396 20.135C57.786 20.135 57.246 20.01 56.776 19.76C56.316 19.51 55.941 19.195 55.651 18.815V23.96H53.551V11.69H55.651V12.89ZM60.046 15.815C60.046 15.315 59.941 14.885 59.731 14.525C59.531 14.155 59.261 13.875 58.921 13.685C58.591 13.495 58.231 13.4 57.841 13.4C57.461 13.4 57.101 13.5 56.761 13.7C56.431 13.89 56.161 14.17 55.951 14.54C55.751 14.91 55.651 15.345 55.651 15.845C55.651 16.345 55.751 16.78 55.951 17.15C56.161 17.52 56.431 17.805 56.761 18.005C57.101 18.195 57.461 18.29 57.841 18.29C58.231 18.29 58.591 18.19 58.921 17.99C59.261 17.79 59.531 17.505 59.731 17.135C59.941 16.765 60.046 16.325 60.046 15.815ZM71.442 15.665C71.442 15.965 71.422 16.235 71.382 16.475H65.307C65.357 17.075 65.567 17.545 65.937 17.885C66.307 18.225 66.762 18.395 67.302 18.395C68.082 18.395 68.637 18.06 68.967 17.39H71.232C70.992 18.19 70.532 18.85 69.852 19.37C69.172 19.88 68.337 20.135 67.347 20.135C66.547 20.135 65.827 19.96 65.187 19.61C64.557 19.25 64.062 18.745 63.702 18.095C63.352 17.445 63.177 16.695 63.177 15.845C63.177 14.985 63.352 14.23 63.702 13.58C64.052 12.93 64.542 12.43 65.172 12.08C65.802 11.73 66.527 11.555 67.347 11.555C68.137 11.555 68.842 11.725 69.462 12.065C70.092 12.405 70.577 12.89 70.917 13.52C71.267 14.14 71.442 14.855 71.442 15.665ZM69.267 15.065C69.257 14.525 69.062 14.095 68.682 13.775C68.302 13.445 67.837 13.28 67.287 13.28C66.767 13.28 66.327 13.44 65.967 13.76C65.617 14.07 65.402 14.505 65.322 15.065H69.267ZM76.5898 20.105C75.8598 20.105 75.1998 19.98 74.6098 19.73C74.0298 19.48 73.5698 19.12 73.2298 18.65C72.8898 18.18 72.7148 17.625 72.7048 16.985H74.9548C74.9848 17.415 75.1348 17.755 75.4048 18.005C75.6848 18.255 76.0648 18.38 76.5448 18.38C77.0348 18.38 77.4198 18.265 77.6998 18.035C77.9798 17.795 78.1198 17.485 78.1198 17.105C78.1198 16.795 78.0248 16.54 77.8348 16.34C77.6448 16.14 77.4048 15.985 77.1148 15.875C76.8348 15.755 76.4448 15.625 75.9448 15.485C75.2648 15.285 74.7098 15.09 74.2798 14.9C73.8598 14.7 73.4948 14.405 73.1848 14.015C72.8848 13.615 72.7348 13.085 72.7348 12.425C72.7348 11.805 72.8898 11.265 73.1998 10.805C73.5098 10.345 73.9448 9.995 74.5048 9.755C75.0648 9.505 75.7048 9.38 76.4248 9.38C77.5048 9.38 78.3798 9.645 79.0498 10.175C79.7298 10.695 80.1048 11.425 80.1748 12.365H77.8648C77.8448 12.005 77.6898 11.71 77.3998 11.48C77.1198 11.24 76.7448 11.12 76.2748 11.12C75.8648 11.12 75.5348 11.225 75.2848 11.435C75.0448 11.645 74.9248 11.95 74.9248 12.35C74.9248 12.63 75.0148 12.865 75.1948 13.055C75.3848 13.235 75.6148 13.385 75.8848 13.505C76.1648 13.615 76.5548 13.745 77.0548 13.895C77.7348 14.095 78.2898 14.295 78.7198 14.495C79.1498 14.695 79.5198 14.995 79.8298 15.395C80.1398 15.795 80.2948 16.32 80.2948 16.97C80.2948 17.53 80.1498 18.05 79.8598 18.53C79.5698 19.01 79.1448 19.395 78.5848 19.685C78.0248 19.965 77.3598 20.105 76.5898 20.105ZM81.5754 15.845C81.5754 14.985 81.7504 14.235 82.1004 13.595C82.4504 12.945 82.9354 12.445 83.5554 12.095C84.1754 11.735 84.8854 11.555 85.6854 11.555C86.7154 11.555 87.5654 11.815 88.2354 12.335C88.9154 12.845 89.3704 13.565 89.6004 14.495H87.3354C87.2154 14.135 87.0104 13.855 86.7204 13.655C86.4404 13.445 86.0904 13.34 85.6704 13.34C85.0704 13.34 84.5954 13.56 84.2454 14C83.8954 14.43 83.7204 15.045 83.7204 15.845C83.7204 16.635 83.8954 17.25 84.2454 17.69C84.5954 18.12 85.0704 18.335 85.6704 18.335C86.5204 18.335 87.0754 17.955 87.3354 17.195H89.6004C89.3704 18.095 88.9154 18.81 88.2354 19.34C87.5554 19.87 86.7054 20.135 85.6854 20.135C84.8854 20.135 84.1754 19.96 83.5554 19.61C82.9354 19.25 82.4504 18.75 82.1004 18.11C81.7504 17.46 81.5754 16.705 81.5754 15.845ZM93.2389 12.98C93.5089 12.54 93.8589 12.195 94.2889 11.945C94.7289 11.695 95.2289 11.57 95.7889 11.57V13.775H95.2339C94.5739 13.775 94.0739 13.93 93.7339 14.24C93.4039 14.55 93.2389 15.09 93.2389 15.86V20H91.1389V11.69H93.2389V12.98ZM98.2683 10.7C97.8983 10.7 97.5883 10.585 97.3383 10.355C97.0983 10.115 96.9783 9.82 96.9783 9.47C96.9783 9.12 97.0983 8.83 97.3383 8.6C97.5883 8.36 97.8983 8.24 98.2683 8.24C98.6383 8.24 98.9433 8.36 99.1833 8.6C99.4333 8.83 99.5583 9.12 99.5583 9.47C99.5583 9.82 99.4333 10.115 99.1833 10.355C98.9433 10.585 98.6383 10.7 98.2683 10.7ZM99.3033 11.69V20H97.2033V11.69H99.3033ZM103.478 12.89C103.748 12.51 104.118 12.195 104.588 11.945C105.068 11.685 105.613 11.555 106.223 11.555C106.933 11.555 107.573 11.73 108.143 12.08C108.723 12.43 109.178 12.93 109.508 13.58C109.848 14.22 110.018 14.965 110.018 15.815C110.018 16.665 109.848 17.42 109.508 18.08C109.178 18.73 108.723 19.235 108.143 19.595C107.573 19.955 106.933 20.135 106.223 20.135C105.613 20.135 105.073 20.01 104.603 19.76C104.143 19.51 103.768 19.195 103.478 18.815V23.96H101.378V11.69H103.478V12.89ZM107.873 15.815C107.873 15.315 107.768 14.885 107.558 14.525C107.358 14.155 107.088 13.875 106.748 13.685C106.418 13.495 106.058 13.4 105.668 13.4C105.288 13.4 104.928 13.5 104.588 13.7C104.258 13.89 103.988 14.17 103.778 14.54C103.578 14.91 103.478 15.345 103.478 15.845C103.478 16.345 103.578 16.78 103.778 17.15C103.988 17.52 104.258 17.805 104.588 18.005C104.928 18.195 105.288 18.29 105.668 18.29C106.058 18.29 106.418 18.19 106.748 17.99C107.088 17.79 107.358 17.505 107.558 17.135C107.768 16.765 107.873 16.325 107.873 15.815ZM113.989 13.415V17.435C113.989 17.715 114.054 17.92 114.184 18.05C114.324 18.17 114.554 18.23 114.874 18.23H115.849V20H114.529C112.759 20 111.874 19.14 111.874 17.42V13.415H110.884V11.69H111.874V9.635H113.989V11.69H115.849V13.415H113.989Z" fill="white"/>
<ellipse cx="17.3214" cy="15" rx="12.3214" ry="12" fill="#3178C6"/>
<path d="M16.938 10.172V12.09H14.334V20H11.94V12.09H9.336V10.172H16.938ZM21.6955 20.098C20.9768 20.098 20.3328 19.9813 19.7635 19.748C19.1942 19.5147 18.7368 19.1693 18.3915 18.712C18.0555 18.2547 17.8782 17.704 17.8595 17.06H20.4075C20.4448 17.424 20.5708 17.704 20.7855 17.9C21.0002 18.0867 21.2802 18.18 21.6255 18.18C21.9802 18.18 22.2602 18.1007 22.4655 17.942C22.6708 17.774 22.7735 17.5453 22.7735 17.256C22.7735 17.0133 22.6895 16.8127 22.5215 16.654C22.3628 16.4953 22.1622 16.3647 21.9195 16.262C21.6862 16.1593 21.3502 16.0427 20.9115 15.912C20.2768 15.716 19.7588 15.52 19.3575 15.324C18.9562 15.128 18.6108 14.8387 18.3215 14.456C18.0322 14.0733 17.8875 13.574 17.8875 12.958C17.8875 12.0433 18.2188 11.3293 18.8815 10.816C19.5442 10.2933 20.4075 10.032 21.4715 10.032C22.5542 10.032 23.4268 10.2933 24.0895 10.816C24.7522 11.3293 25.1068 12.048 25.1535 12.972H22.5635C22.5448 12.6547 22.4282 12.4073 22.2135 12.23C21.9988 12.0433 21.7235 11.95 21.3875 11.95C21.0982 11.95 20.8648 12.0293 20.6875 12.188C20.5102 12.3373 20.4215 12.5567 20.4215 12.846C20.4215 13.1633 20.5708 13.4107 20.8695 13.588C21.1682 13.7653 21.6348 13.9567 22.2695 14.162C22.9042 14.3767 23.4175 14.582 23.8095 14.778C24.2108 14.974 24.5562 15.2587 24.8455 15.632C25.1348 16.0053 25.2795 16.486 25.2795 17.074C25.2795 17.634 25.1348 18.1427 24.8455 18.6C24.5655 19.0573 24.1548 19.4213 23.6135 19.692C23.0722 19.9627 22.4328 20.098 21.6955 20.098Z" fill="white"/>
</svg>
